<svg width="356" height="401" viewBox="0 0 356 401" fill="none" xmlns="http://www.w3.org/2000/svg">
<path d="M1.06464 374.179H354.935" stroke="#263238" stroke-linecap="round" stroke-linejoin="round"/>
<path d="M215.897 191.213V58.3516H224.123" stroke="#263238" stroke-linecap="round" stroke-linejoin="round"/>
<path d="M215.897 207.024V203.503" stroke="#263238" stroke-linecap="round" stroke-linejoin="round"/>
<path d="M245.28 58.3516H330.167V219.413H215.897" stroke="#263238" stroke-linecap="round" stroke-linejoin="round"/>
<path d="M234.877 58.3516H242.336" stroke="#263238" stroke-linecap="round" stroke-linejoin="round"/>
<path d="M325.869 62.6406H220.195V215.124H325.869V62.6406Z" stroke="#263238" stroke-linecap="round" stroke-linejoin="round"/>
<path d="M320.957 70.8037V134.128H225.108V129.993" stroke="#263238" stroke-linecap="round" stroke-linejoin="round"/>
<path d="M225.108 120.313V67.1377H320.957" stroke="#263238" stroke-linecap="round" stroke-linejoin="round"/>
<path d="M225.108 126.823V122.805" stroke="#263238" stroke-linecap="round" stroke-linejoin="round"/>
<path d="M304.767 138.877H325.869" stroke="#263238" stroke-linecap="round" stroke-linejoin="round"/>
<path d="M297.263 138.877H300.252" stroke="#263238" stroke-linecap="round" stroke-linejoin="round"/>
<path d="M220.195 138.877H293.705" stroke="#263238" stroke-linecap="round" stroke-linejoin="round"/>
<path d="M267.718 134.129V131.943H276.558V133.18H273.037V134.129" stroke="#263238" stroke-linecap="round" stroke-linejoin="round"/>
<path d="M220.376 195.909C220.376 195.909 221.848 197.019 222.877 203.737C222.877 203.737 224.683 193.01 226.796 192.847C228.909 192.685 228.512 199.818 228.512 199.818C228.512 199.818 228.873 196.306 230.552 196.468C232.232 196.631 230.552 203.692 230.552 203.692C230.552 203.692 232.575 198.148 234.489 198.274C236.403 198.401 233.225 208.315 233.225 208.315C233.225 208.315 238.137 204.758 240.124 206.509C242.11 208.261 239.022 212.631 239.022 212.631C239.022 212.631 246.065 211.105 247.149 215.241" stroke="#263238" stroke-linecap="round" stroke-linejoin="round"/>
<path d="M247.158 211.26C247.158 211.26 250.228 209.246 252.648 210.185C252.648 210.185 251.113 207.847 252.648 206.42C254.183 204.993 256.151 210.185 256.151 210.185C256.151 210.185 256.377 201.472 259.447 201.914C262.517 202.357 259.447 210.185 259.447 210.185C259.447 210.185 264.928 205.327 266.246 207.016C267.565 208.704 265.343 211.26 265.343 211.26C266.334 210.978 267.381 210.959 268.382 211.205C269.382 211.45 270.302 211.951 271.05 212.659C271.05 212.659 274.725 208.912 278.807 208.37C278.807 208.37 276.098 200.487 277.407 198.898C278.716 197.309 281.118 205.779 281.118 205.779C281.118 205.779 282.166 200.271 285.633 199.837C285.633 199.837 282.771 198.284 283.619 195.928C284.468 193.571 288.414 196.487 288.414 196.487C288.414 196.487 286.789 192.343 289.362 191.205C291.936 190.067 292.974 194.672 292.974 194.672C292.974 194.672 293.696 189.851 296.712 190.158C299.728 190.465 298.753 195.973 298.753 195.973C298.753 195.973 301.597 191.566 303.123 192.009C306.166 192.912 305.245 199.883 305.245 199.883C305.245 199.883 309.489 196.93 310.591 198.293C311.692 199.657 306.166 203.54 306.166 203.54C306.166 203.54 310.383 204 313.011 206.465" stroke="#263238" stroke-linecap="round" stroke-linejoin="round"/>
<path d="M325.869 197.534C325.869 197.534 325.381 193.11 320.957 192.875C316.532 192.64 322.176 202.582 322.176 202.582C322.176 202.582 318.519 199.557 317.21 200.487C315.9 201.417 320.957 206.546 320.957 206.546C320.957 206.546 318.528 204.298 315.973 204.993C313.417 205.688 317.426 212.813 317.426 212.813C313.646 212.055 309.722 212.517 306.221 214.131" stroke="#263238" stroke-linecap="round" stroke-linejoin="round"/>
<path d="M175.011 334.649V373.946" stroke="#263238" stroke-linecap="round" stroke-linejoin="round"/>
<path d="M175.011 321.791V330.207" stroke="#263238" stroke-linecap="round" stroke-linejoin="round"/>
<path d="M9.58856 374.18V300.95H175.011V317.023" stroke="#263238" stroke-linecap="round" stroke-linejoin="round"/>
<path d="M33.6886 308.96H19.3315V367.463" stroke="#263238" stroke-linecap="round" stroke-linejoin="round"/>
<path d="M165.268 373.946V308.96H42.0229" stroke="#263238" stroke-linecap="round" stroke-linejoin="round"/>
<path d="M158.388 293.364H153.828" stroke="#263238" stroke-linecap="round" stroke-linejoin="round"/>
<path d="M147.281 293.364H5.4801V300.895H179.12V293.364H161.295" stroke="#263238" stroke-linecap="round" stroke-linejoin="round"/>
<path d="M15.2592 245.11C15.2592 245.11 28.8036 246.185 29.4177 256.208C29.4177 256.208 15.6475 262.547 15.2592 245.11Z" stroke="#263238" stroke-linecap="round" stroke-linejoin="round"/>
<path d="M42.1404 247.603C42.1404 247.603 49.7343 237.336 62.0055 242.6C62.0055 242.6 54.511 255.007 42.1404 247.603Z" stroke="#263238" stroke-linecap="round" stroke-linejoin="round"/>
<path d="M60.9672 215.186C60.9672 215.186 63.1523 234.934 45.1744 229.498C45.1744 229.498 50.8811 214.978 60.9672 215.186Z" stroke="#263238" stroke-linecap="round" stroke-linejoin="round"/>
<path d="M38.8897 204.188C38.8897 204.188 53.1113 211.864 42.655 223.494C42.655 223.494 32.6863 215.187 38.8897 204.188Z" stroke="#263238" stroke-linecap="round" stroke-linejoin="round"/>
<path d="M21.3993 221.841C21.3993 221.841 36.858 220.288 36.858 234.591C36.858 234.591 21.3993 235.205 21.3993 221.841Z" stroke="#263238" stroke-linecap="round" stroke-linejoin="round"/>
<path d="M32.9843 264.29C32.7586 259.486 32.7586 253.31 35.6932 246.781C42.4564 231.72 44.7228 219.033 41.2103 210.094" stroke="#263238" stroke-linecap="round" stroke-linejoin="round"/>
<path d="M26.4739 225.707C26.4739 225.707 35.7383 229.391 38.8897 238.935" stroke="#263238" stroke-linecap="round" stroke-linejoin="round"/>
<path d="M56.1001 223.087C56.1001 223.087 50.7455 230.383 41.6527 229.597" stroke="#263238" stroke-linecap="round" stroke-linejoin="round"/>
<path d="M56.1002 244.669C56.1002 244.669 41.2645 248.94 35.332 247.54" stroke="#263238" stroke-linecap="round" stroke-linejoin="round"/>
<path d="M19.6837 249.626C19.6837 249.626 26.3205 256.904 32.9843 256.786" stroke="#263238" stroke-linecap="round" stroke-linejoin="round"/>
<path d="M50.6192 264.289H18.3924C18.1841 264.289 17.9843 264.372 17.837 264.519C17.6896 264.666 17.6069 264.866 17.6069 265.075V267.522C17.6069 267.624 17.6272 267.726 17.6668 267.821C17.7064 267.916 17.7644 268.002 17.8375 268.074C17.9106 268.146 17.9972 268.203 18.0925 268.242C18.1878 268.28 18.2897 268.299 18.3924 268.298H19.2954L22.1668 293.364H46.7996L49.671 268.298H50.6192C50.7215 268.299 50.823 268.28 50.9178 268.242C51.0125 268.203 51.0986 268.146 51.171 268.073C51.2433 268.001 51.3005 267.915 51.3391 267.82C51.3777 267.725 51.3969 267.624 51.3957 267.522V265.075C51.3969 264.972 51.3777 264.87 51.3392 264.775C51.3007 264.679 51.2437 264.593 51.1715 264.52C51.0992 264.447 51.0132 264.389 50.9184 264.349C50.8236 264.309 50.7219 264.289 50.6192 264.289Z" stroke="#263238" stroke-miterlimit="10"/>
<path d="M21.3993 268.299H40.1448" stroke="#263238" stroke-linecap="round" stroke-linejoin="round"/>
<path d="M43.6754 268.299H46.4927" stroke="#263238" stroke-linecap="round" stroke-linejoin="round"/>
<path d="M249.072 164.385L245.46 184.015L216.006 201.912L220.078 209.388C220.078 209.388 254.129 199.004 254.96 196.575C255.79 194.146 263.637 168.421 263.637 168.421L249.072 164.385Z" fill="#263238"/>
<path d="M261.975 131.191L260.007 154.993L258.969 167.481C253.289 170.245 247.736 166.091 247.393 165.82C248.937 161.287 250.734 135.706 261.975 131.191Z" fill="#999999" stroke="#263238" stroke-linecap="round" stroke-linejoin="round"/>
<path d="M259.971 154.995L258.932 167.483C253.253 170.246 247.7 166.092 247.356 165.821C247.6 165.929 250.589 167.194 252.53 165.821C251.851 165.088 251.246 164.289 250.725 163.437C250.607 162.968 252.53 162.841 252.53 162.841C252.53 162.841 251.266 152.719 254.634 148.394C255.953 146.751 258.011 150.182 259.971 154.995Z" fill="#263238"/>
<path d="M282.373 351.613L283.276 354.268C281.908 356.527 280.375 358.682 278.689 360.715C278.689 360.715 277.786 360.426 276.305 361.735C275.393 362.645 274.83 363.847 274.716 365.131C274.716 365.131 267.818 373.402 259.068 373.519C250.318 373.637 252.955 369.23 252.955 369.23L282.373 351.613Z" fill="#FF6300" stroke="#263238" stroke-linecap="round" stroke-linejoin="round"/>
<path d="M274.147 330.566C274.147 330.566 262.409 326.24 260.115 334.891C260.115 334.891 262.21 344.417 260.955 349.627C259.7 354.837 253.379 364.788 252.991 366.675C252.223 370.377 252.801 370.63 252.801 370.63C252.801 370.63 257.397 373.285 263.574 370.44C269.75 367.596 280.441 355.352 282.111 352.833C283.782 350.313 276.874 340.381 276.874 340.381L274.147 330.566Z" fill="white"/>
<mask id="mask0_467_10851" style="mask-type:luminance" maskUnits="userSpaceOnUse" x="252" y="329" width="31" height="43">
<path d="M274.147 330.566C274.147 330.566 262.409 326.24 260.115 334.891C260.115 334.891 262.21 344.417 260.955 349.627C259.7 354.837 253.379 364.788 252.991 366.675C252.223 370.377 252.801 370.63 252.801 370.63C252.801 370.63 257.397 373.285 263.574 370.44C269.75 367.596 280.441 355.352 282.111 352.833C283.782 350.313 276.874 340.381 276.874 340.381L274.147 330.566Z" fill="white"/>
</mask>
<g mask="url(#mask0_467_10851)">
<path opacity="0.4" d="M274.147 330.566C274.147 330.566 262.409 326.24 260.115 334.891C260.115 334.891 262.21 344.417 260.955 349.627C259.7 354.837 253.379 364.788 252.991 366.675C252.223 370.377 252.801 370.63 252.801 370.63C252.801 370.63 257.397 373.285 263.574 370.44C269.75 367.596 280.441 355.352 282.111 352.833C283.782 350.313 276.874 340.381 276.874 340.381L274.147 330.566Z" fill="#FF6300"/>
</g>
<path d="M274.147 330.566C274.147 330.566 262.409 326.24 260.115 334.891C260.115 334.891 262.21 344.417 260.955 349.627C259.7 354.837 253.379 364.788 252.991 366.675C252.223 370.377 252.801 370.63 252.801 370.63C252.801 370.63 257.397 373.285 263.574 370.44C269.75 367.596 280.441 355.352 282.111 352.833C283.782 350.313 276.874 340.381 276.874 340.381L274.147 330.566Z" stroke="#263238" stroke-linecap="round" stroke-linejoin="round"/>
<path d="M268.143 342.801C269.164 348.628 268.127 354.63 265.208 359.776" stroke="#263238" stroke-linecap="round" stroke-linejoin="round"/>
<path d="M265.208 362.052C264.771 363.151 264.093 364.139 263.225 364.942C262.356 365.745 261.318 366.344 260.188 366.693C257.821 367.326 255.33 367.326 252.964 366.693L255.781 360.986C258.772 362.178 262.027 362.546 265.208 362.052Z" fill="#FF6300" stroke="#263238" stroke-linecap="round" stroke-linejoin="round"/>
<path d="M266.869 358.593C266.869 358.593 260.729 358.964 257.524 357.69" stroke="#263238" stroke-linecap="round" stroke-linejoin="round"/>
<path d="M268.007 355.208C268.007 355.208 262.264 356.111 259.059 354.305" stroke="#263238" stroke-linecap="round" stroke-linejoin="round"/>
<path d="M268.982 351.442C268.982 351.442 263.953 352.173 260.666 350.62" stroke="#263238" stroke-linecap="round" stroke-linejoin="round"/>
<path d="M269.542 347.181C269.542 347.181 263.944 348.932 261.298 347.181" stroke="#263238" stroke-linecap="round" stroke-linejoin="round"/>
<path d="M270.382 336.652L271.357 342.801C271.357 342.801 263.953 347.677 259.059 341.582V335.162C259.059 335.162 260.901 339.478 270.382 336.652Z" fill="#FF6300" stroke="#263238" stroke-linecap="round" stroke-linejoin="round"/>
<path d="M263.953 198.615C256.449 222.39 233.162 260.522 235.519 270.283C236.81 275.611 244.494 305.797 250.508 319.043C252.792 324.109 257.731 327.495 257.731 327.495L261.298 335.143C269.994 338.926 273.109 331.233 273.109 331.233L271.357 322.565C276.016 314.095 274.066 314.095 268.007 270.193C267.294 265.019 279.294 249.028 279.294 249.028L285.452 289.264L286.455 322.222L289.651 332.407C289.651 332.407 290.446 341.969 290.374 342.547H304.667L306.221 332.037C306.221 332.037 312.857 325.779 312.857 318.556C312.857 311.332 311.431 274.536 312.857 263.818C314.284 253.1 309.516 203.13 309.516 203.13L263.953 198.615Z" fill="#263238"/>
<path d="M166.782 177.432L186.647 179.22C187.097 179.26 187.513 179.478 187.802 179.825C188.092 180.172 188.232 180.62 188.192 181.07L186.916 195.247L163.655 193.153L164.931 178.977C164.972 178.527 165.189 178.111 165.536 177.821C165.883 177.532 166.331 177.392 166.782 177.432Z" fill="#FF6300"/>
<mask id="mask1_467_10851" style="mask-type:luminance" maskUnits="userSpaceOnUse" x="163" y="177" width="26" height="19">
<path d="M166.782 177.432L186.647 179.22C187.097 179.26 187.513 179.478 187.802 179.825C188.092 180.172 188.232 180.62 188.192 181.07L186.916 195.247L163.655 193.153L164.931 178.977C164.972 178.527 165.19 178.111 165.537 177.821C165.884 177.532 166.331 177.392 166.782 177.432Z" fill="white"/>
</mask>
<g mask="url(#mask1_467_10851)">
<path opacity="0.3" d="M166.782 177.432L186.647 179.22C187.097 179.26 187.513 179.478 187.802 179.825C188.092 180.172 188.232 180.62 188.192 181.07L186.916 195.247L163.655 193.153L164.931 178.977C164.972 178.527 165.19 178.111 165.537 177.821C165.884 177.532 166.331 177.392 166.782 177.432Z" fill="black" fill-opacity="0.7"/>
<path opacity="0.3" d="M186.959 178.974L181.264 178.484L180.286 189.874L185.981 190.363L186.959 178.974Z" fill="white" fill-opacity="0.7"/>
</g>
<path d="M166.782 177.432L186.647 179.22C187.097 179.26 187.513 179.478 187.802 179.825C188.092 180.172 188.232 180.62 188.192 181.07L186.916 195.247L163.655 193.153L164.931 178.977C164.972 178.527 165.189 178.111 165.536 177.821C165.883 177.532 166.331 177.392 166.782 177.432Z" stroke="#263238" stroke-width="1.00404" stroke-linecap="round" stroke-linejoin="round"/>
<path d="M201.07 178.686L220.862 180.387C221.311 180.425 221.726 180.64 222.016 180.985C222.305 181.329 222.447 181.775 222.408 182.223L221.195 196.348L198.02 194.357L199.233 180.232C199.272 179.784 199.487 179.369 199.831 179.079C200.176 178.789 200.621 178.648 201.07 178.686Z" fill="#FF6300"/>
<mask id="mask2_467_10851" style="mask-type:luminance" maskUnits="userSpaceOnUse" x="198" y="178" width="25" height="19">
<path d="M201.07 178.686L220.862 180.387C221.31 180.425 221.725 180.64 222.015 180.985C222.305 181.329 222.446 181.775 222.408 182.223L221.195 196.348L198.02 194.357L199.233 180.232C199.272 179.784 199.487 179.369 199.831 179.079C200.176 178.789 200.621 178.648 201.07 178.686Z" fill="white"/>
</mask>
<g mask="url(#mask2_467_10851)">
<path opacity="0.3" d="M201.07 178.686L220.862 180.387C221.31 180.425 221.725 180.64 222.015 180.985C222.305 181.329 222.446 181.775 222.408 182.223L221.195 196.348L198.02 194.357L199.233 180.232C199.272 179.784 199.487 179.369 199.831 179.079C200.176 178.789 200.621 178.648 201.07 178.686Z" fill="black" fill-opacity="0.7"/>
<path opacity="0.3" d="M220.754 181.881L217.318 181.586L216.339 192.975L219.776 193.271L220.754 181.881Z" fill="white" fill-opacity="0.7"/>
</g>
<path d="M201.07 178.686L220.862 180.387C221.311 180.425 221.726 180.64 222.016 180.985C222.306 181.329 222.447 181.775 222.408 182.223L221.195 196.348L198.02 194.357L199.233 180.232C199.272 179.784 199.487 179.369 199.831 179.079C200.176 178.789 200.621 178.648 201.07 178.686Z" stroke="#263238" stroke-linecap="round" stroke-linejoin="round"/>
<path d="M193.881 178.063L213.673 179.764C214.122 179.802 214.537 180.017 214.826 180.362C215.116 180.706 215.258 181.152 215.219 181.6L214.006 195.725L190.831 193.734L192.044 179.609C192.083 179.161 192.298 178.746 192.642 178.456C192.987 178.166 193.432 178.025 193.881 178.063Z" fill="#FF6300" stroke="#263238" stroke-linecap="round" stroke-linejoin="round"/>
<path d="M228.06 181.007L247.852 182.707C248.301 182.745 248.715 182.961 249.005 183.305C249.295 183.649 249.437 184.095 249.398 184.544L248.185 198.659L225.011 196.668L226.224 182.544C226.265 182.097 226.481 181.684 226.825 181.396C227.169 181.108 227.613 180.968 228.06 181.007Z" fill="#FF6300" stroke="#263238" stroke-linecap="round" stroke-linejoin="round"/>
<path opacity="0.3" d="M213.949 181.293L208.254 180.804L207.276 192.193L212.97 192.682L213.949 181.293Z" fill="white" fill-opacity="0.7"/>
<path opacity="0.3" d="M247.753 184.195L242.058 183.706L241.08 195.096L246.774 195.585L247.753 184.195Z" fill="white" fill-opacity="0.7"/>
<path d="M258.535 196.259L252.946 261.209L148.302 252.179L153.891 187.238C153.936 186.701 154.087 186.178 154.335 185.699C154.583 185.22 154.924 184.794 155.336 184.447C155.749 184.1 156.226 183.837 156.74 183.675C157.255 183.512 157.796 183.453 158.333 183.5L254.788 191.789C255.329 191.833 255.855 191.985 256.337 192.234C256.819 192.483 257.247 192.825 257.595 193.241C257.944 193.657 258.206 194.138 258.368 194.656C258.529 195.174 258.586 195.719 258.535 196.259Z" fill="#FF6300"/>
<mask id="mask3_467_10851" style="mask-type:luminance" maskUnits="userSpaceOnUse" x="148" y="183" width="111" height="79">
<path d="M258.535 196.259L252.946 261.209L148.302 252.179L153.891 187.238C153.936 186.701 154.087 186.178 154.335 185.699C154.583 185.22 154.924 184.794 155.336 184.447C155.749 184.1 156.226 183.837 156.74 183.675C157.255 183.512 157.796 183.453 158.333 183.5L254.788 191.789C255.329 191.833 255.855 191.985 256.337 192.234C256.819 192.483 257.247 192.825 257.595 193.241C257.944 193.657 258.206 194.138 258.368 194.656C258.529 195.174 258.586 195.719 258.535 196.259Z" fill="white"/>
</mask>
<g mask="url(#mask3_467_10851)">
<path opacity="0.3" d="M258.535 196.259L252.946 261.209L148.302 252.179L153.891 187.238C153.936 186.701 154.087 186.178 154.335 185.699C154.583 185.22 154.924 184.794 155.336 184.447C155.749 184.1 156.226 183.837 156.74 183.675C157.255 183.512 157.796 183.453 158.333 183.5L254.788 191.789C255.329 191.833 255.855 191.985 256.337 192.234C256.819 192.483 257.247 192.825 257.595 193.241C257.944 193.657 258.206 194.138 258.368 194.656C258.529 195.174 258.586 195.719 258.535 196.259Z" fill="black" fill-opacity="0.7"/>
</g>
<path d="M258.535 196.259L252.946 261.209L148.302 252.179L153.891 187.238C153.936 186.701 154.087 186.178 154.335 185.699C154.583 185.22 154.924 184.794 155.336 184.447C155.749 184.1 156.226 183.837 156.74 183.675C157.255 183.512 157.796 183.453 158.333 183.5L254.788 191.789C255.329 191.833 255.855 191.985 256.337 192.234C256.819 192.483 257.247 192.825 257.595 193.241C257.944 193.657 258.206 194.138 258.368 194.656C258.529 195.174 258.586 195.719 258.535 196.259Z" stroke="#263238" stroke-linecap="round" stroke-linejoin="round"/>
<path d="M258.535 196.259L252.946 261.209L175.291 254.527L180.889 189.586C180.935 189.048 181.086 188.525 181.334 188.046C181.582 187.567 181.922 187.142 182.335 186.795C182.748 186.448 183.225 186.185 183.739 186.023C184.253 185.86 184.795 185.801 185.332 185.848L254.797 191.816C255.334 191.862 255.858 192.013 256.337 192.261C256.815 192.509 257.241 192.849 257.588 193.262C257.935 193.674 258.198 194.152 258.36 194.666C258.523 195.18 258.582 195.721 258.535 196.259Z" fill="#FF6300" stroke="#263238" stroke-linecap="round" stroke-linejoin="round"/>
<path opacity="0.3" d="M253.081 198.119L186.704 192.412C186.262 192.373 185.852 192.162 185.564 191.825C185.275 191.487 185.13 191.05 185.16 190.607C185.2 190.164 185.411 189.755 185.748 189.466C186.086 189.177 186.523 189.032 186.966 189.062L253.343 194.769C253.786 194.808 254.195 195.019 254.484 195.357C254.772 195.695 254.917 196.132 254.887 196.575C254.848 197.018 254.637 197.427 254.299 197.716C253.962 198.004 253.524 198.149 253.081 198.119Z" fill="white" fill-opacity="0.7"/>
<path d="M305.137 342.918C305.137 342.918 300.135 339.352 289.787 340.065C289.787 340.065 289.028 352.481 287.62 356.093C286.211 359.704 278.789 365.962 277.407 367.036C276.026 368.111 276.026 371.858 276.026 371.858H307.467C307.063 366.484 306.227 361.152 304.965 355.912L305.137 342.918Z" fill="white"/>
<mask id="mask4_467_10851" style="mask-type:luminance" maskUnits="userSpaceOnUse" x="276" y="339" width="32" height="33">
<path d="M305.137 342.918C305.137 342.918 300.135 339.352 289.787 340.065C289.787 340.065 289.028 352.481 287.62 356.093C286.211 359.704 278.789 365.962 277.407 367.036C276.026 368.111 276.026 371.858 276.026 371.858H307.467C307.063 366.484 306.227 361.152 304.966 355.912L305.137 342.918Z" fill="white"/>
</mask>
<g mask="url(#mask4_467_10851)">
<path opacity="0.4" d="M305.137 342.918C305.137 342.918 300.135 339.352 289.787 340.065C289.787 340.065 289.028 352.481 287.62 356.093C286.211 359.704 278.789 365.962 277.407 367.036C276.026 368.111 276.026 371.858 276.026 371.858H307.467C307.063 366.484 306.227 361.152 304.966 355.912L305.137 342.918Z" fill="#FF6300"/>
</g>
<path d="M305.137 342.918C305.137 342.918 300.135 339.352 289.787 340.065C289.787 340.065 289.028 352.481 287.62 356.093C286.211 359.704 278.789 365.962 277.407 367.036C276.026 368.111 276.026 371.858 276.026 371.858H307.467C307.063 366.484 306.227 361.152 304.965 355.912L305.137 342.918Z" stroke="#263238" stroke-linecap="round" stroke-linejoin="round"/>
<path d="M298.645 344.525C298.645 344.525 297.904 355.957 296.125 358.973C295.176 360.63 294.003 362.149 292.64 363.488" stroke="#263238" stroke-linecap="round" stroke-linejoin="round"/>
<path d="M291.773 365.067C291.773 365.067 290.193 367.036 288.441 367.298C286.69 367.559 277.434 367.036 277.434 367.036L281.209 363.767C281.209 363.767 288.884 362.476 291.773 365.067Z" fill="#FF6300" stroke="#263238" stroke-linecap="round" stroke-linejoin="round"/>
<path d="M295.042 362.385C295.042 362.385 288.342 358.539 283.565 361.482" stroke="#263238" stroke-linecap="round" stroke-linejoin="round"/>
<path d="M296.658 359.777C296.658 359.777 291.981 356.12 286.464 358.125" stroke="#263238" stroke-linecap="round" stroke-linejoin="round"/>
<path d="M298.645 355.795C298.645 355.795 293.606 351.876 288.297 354.368" stroke="#263238" stroke-linecap="round" stroke-linejoin="round"/>
<path d="M299.331 350.819C299.331 350.819 293.218 347.532 288.775 350.024" stroke="#263238" stroke-linecap="round" stroke-linejoin="round"/>
<path d="M307.458 371.858V374.179H303.846C303.846 374.179 300.749 372.373 297.805 374.179H280.847C279.055 374.173 277.286 373.775 275.664 373.014L276.016 371.858H307.458Z" fill="#FF6300" stroke="#263238" stroke-linecap="round" stroke-linejoin="round"/>
<path d="M302.952 342.187L302.148 347.253C302.148 347.253 292.712 344.192 287.502 346.178V339.948C287.502 339.948 297.191 336.553 302.952 342.187Z" fill="#FF6300" stroke="#263238" stroke-linecap="round" stroke-linejoin="round"/>
<path d="M313.155 215.981C313.155 215.981 293.1 219.909 273.425 213.534C268.945 212.106 264.659 210.129 260.666 207.647C260.666 207.647 260.72 206.383 260.756 204.315C260.919 196.242 260.874 175.935 256.621 170.905C253.912 167.736 251.79 148.142 257.018 138.236L273.01 125.378C295.15 129.703 299.828 135.563 303.485 148.205C304.162 150.516 304.794 153.054 305.498 155.853C306.266 158.905 306.988 162.634 307.674 166.688C310.997 186.879 313.155 215.981 313.155 215.981Z" fill="#999999"/>
<mask id="mask5_467_10851" style="mask-type:luminance" maskUnits="userSpaceOnUse" x="253" y="125" width="61" height="93">
<path d="M313.155 215.98C313.155 215.98 293.1 219.908 273.425 213.533C268.945 212.105 264.659 210.128 260.666 207.646C260.666 207.646 260.72 206.382 260.756 204.314C260.919 196.241 260.874 175.934 256.621 170.904C253.912 167.735 251.79 148.141 257.018 138.235L273.009 125.377C295.15 129.702 299.827 135.562 303.484 148.204C304.162 150.515 304.794 153.053 305.498 155.852C306.266 158.904 306.988 162.633 307.674 166.687C310.997 186.878 313.155 215.98 313.155 215.98Z" fill="white"/>
</mask>
<g mask="url(#mask5_467_10851)">
<path opacity="0.2" d="M307.674 166.687L298.645 207.023C298.645 207.023 285.597 210.635 273.434 213.533C268.951 212.106 264.662 210.129 260.666 207.646C260.666 207.646 260.72 206.382 260.756 204.314C271.682 198.725 287.628 190.508 287.502 190.119C287.294 189.514 287.502 168.448 287.502 168.448C287.502 168.448 301.949 165.098 303.484 148.177C304.162 150.488 304.794 153.026 305.498 155.825C306.266 158.886 306.988 162.588 307.674 166.687Z" fill="black"/>
</g>
<path d="M313.155 215.981C313.155 215.981 293.1 219.909 273.425 213.534C268.945 212.106 264.659 210.129 260.666 207.647C260.666 207.647 260.72 206.383 260.756 204.315C260.919 196.242 260.874 175.935 256.621 170.905C253.912 167.736 251.79 148.142 257.018 138.236L273.01 125.378C295.15 129.703 299.828 135.563 303.485 148.205C304.162 150.516 304.794 153.054 305.498 155.853C306.266 158.905 306.988 162.634 307.674 166.688C310.997 186.879 313.155 215.981 313.155 215.981Z" stroke="#263238" stroke-linecap="round" stroke-linejoin="round"/>
<path d="M273.714 108.5C273.714 108.5 266.653 118.613 276.044 126.505C276.044 126.505 264.648 139.291 260.901 137.53C259.321 136.79 260.901 132.176 260.901 132.176L254.291 119.95L273.714 108.5Z" fill="white" stroke="#263238" stroke-linecap="round" stroke-linejoin="round"/>
<path d="M271.411 113.738C273.615 104.103 272.558 89.7553 259.059 91.0285C249.596 91.9314 242.851 97.1686 245.515 109.864C246.625 115.219 247.537 122.804 252.449 129.648C253.813 131.544 268.08 124.835 267.213 119.409" fill="white"/>
<path d="M271.411 113.738C273.615 104.103 272.558 89.7553 259.059 91.0285C249.596 91.9314 242.851 97.1686 245.515 109.864C246.625 115.219 247.537 122.804 252.449 129.648C253.813 131.544 268.08 124.835 267.213 119.409" stroke="#263238" stroke-linecap="round" stroke-linejoin="round"/>
<path d="M252.097 107.714C253.049 107.346 254.074 107.205 255.09 107.304C256.106 107.403 257.085 107.738 257.948 108.283" stroke="#263238" stroke-linecap="round" stroke-linejoin="round"/>
<path d="M245.307 108.898C245.48 108.528 245.781 108.233 246.154 108.067C246.527 107.901 246.948 107.876 247.338 107.995" stroke="#263238" stroke-linecap="round" stroke-linejoin="round"/>
<path d="M248.684 110.902C248.684 110.902 245.903 115.968 245.894 116.69C245.885 117.413 249.316 117.656 249.316 117.656" fill="white"/>
<path d="M248.684 110.902C248.684 110.902 245.903 115.968 245.894 116.69C245.885 117.413 249.316 117.656 249.316 117.656" stroke="#263238" stroke-linecap="round" stroke-linejoin="round"/>
<path d="M254.661 111.932C254.661 112.483 254.418 112.935 254.074 112.953C253.731 112.971 253.442 112.519 253.424 111.968C253.406 111.418 253.668 110.966 254.011 110.957C254.354 110.948 254.643 111.4 254.661 111.932Z" fill="#263238"/>
<path d="M250.734 121.341C250.734 121.341 256.07 120.339 257.054 118.461" stroke="#263238" stroke-linecap="round" stroke-linejoin="round"/>
<path d="M245.271 101.096L249.424 99.8861C249.424 99.8861 255.248 97.1772 256.485 97.5565C257.722 97.9357 260.233 101.791 260.151 103.995C260.151 103.995 264.07 107.444 264.567 112.446L265.759 111.905C265.759 111.905 265.696 107.39 268.26 107.507C270.824 107.625 271.98 110.695 271.809 111.661C271.637 112.627 268.829 116.636 268.829 116.636C268.829 116.636 275.258 115.679 275.466 103.092C275.673 90.5043 261.876 88.4546 255.167 88.9693C251.77 89.2947 248.357 89.4214 244.946 89.3485L245.325 92.9604L242.616 93.6737L244.657 96.1749L242.417 97.1953L245.271 101.096Z" fill="#263238"/>
<path d="M268.531 238.347C268.531 238.347 284.874 242.672 289.299 254.844" stroke="white" stroke-linecap="round" stroke-linejoin="round"/>
<path d="M276.017 244.893C276.017 244.893 267.186 259.602 253.668 267.241" stroke="white" stroke-linecap="round" stroke-linejoin="round"/>
<path d="M263.601 327.612C263.601 327.612 268.621 326.484 269.994 324.533" stroke="white" stroke-linecap="round" stroke-linejoin="round"/>
<path d="M291.556 329.483C291.556 329.483 296.468 326.937 301.363 329.483" stroke="white" stroke-linecap="round" stroke-linejoin="round"/>
<path d="M307.458 261.002C307.458 261.002 299.214 282.357 295.042 284.334" stroke="white" stroke-linecap="round" stroke-linejoin="round"/>
<path d="M271.357 227.556C271.583 229.876 281.29 240.631 289.299 244.893" stroke="white" stroke-linecap="round" stroke-linejoin="round"/>
<path d="M279.637 218.481C280.806 221.361 281.049 224.532 280.333 227.556C279.554 230.166 279.554 232.947 280.333 235.556" stroke="white" stroke-linecap="round" stroke-linejoin="round"/>
<path d="M261.975 174.073C261.975 174.073 277.172 193.74 293.507 200.196" stroke="#263238" stroke-linecap="round" stroke-linejoin="round"/>
<path d="M277.705 142.279C277.705 142.279 277.651 155.652 287.295 161.684" stroke="#263238" stroke-linecap="round" stroke-linejoin="round"/>
<path d="M283.132 161.793C281.091 163.797 283.312 188.954 283.312 188.954C283.312 188.954 271.457 193.595 267.745 196.584C264.034 199.573 246.454 206.435 246.454 206.435C246.454 206.435 243.745 215.664 247.122 215.98C250.499 216.296 285.47 204.377 293.471 200.196C293.471 200.196 298.681 169.495 298.645 161.685" fill="white"/>
<path d="M283.132 161.793C281.091 163.797 283.312 188.954 283.312 188.954C283.312 188.954 271.457 193.595 267.745 196.584C264.034 199.573 246.454 206.435 246.454 206.435C246.454 206.435 243.745 215.664 247.122 215.98C250.499 216.296 285.47 204.377 293.471 200.196C293.471 200.196 298.681 169.495 298.645 161.685" stroke="#263238" stroke-linecap="round" stroke-linejoin="round"/>
<path d="M247.844 205.886C246.219 205.579 243.329 204.513 241.812 204.865C240.295 205.218 237.523 206.888 234.67 207.574C231.816 208.261 232.999 209.38 234.67 209.714C235.892 209.918 237.14 209.918 238.363 209.714L236.042 211.981C234.713 212.7 233.341 213.336 231.934 213.886C231.094 213.886 228.123 214.69 228.322 215.954C228.521 217.218 230.227 217.073 232.133 217.146C232.133 217.146 229.099 217.751 229.424 219.475C229.622 220.658 233.035 219.593 234.778 219.593C234.778 219.593 233.352 221.146 234.417 221.624C235.482 222.103 237.848 220.911 237.848 220.911C237.848 220.911 237.758 222.193 238.823 222.32C239.889 222.446 242.571 221.417 244.395 220.315C246.191 219.158 247.91 217.885 249.542 216.505C250.232 215.873 251.022 215.361 251.88 214.988" fill="white"/>
<path d="M247.844 205.886C246.219 205.579 243.329 204.513 241.812 204.865C240.295 205.218 237.523 206.888 234.67 207.574C231.816 208.261 232.999 209.38 234.67 209.714C235.892 209.918 237.14 209.918 238.363 209.714L236.042 211.981C234.713 212.7 233.341 213.336 231.934 213.886C231.094 213.886 228.123 214.69 228.322 215.954C228.521 217.218 230.227 217.073 232.133 217.146C232.133 217.146 229.099 217.751 229.424 219.475C229.622 220.658 233.035 219.593 234.778 219.593C234.778 219.593 233.352 221.146 234.417 221.624C235.482 222.103 237.848 220.911 237.848 220.911C237.848 220.911 237.758 222.193 238.823 222.32C239.889 222.446 242.571 221.417 244.395 220.315C246.191 219.158 247.91 217.885 249.542 216.505C250.232 215.873 251.022 215.361 251.88 214.988" stroke="#263238" stroke-linecap="round" stroke-linejoin="round"/>
<path d="M232.178 217.18C233.017 217.135 233.852 217.038 234.679 216.891C235.392 216.71 236.106 216.476 236.106 216.476" stroke="#263238" stroke-linecap="round" stroke-linejoin="round"/>
<path d="M234.787 219.628C235.878 219.475 236.93 219.113 237.884 218.562" stroke="#263238" stroke-linecap="round" stroke-linejoin="round"/>
<path d="M237.857 220.946C238.665 220.845 239.437 220.557 240.115 220.106" stroke="#263238" stroke-linecap="round" stroke-linejoin="round"/>
<path d="M236.331 212.666C236.331 212.666 235.681 214.156 236.331 214.987C236.981 215.817 237.767 215.89 237.884 216.793C238.002 217.696 239.555 217.696 240.115 218.282C240.675 218.869 241.099 219.998 242.887 220.088" stroke="#263238" stroke-linecap="round" stroke-linejoin="round"/>
<path d="M282.373 135.707C276.224 149.622 282.373 168.927 282.373 168.927C282.373 168.927 297.254 173.984 298.627 171.807C299.999 169.631 302.509 158.958 302.934 154.028" fill="#999999"/>
<path d="M282.373 135.707C276.224 149.622 282.373 168.927 282.373 168.927C282.373 168.927 297.254 173.984 298.627 171.807C299.999 169.631 302.509 158.958 302.934 154.028" stroke="#263238" stroke-linecap="round" stroke-linejoin="round"/>
<path d="M298.645 155.572C298.645 155.572 292.324 164.268 287.294 164.385" stroke="#263238" stroke-linecap="round" stroke-linejoin="round"/>
<path d="M72.7237 374.177C72.7237 374.177 71.1796 368.281 72.9855 366.096C76.2181 362.177 72.5882 358.872 75.8389 357.527L77.2024 359.107C77.4642 357.509 76.7057 352.624 82.7375 351.992C90.0334 351.224 90.1689 356.506 90.5662 358.312L90.4398 355.865C93.555 355.865 91.9387 358.972 96.6522 364.046C97.8878 365.416 98.8285 367.026 99.4157 368.775C100.003 370.524 100.224 372.375 100.065 374.214L72.7237 374.177Z" fill="#263238"/>
<path d="M128.337 374.178C125.403 372.869 128.093 361.798 128.093 361.798C128.093 361.798 124.147 359.153 128.093 356.381C129.619 357.674 131.47 358.526 133.445 358.844C135.42 359.162 137.444 358.935 139.299 358.187C139.299 358.187 140.067 350.782 144.717 351.73C144.717 351.73 145.909 356.426 148.627 359.108C155.986 366.331 165.494 367.234 167.083 370.702C167.562 371.749 166.984 374.142 166.984 374.142L128.337 374.178Z" fill="#263238"/>
<path d="M115.795 197.63L119.407 205.288C119.407 205.288 134.342 236.151 143.489 271.493C143.705 272.332 148.437 289.073 144.644 330.763L146.812 338.077L144.446 350.159C144.446 350.159 148.004 355.297 147.877 356.976C147.877 356.976 139.1 358.61 136.139 360.182C133.863 361.41 127.028 368.155 127.028 368.155C125.086 367.757 124.915 359.92 124.915 359.92C124.915 359.92 120.86 290.328 119.696 287.331C118.531 284.333 111.416 271.402 100.309 241.812C100.309 241.812 100.056 283.141 97.0945 293.597C94.4488 302.898 97.5821 328.93 97.5821 328.93L95.7762 357.906C95.7762 357.906 102.025 364.398 96.9591 366.141C96.9591 366.141 93.573 359.631 83.9294 358.15C79.0263 357.391 72.9222 366.096 72.9222 366.096C70.7732 365.41 73.8252 354.475 73.8252 354.475C66.9898 302.898 72.0193 312.234 70.6648 287.024C69.7619 270.843 65.2019 201.622 70.5836 195.996L115.795 197.63Z" fill="#BFBFBF"/>
<mask id="mask6_467_10851" style="mask-type:luminance" maskUnits="userSpaceOnUse" x="68" y="195" width="80" height="174">
<path d="M115.795 197.63L119.407 205.288C119.407 205.288 134.342 236.151 143.489 271.493C143.705 272.332 148.437 289.073 144.644 330.763L146.812 338.077L144.446 350.159C144.446 350.159 148.004 355.297 147.877 356.976C147.877 356.976 139.1 358.61 136.139 360.182C133.863 361.41 127.028 368.155 127.028 368.155C125.086 367.757 124.915 359.92 124.915 359.92C124.915 359.92 120.86 290.328 119.696 287.331C118.531 284.333 111.416 271.402 100.309 241.812C100.309 241.812 100.056 283.141 97.0945 293.597C94.4488 302.898 97.5821 328.93 97.5821 328.93L95.7762 357.906C95.7762 357.906 102.025 364.398 96.9591 366.141C96.9591 366.141 93.573 359.631 83.9294 358.15C79.0263 357.391 72.9222 366.096 72.9222 366.096C70.7732 365.41 73.8252 354.475 73.8252 354.475C66.9898 302.898 72.0193 312.234 70.6648 287.024C69.7619 270.843 65.2019 201.622 70.5836 195.996L115.795 197.63Z" fill="white"/>
</mask>
<g mask="url(#mask6_467_10851)">
<path opacity="0.2" d="M68.0733 221.469C92.2185 223.365 113.122 215.464 122.197 211.337C120.472 207.473 119.416 205.288 119.416 205.288L115.804 197.639L70.6558 195.996C68.7415 198.028 68.0643 208.349 68.0733 221.469Z" fill="black"/>
<path opacity="0.2" d="M100.553 242.345C111.542 271.556 118.612 284.342 119.75 287.321C120.409 289.055 122.025 312.686 123.289 332.515C124.734 314.455 126.224 295.43 126.35 291.701C126.621 284.26 121.249 274.066 120.445 271.429C119.641 268.793 121.456 265.939 121.456 265.939L111.795 253.749C112.12 249.614 107 231.563 107 231.563C103.957 234.444 101.248 240.575 100.553 242.345Z" fill="black"/>
</g>
<path d="M115.795 197.63L119.407 205.288C119.407 205.288 134.342 236.151 143.489 271.493C143.705 272.332 148.437 289.073 144.644 330.763L146.812 338.077L144.446 350.159C144.446 350.159 148.004 355.297 147.877 356.976C147.877 356.976 139.1 358.61 136.139 360.182C133.863 361.41 127.028 368.155 127.028 368.155C125.086 367.757 124.915 359.92 124.915 359.92C124.915 359.92 120.86 290.328 119.696 287.331C118.531 284.333 111.416 271.402 100.309 241.812C100.309 241.812 100.056 283.141 97.0945 293.597C94.4488 302.898 97.5821 328.93 97.5821 328.93L95.7762 357.906C95.7762 357.906 102.025 364.398 96.9591 366.141C96.9591 366.141 93.573 359.631 83.9294 358.15C79.0263 357.391 72.9222 366.096 72.9222 366.096C70.7732 365.41 73.8252 354.475 73.8252 354.475C66.9898 302.898 72.0193 312.234 70.6648 287.024C69.7619 270.843 65.2019 201.622 70.5836 195.996L115.795 197.63Z" stroke="#263238" stroke-linecap="round" stroke-linejoin="round"/>
<path d="M100.345 241.813C100.345 241.813 105.862 231.167 110.567 228.196" stroke="#263238" stroke-linecap="round" stroke-linejoin="round"/>
<path d="M112.644 224.747C112.644 224.747 95.8847 229.849 90.0696 230.833" stroke="#263238" stroke-linecap="round" stroke-linejoin="round"/>
<path d="M104.066 207.646C104.788 221.596 109.709 223.971 104.968 227.014C104.968 227.014 105.104 233.542 102.738 237.678" stroke="#263238" stroke-linecap="round" stroke-linejoin="round"/>
<path d="M74.7012 202.308C74.7012 202.308 76.6787 223.753 70.078 227.789" stroke="#263238" stroke-linecap="round" stroke-linejoin="round"/>
<path d="M70.078 209.225C70.078 209.225 69.5814 223.5 70.078 235.004C70.078 235.004 71.7304 283.629 73.3829 289.733C75.0353 295.837 70.8365 305.083 71.1977 331.468" stroke="#263238" stroke-linecap="round" stroke-linejoin="round"/>
<path d="M85.8979 352.119C84.3354 351.779 82.7031 351.996 81.2838 352.733" stroke="#263238" stroke-linecap="round" stroke-linejoin="round"/>
<path d="M95.8304 357.906C93.7596 355.891 91.3592 354.245 88.7332 353.039" stroke="#263238" stroke-linecap="round" stroke-linejoin="round"/>
<path d="M93.1216 245.181C89.4195 249.334 83.5502 257.163 77.5365 257.822" stroke="#263238" stroke-linecap="round" stroke-linejoin="round"/>
<path d="M98.7832 238.427C97.6454 239.862 96.4716 241.271 95.2797 242.671" stroke="#263238" stroke-linecap="round" stroke-linejoin="round"/>
<path d="M93.5098 287.024C93.5098 287.024 85.0942 298.483 80.4801 299.142" stroke="#263238" stroke-linecap="round" stroke-linejoin="round"/>
<path d="M103.406 239.745C103.406 239.745 118.395 281.489 123.605 285.607C123.605 285.607 124.192 316.307 124.364 327.025C124.536 337.744 127.001 351.992 127.001 351.992" stroke="#263238" stroke-linecap="round" stroke-linejoin="round"/>
<path d="M143.001 351.686C143.001 351.686 137.231 353.681 134.423 354.954C132.699 355.796 131.348 357.247 130.631 359.027" stroke="#263238" stroke-linecap="round" stroke-linejoin="round"/>
<path d="M128.4 270.554C120.355 265.507 109.745 259.195 105.465 250.301" stroke="#263238" stroke-linecap="round" stroke-linejoin="round"/>
<path d="M135.416 274.716C133.89 273.876 132.391 273.001 130.901 272.098" stroke="#263238" stroke-linecap="round" stroke-linejoin="round"/>
<path d="M110.061 213.288C105.736 213.225 101.031 212.656 97.3022 210.209" stroke="#263238" stroke-linecap="round" stroke-linejoin="round"/>
<path d="M116.933 212.882C115.696 213.053 114.45 213.162 113.203 213.225" stroke="#263238" stroke-linecap="round" stroke-linejoin="round"/>
<path d="M124.96 117.024C121.655 112.022 104.815 110.749 94.0065 110.749C83.198 110.749 70.078 108.943 64.1546 121.133C59.6397 130.442 70.0419 179.672 70.0419 179.672L67.4955 200.927C87.0717 207.068 120.608 205.713 120.608 205.713L116.093 186.498C116.093 186.498 128.265 122.018 124.96 117.024Z" fill="#263238"/>
<path d="M87.5863 98.3867C87.5863 98.3867 89.0401 109.972 84.6337 112.473C84.6337 112.473 86.8369 120.97 94.5662 121.503C102.296 122.035 105.709 113.737 105.709 113.737L87.5863 98.3867Z" fill="white" stroke="#263238" stroke-linecap="round" stroke-linejoin="round"/>
<path d="M128.548 68.6413L148.329 66.8167C148.778 66.7754 149.224 66.9138 149.57 67.2016C149.917 67.4894 150.134 67.9029 150.176 68.3512L151.478 82.4678L128.352 84.6009L127.05 70.4843C127.009 70.0422 127.143 69.6016 127.423 69.2571C127.703 68.9126 128.107 68.6915 128.548 68.6413Z" fill="#FFC400"/>
<mask id="mask7_467_10851" style="mask-type:luminance" maskUnits="userSpaceOnUse" x="127" y="66" width="25" height="19">
<path d="M128.548 68.6404L148.329 66.8158C148.778 66.7744 149.224 66.9128 149.57 67.2006C149.917 67.4884 150.134 67.9019 150.176 68.3502L151.478 82.4668L128.352 84.5999L127.05 70.4834C127.009 70.0412 127.143 69.6006 127.423 69.2561C127.703 68.9116 128.107 68.6905 128.548 68.6404Z" fill="white"/>
</mask>
<g mask="url(#mask7_467_10851)">
<path opacity="0.3" d="M128.548 68.6404L148.329 66.8158C148.778 66.7744 149.224 66.9128 149.57 67.2006C149.917 67.4884 150.134 67.9019 150.176 68.3502L151.478 82.4668L128.352 84.5999L127.05 70.4834C127.009 70.0412 127.143 69.6006 127.423 69.2561C127.703 68.9116 128.107 68.6905 128.548 68.6404Z" fill="black" fill-opacity="0.7"/>
<path opacity="0.3" d="M148.906 68.2445L143.214 68.7695L144.264 80.1527L149.956 79.6277L148.906 68.2445Z" fill="white" fill-opacity="0.7"/>
</g>
<path d="M128.548 68.6413L148.329 66.8167C148.778 66.7754 149.224 66.9138 149.57 67.2016C149.917 67.4894 150.134 67.9029 150.176 68.3512L151.478 82.4678L128.352 84.6009L127.05 70.4843C127.009 70.0422 127.143 69.6016 127.423 69.2571C127.703 68.9126 128.107 68.6915 128.548 68.6413Z" stroke="#263238" stroke-linecap="round" stroke-linejoin="round"/>
<path d="M162.75 65.4681L182.531 63.6435C182.98 63.6022 183.426 63.7406 183.772 64.0284C184.118 64.3161 184.336 64.7297 184.378 65.178L185.68 79.2945L162.518 81.431L161.216 67.3144C161.174 66.8661 161.313 66.4197 161.6 66.0735C161.888 65.7272 162.302 65.5095 162.75 65.4681Z" fill="#FFC400"/>
<mask id="mask8_467_10851" style="mask-type:luminance" maskUnits="userSpaceOnUse" x="161" y="63" width="25" height="19">
<path d="M162.75 65.4671L182.531 63.6425C182.98 63.6012 183.426 63.7396 183.772 64.0274C184.119 64.3152 184.336 64.7287 184.378 65.177L185.68 79.2936L162.518 81.43L161.216 67.3134C161.174 66.8651 161.313 66.4187 161.601 66.0725C161.888 65.7262 162.302 65.5085 162.75 65.4671Z" fill="white"/>
</mask>
<g mask="url(#mask8_467_10851)">
<path opacity="0.3" d="M162.75 65.4671L182.531 63.6425C182.98 63.6012 183.426 63.7396 183.772 64.0274C184.119 64.3152 184.336 64.7287 184.378 65.177L185.68 79.2936L162.518 81.43L161.216 67.3134C161.174 66.8651 161.313 66.4187 161.601 66.0725C161.888 65.7262 162.302 65.5085 162.75 65.4671Z" fill="black" fill-opacity="0.7"/>
<path opacity="0.3" d="M182.699 65.1353L179.264 65.4521L180.314 76.8353L183.749 76.5185L182.699 65.1353Z" fill="white" fill-opacity="0.7"/>
</g>
<path d="M162.75 65.4681L182.531 63.6435C182.98 63.6022 183.426 63.7406 183.772 64.0284C184.118 64.3161 184.336 64.7297 184.378 65.178L185.68 79.2945L162.518 81.431L161.216 67.3144C161.174 66.8661 161.313 66.4197 161.6 66.0735C161.888 65.7272 162.302 65.5095 162.75 65.4681Z" stroke="#263238" stroke-linecap="round" stroke-linejoin="round"/>
<path d="M155.563 66.1253L175.344 64.3007C175.793 64.2594 176.239 64.3978 176.585 64.6856C176.932 64.9733 177.149 65.3869 177.191 65.8352L178.493 79.9518L155.295 82.0915L153.993 67.975C153.972 67.7499 153.996 67.523 154.064 67.3075C154.132 67.092 154.243 66.8922 154.389 66.7199C154.535 66.5477 154.715 66.4063 154.916 66.3042C155.118 66.2021 155.338 66.1413 155.563 66.1253Z" fill="#FFC400" stroke="#263238" stroke-linecap="round" stroke-linejoin="round"/>
<path d="M189.731 62.973L209.512 61.1484C209.96 61.107 210.407 61.2455 210.753 61.5332C211.099 61.821 211.317 62.2345 211.358 62.6829L212.66 76.7994L189.498 78.9359L188.196 64.8193C188.155 64.371 188.293 63.9246 188.581 63.5783C188.869 63.2321 189.282 63.0143 189.731 62.973Z" fill="#FFC400" stroke="#263238" stroke-linecap="round" stroke-linejoin="round"/>
<path opacity="0.3" d="M175.887 65.7592L170.196 66.2842L171.246 77.6674L176.937 77.1424L175.887 65.7592Z" fill="white" fill-opacity="0.7"/>
<path opacity="0.3" d="M209.68 62.6322L203.988 63.1572L205.038 74.5404L210.73 74.0154L209.68 62.6322Z" fill="white" fill-opacity="0.7"/>
<path d="M222.435 72.5794L228.43 137.484L123.822 147.146L117.863 82.223C117.762 81.1382 118.097 80.0579 118.793 79.2197C119.489 78.3815 120.489 77.8541 121.574 77.7534L217.974 68.8592C218.511 68.8095 219.053 68.8665 219.569 69.0267C220.084 69.187 220.563 69.4474 220.977 69.793C221.391 70.1386 221.733 70.5627 221.984 71.0409C222.234 71.519 222.387 72.0418 222.435 72.5794Z" fill="#FFC400"/>
<mask id="mask9_467_10851" style="mask-type:luminance" maskUnits="userSpaceOnUse" x="117" y="68" width="112" height="80">
<path d="M222.435 72.5794L228.43 137.484L123.822 147.146L117.863 82.223C117.762 81.1382 118.097 80.0579 118.793 79.2197C119.489 78.3815 120.489 77.8541 121.574 77.7534L217.974 68.8592C218.511 68.8095 219.053 68.8665 219.569 69.0267C220.084 69.187 220.563 69.4474 220.977 69.793C221.391 70.1386 221.733 70.5627 221.984 71.0409C222.234 71.519 222.387 72.0418 222.435 72.5794Z" fill="white"/>
</mask>
<g mask="url(#mask9_467_10851)">
<path opacity="0.3" d="M222.435 72.5794L228.43 137.484L123.822 147.146L117.863 82.223C117.762 81.1382 118.097 80.0579 118.793 79.2197C119.489 78.3815 120.489 77.8541 121.574 77.7534L217.974 68.8592C218.511 68.8095 219.053 68.8665 219.569 69.0267C220.084 69.187 220.563 69.4474 220.977 69.793C221.391 70.1386 221.733 70.5627 221.984 71.0409C222.234 71.519 222.387 72.0418 222.435 72.5794Z" fill="black" fill-opacity="0.7"/>
</g>
<path d="M222.435 72.5794L228.43 137.484L123.822 147.146L117.863 82.223C117.762 81.1382 118.097 80.0579 118.793 79.2197C119.489 78.3815 120.489 77.8541 121.574 77.7534L217.974 68.8592C218.511 68.8095 219.053 68.8665 219.569 69.0267C220.084 69.187 220.563 69.4474 220.977 69.793C221.391 70.1386 221.733 70.5627 221.984 71.0409C222.234 71.519 222.387 72.0418 222.435 72.5794Z" stroke="#263238" stroke-linecap="round" stroke-linejoin="round"/>
<path d="M222.435 72.5799L228.43 137.485L150.776 144.645L144.789 79.7403C144.689 78.6555 145.023 77.5752 145.719 76.737C146.415 75.8989 147.415 75.3714 148.5 75.2707L217.929 68.8597C218.47 68.8037 219.016 68.8559 219.537 69.0132C220.058 69.1706 220.542 69.4299 220.961 69.7761C221.38 70.1224 221.727 70.5486 221.98 71.0299C222.233 71.5113 222.387 72.0381 222.435 72.5799Z" fill="#FFC400" stroke="#263238" stroke-linecap="round" stroke-linejoin="round"/>
<path opacity="0.3" d="M217.405 75.3693L151.065 81.4914C150.623 81.5216 150.187 81.378 149.849 81.0912C149.512 80.8045 149.3 80.3972 149.259 79.9564C149.226 79.5155 149.368 79.0794 149.653 78.7418C149.938 78.4041 150.345 78.1918 150.785 78.1504L217.125 72.0284C217.567 71.9982 218.003 72.1418 218.34 72.4285C218.678 72.7153 218.89 73.1226 218.931 73.5634C218.959 74.0032 218.816 74.4368 218.532 74.7734C218.247 75.1101 217.844 75.3236 217.405 75.3693Z" fill="white" fill-opacity="0.7"/>
<path d="M100.833 75.4145C100.833 75.4145 85.5277 72.3445 83.8121 82.1958C82.0964 92.0471 87.7038 96.2368 87.7038 96.2368L100.833 75.4145Z" fill="#263238"/>
<path d="M87.7039 101.646C85.9549 96.7484 85.6818 91.4456 86.9183 86.3946C88.4172 80.0739 95.9479 71.3783 107.37 79.2792C113.249 83.3516 113.61 92.1916 111.777 100.282C111.343 102.214 111.668 104.102 111.027 105.881C108.77 112.111 104.643 116.906 102.386 117.014C98.6207 117.204 91.09 112.644 91.397 108.671" fill="white"/>
<path d="M87.7039 101.646C85.9549 96.7484 85.6818 91.4456 86.9183 86.3946C88.4172 80.0739 95.9479 71.3783 107.37 79.2792C113.249 83.3516 113.61 92.1916 111.777 100.282C111.343 102.214 111.668 104.102 111.027 105.881C108.77 112.111 104.643 116.906 102.386 117.014C98.6207 117.204 91.09 112.644 91.397 108.671" stroke="#263238" stroke-linecap="round" stroke-linejoin="round"/>
<path d="M102.955 98.7833C102.955 98.7833 99.9118 96.58 96.9862 98.386" stroke="#263238" stroke-linecap="round" stroke-linejoin="round"/>
<path d="M108.698 98.3862C108.698 98.3862 111 96.2733 112.499 96.5803" stroke="#263238" stroke-linecap="round" stroke-linejoin="round"/>
<path d="M98.6567 102.161C98.6567 102.721 98.9367 103.181 99.2888 103.181C99.641 103.181 99.9299 102.721 99.9299 102.161C99.9299 101.601 99.641 101.149 99.2888 101.149C98.9367 101.149 98.6567 101.601 98.6567 102.161Z" fill="#263238"/>
<path d="M108.698 102.612C109.052 102.612 109.339 102.16 109.339 101.601C109.339 101.043 109.052 100.59 108.698 100.59C108.344 100.59 108.057 101.043 108.057 101.601C108.057 102.16 108.344 102.612 108.698 102.612Z" fill="#263238"/>
<path d="M107.406 100.518C106.287 101.98 107.858 107.552 107.406 107.949C106.955 108.346 104.083 107.218 104.083 107.218C104.083 107.218 103.415 106.369 104.815 105.917" stroke="#263238" stroke-linecap="round" stroke-linejoin="round"/>
<path d="M104.86 110.747C104.86 110.747 101.004 110.747 99.9751 109.339" stroke="#263238" stroke-linecap="round" stroke-linejoin="round"/>
<path d="M95.6319 89.88L95.3339 94.5393C95.3339 94.5393 92.029 96.2459 91.1983 97.9796C90.704 99.115 90.5231 100.362 90.6746 101.591C90.6746 101.591 88.67 98.0879 87.5865 98.3769C87.1982 98.4762 87.1982 99.948 87.1982 99.948C87.1982 99.948 82.6834 89.871 86.7648 84.5435C90.8462 79.216 95.6319 89.88 95.6319 89.88Z" fill="#757575" stroke="#263238" stroke-linecap="round" stroke-linejoin="round"/>
<path d="M89.2659 100.59C89.2659 100.59 88.363 97.2038 85.32 96.3098C82.277 95.4159 84.3628 103.534 86.9543 104.59C89.5458 105.646 90.196 106.396 90.3495 105.43" fill="white"/>
<path d="M89.2659 100.59C89.2659 100.59 88.363 97.2038 85.32 96.3098C82.277 95.4159 84.3628 103.534 86.9543 104.59C89.5458 105.646 90.196 106.396 90.3495 105.43" stroke="#263238" stroke-linecap="round" stroke-linejoin="round"/>
<path d="M85.1214 89.2932C84.8686 88.9501 83.7489 80.2636 89.4827 76.3628C95.2165 72.462 104.905 72.8773 111.073 78.277C117.24 83.6768 115.488 93.0405 111.073 96.2369V92.3271C111.073 92.3271 109.041 96.246 102.946 96.5711L104.806 93.6996C104.806 93.6996 101.808 95.5056 96.5258 95.352C96.5258 95.352 99.0089 93.3746 98.6478 91.6138C98.6568 91.6138 90.2683 96.3363 85.1214 89.2932Z" fill="#263238"/>
<path d="M86.1959 120.608C81.97 121.113 75.9563 126.63 79.8751 136.428C82.3763 142.64 102.928 138.947 102.928 138.947C110.549 135.804 121.682 124.499 129.854 119.253C129.854 119.253 128.129 108.418 126.143 109.953C116.906 117.023 109.312 117.51 96.4264 123.705C96.4535 123.669 88.8506 120.292 86.1959 120.608Z" fill="white" stroke="#263238" stroke-linecap="round" stroke-linejoin="round"/>
<path d="M95.6317 132.637C95.5053 136.682 97.1668 137.395 99.966 138.352L95.6317 132.637Z" fill="white"/>
<path d="M95.6317 132.637C95.5053 136.682 97.1668 137.395 99.966 138.352" stroke="#263238" stroke-linecap="round" stroke-linejoin="round"/>
<path d="M125.529 110.747C125.719 110.16 129.141 104.146 130.107 102.62C131.073 101.094 135.389 99.7128 137.06 98.7918C138.73 97.8708 138.866 96.4712 139.769 97.4735C140.672 98.4758 139.769 100.76 134.766 103.189C136.544 103.287 138.325 103.287 140.103 103.189C141.439 102.991 142.631 101.781 143.227 102.62C143.823 103.46 143.94 104.968 140.961 105.889C139.543 106.403 138.059 106.707 136.554 106.792C138.012 107.104 139.445 107.52 140.843 108.038C141.322 108.39 142.035 109.212 142.748 109.338C143.462 109.465 144.238 110.241 142.929 111.144C142.465 111.401 141.945 111.54 141.414 111.55C140.884 111.559 140.359 111.438 139.886 111.198C139.886 111.198 143.344 112.869 142.27 113.907C141.195 114.946 137.755 114.738 137.755 114.738C137.755 114.738 132.653 120.96 128.337 119.659" fill="white"/>
<path d="M125.529 110.747C125.719 110.16 129.141 104.146 130.107 102.62C131.073 101.094 135.389 99.7128 137.06 98.7918C138.73 97.8708 138.866 96.4712 139.769 97.4735C140.672 98.4758 139.769 100.76 134.766 103.189C136.544 103.287 138.325 103.287 140.103 103.189C141.439 102.991 142.631 101.781 143.227 102.62C143.823 103.46 143.94 104.968 140.961 105.889C139.543 106.403 138.059 106.707 136.554 106.792C138.012 107.104 139.445 107.52 140.843 108.038C141.322 108.39 142.035 109.212 142.748 109.338C143.462 109.465 144.238 110.241 142.929 111.144C142.465 111.401 141.945 111.54 141.414 111.55C140.884 111.559 140.359 111.438 139.886 111.198C139.886 111.198 143.344 112.869 142.27 113.907C141.195 114.946 137.755 114.738 137.755 114.738C137.755 114.738 132.653 120.96 128.337 119.659" stroke="#263238" stroke-linecap="round" stroke-linejoin="round"/>
<path d="M131.642 102.612C131.934 102.68 132.201 102.827 132.415 103.038C132.628 103.248 132.78 103.513 132.852 103.804C133.15 104.87 134.026 104.933 134.558 106.125C135.091 107.317 134.938 109.159 135.461 109.791C135.985 110.423 135.461 113.087 135.461 113.087" stroke="#263238" stroke-linecap="round" stroke-linejoin="round"/>
<path d="M87.0808 119.841C84.8685 117.024 79.9022 118.297 79.9022 118.297" stroke="white" stroke-linecap="round" stroke-linejoin="round"/>
<path d="M77.1934 113.104C77.1934 113.104 82.3041 113.854 83.8121 118.107" stroke="white" stroke-linecap="round" stroke-linejoin="round"/>
<path d="M86.1958 140.032C86.1958 140.032 81.2115 143.888 73.6266 138.353" stroke="white" stroke-linecap="round" stroke-linejoin="round"/>
<path d="M79.9022 141.196C79.9022 141.196 77.3739 144.691 71.2157 144.646" stroke="white" stroke-linecap="round" stroke-linejoin="round"/>
<path d="M111.578 185.161C111.578 185.161 98.5393 195.554 85.2928 194.191" stroke="white" stroke-linecap="round" stroke-linejoin="round"/>
<path d="M76.3354 162.325C76.3354 162.325 96.5708 177.17 111.551 178.118" stroke="white" stroke-linecap="round" stroke-linejoin="round"/>
<path d="M76.8683 272.218C80.3493 270.287 84.4418 269.775 88.2907 270.791C94.8914 272.452 112.039 296.977 114.422 299.37C116.806 301.762 121.267 302.981 125.375 307.307C131.877 314.088 141.331 320.084 142.288 320.084C143.245 320.084 144.013 319.488 145.204 319.253C146.396 319.018 155.625 318.178 155.625 318.178C155.625 318.178 158.722 318.865 155.625 320.192C152.527 321.519 152.762 322.702 152.762 322.702C152.762 322.702 152.139 323.704 153.385 324.662C154.631 325.619 155.363 325.095 157.142 327.614C158.92 330.134 154.631 328.707 154.631 328.707C154.631 328.707 155.579 331.416 153.674 331.145C151.769 330.874 153.439 333.791 150.342 333.393C147.245 332.996 140.617 328.815 138.956 324.436C138.956 324.436 111.921 311.514 107.876 308.183C103.831 304.851 86.8009 286.981 85.6361 286.746" fill="#263238"/>
<path d="M147.597 296.416H167.462C167.913 296.416 168.344 296.595 168.663 296.913C168.981 297.232 169.16 297.663 169.16 298.114V312.29H145.9V298.114C145.9 297.663 146.079 297.232 146.397 296.913C146.715 296.595 147.147 296.416 147.597 296.416Z" fill="#00DA49"/>
<mask id="mask10_467_10851" style="mask-type:luminance" maskUnits="userSpaceOnUse" x="145" y="296" width="25" height="17">
<path d="M147.597 296.416H167.462C167.913 296.416 168.344 296.595 168.663 296.913C168.981 297.232 169.16 297.663 169.16 298.114V312.29H145.9V298.114C145.9 297.663 146.079 297.232 146.397 296.913C146.715 296.595 147.147 296.416 147.597 296.416Z" fill="white"/>
</mask>
<g mask="url(#mask10_467_10851)">
<path opacity="0.3" d="M147.597 296.416H167.462C167.913 296.416 168.344 296.595 168.663 296.913C168.981 297.232 169.16 297.663 169.16 298.114V312.29H145.9V298.114C145.9 297.663 146.079 297.232 146.397 296.913C146.715 296.595 147.147 296.416 147.597 296.416Z" fill="black" fill-opacity="0.7"/>
<path opacity="0.3" d="M167.869 297.915H162.153V309.347H167.869V297.915Z" fill="white" fill-opacity="0.7"/>
</g>
<path d="M147.597 296.416H167.462C167.913 296.416 168.344 296.595 168.663 296.913C168.981 297.232 169.16 297.663 169.16 298.114V312.29H145.9V298.114C145.9 297.663 146.079 297.232 146.397 296.913C146.715 296.595 147.147 296.416 147.597 296.416Z" stroke="#263238" stroke-linecap="round" stroke-linejoin="round"/>
<path d="M181.91 296.416H201.775C202.225 296.416 202.657 296.595 202.975 296.913C203.294 297.232 203.473 297.663 203.473 298.114V312.29H180.212V298.114C180.212 297.891 180.256 297.67 180.342 297.464C180.427 297.258 180.552 297.071 180.709 296.913C180.867 296.756 181.054 296.631 181.26 296.545C181.466 296.46 181.687 296.416 181.91 296.416Z" fill="#00DA49"/>
<mask id="mask11_467_10851" style="mask-type:luminance" maskUnits="userSpaceOnUse" x="180" y="296" width="24" height="17">
<path d="M181.91 296.416H201.775C202.225 296.416 202.657 296.595 202.975 296.913C203.294 297.232 203.473 297.663 203.473 298.114V312.29H180.212V298.114C180.212 297.891 180.256 297.67 180.342 297.464C180.427 297.258 180.552 297.071 180.709 296.913C180.867 296.756 181.054 296.631 181.26 296.545C181.466 296.46 181.687 296.416 181.91 296.416Z" fill="white"/>
</mask>
<g mask="url(#mask11_467_10851)">
<path opacity="0.3" d="M181.91 296.416H201.775C202.225 296.416 202.657 296.595 202.975 296.913C203.294 297.232 203.473 297.663 203.473 298.114V312.29H180.212V298.114C180.212 297.891 180.256 297.67 180.342 297.464C180.427 297.258 180.552 297.071 180.709 296.913C180.867 296.756 181.054 296.631 181.26 296.545C181.466 296.46 181.687 296.416 181.91 296.416Z" fill="black" fill-opacity="0.7"/>
<path opacity="0.3" d="M201.802 297.915H198.353V309.347H201.802V297.915Z" fill="white" fill-opacity="0.7"/>
</g>
<path d="M181.91 296.416H201.775C202.225 296.416 202.657 296.595 202.975 296.913C203.294 297.232 203.473 297.663 203.473 298.114V312.29H180.212V298.114C180.212 297.891 180.256 297.67 180.342 297.464C180.427 297.258 180.552 297.071 180.709 296.913C180.867 296.756 181.054 296.631 181.26 296.545C181.466 296.46 181.687 296.416 181.91 296.416Z" stroke="#263238" stroke-linecap="round" stroke-linejoin="round"/>
<path d="M174.686 296.416H194.551C195.001 296.416 195.433 296.595 195.752 296.913C196.07 297.232 196.249 297.663 196.249 298.114V312.29H172.989V298.114C172.989 297.891 173.032 297.67 173.118 297.464C173.203 297.258 173.328 297.071 173.486 296.913C173.643 296.756 173.831 296.631 174.036 296.545C174.242 296.46 174.463 296.416 174.686 296.416Z" fill="#00DA49" stroke="#263238" stroke-linecap="round" stroke-linejoin="round"/>
<path d="M208.999 296.416H228.864C229.314 296.416 229.746 296.595 230.064 296.913C230.383 297.232 230.561 297.663 230.561 298.114V312.29H207.301V298.114C207.301 297.663 207.48 297.232 207.798 296.913C208.117 296.595 208.548 296.416 208.999 296.416Z" fill="#00DA49" stroke="#263238" stroke-linecap="round" stroke-linejoin="round"/>
<path opacity="0.3" d="M194.958 297.915H189.242V309.347H194.958V297.915Z" fill="white" fill-opacity="0.7"/>
<path opacity="0.3" d="M228.891 297.915H223.175V309.347H228.891V297.915Z" fill="white" fill-opacity="0.7"/>
<path d="M240.684 308.986V374.171H135.66V308.986C135.66 307.897 136.093 306.852 136.863 306.081C137.634 305.311 138.679 304.878 139.769 304.878H236.575C237.665 304.878 238.71 305.311 239.48 306.081C240.251 306.852 240.684 307.897 240.684 308.986Z" fill="#00DA49"/>
<mask id="mask12_467_10851" style="mask-type:luminance" maskUnits="userSpaceOnUse" x="135" y="304" width="106" height="71">
<path d="M240.684 308.985V374.17H135.66V308.985C135.66 307.896 136.093 306.851 136.863 306.08C137.634 305.31 138.679 304.877 139.769 304.877H236.575C237.665 304.877 238.71 305.31 239.48 306.08C240.251 306.851 240.684 307.896 240.684 308.985Z" fill="white"/>
</mask>
<g mask="url(#mask12_467_10851)">
<path opacity="0.3" d="M240.684 308.985V374.17H135.66V308.985C135.66 307.896 136.093 306.851 136.863 306.08C137.634 305.31 138.679 304.877 139.769 304.877H236.575C237.665 304.877 238.71 305.31 239.48 306.08C240.251 306.851 240.684 307.896 240.684 308.985Z" fill="black" fill-opacity="0.7"/>
</g>
<path d="M240.684 308.986V374.171H135.66V308.986C135.66 307.897 136.093 306.852 136.863 306.081C137.634 305.311 138.679 304.878 139.769 304.878H236.575C237.665 304.878 238.71 305.311 239.48 306.081C240.251 306.852 240.684 307.897 240.684 308.986Z" stroke="#263238" stroke-linecap="round" stroke-linejoin="round"/>
<path d="M240.684 308.986V374.171H162.749V308.986C162.749 307.897 163.182 306.852 163.952 306.081C164.723 305.311 165.768 304.878 166.858 304.878H236.575C237.665 304.878 238.71 305.311 239.48 306.081C240.251 306.852 240.684 307.897 240.684 308.986Z" fill="#00DA49" stroke="#263238" stroke-linecap="round" stroke-linejoin="round"/>
<path opacity="0.3" d="M235.41 311.307H168.79C168.34 311.307 167.908 311.128 167.589 310.81C167.271 310.492 167.092 310.06 167.092 309.61C167.087 309.384 167.128 309.159 167.211 308.949C167.294 308.739 167.418 308.547 167.576 308.386C167.735 308.224 167.923 308.096 168.132 308.009C168.34 307.921 168.564 307.876 168.79 307.876H235.41C235.86 307.876 236.292 308.055 236.611 308.373C236.929 308.692 237.108 309.123 237.108 309.574C237.113 309.799 237.072 310.024 236.989 310.234C236.906 310.444 236.782 310.636 236.624 310.797C236.465 310.959 236.277 311.087 236.068 311.175C235.86 311.262 235.636 311.307 235.41 311.307Z" fill="white" fill-opacity="0.7"/>
<path d="M112.084 374.17C106.666 374.17 99.0541 370.685 90.2863 367.001C81.1935 363.172 70.8365 359.127 60.326 358.522C56.4072 358.296 58.782 374.17 58.782 374.17H50.2038C50.2038 374.17 41.734 362.865 40.7498 352.743C40.7498 352.743 47.6665 348.472 49.328 348.228C49.9008 348.168 50.4767 348.141 51.0526 348.147C52.9127 348.147 55.3959 348.228 55.3959 348.228C54.9986 347.994 48.6688 344.183 45.1743 340.309C42.2939 337.113 40.9756 332.065 40.8762 329.049C40.9879 327.052 41.2079 325.063 41.5354 323.09L86.6112 323.839C86.6112 323.839 87.0988 324.182 87.9657 324.824C93.1938 328.634 112.301 342.829 121.854 353.529C124.942 356.987 127.028 360.075 127.335 362.333C128.771 372.744 120.256 374.17 112.084 374.17Z" fill="#757575" stroke="#263238" stroke-linecap="round" stroke-linejoin="round"/>
<path d="M121.863 353.511L99.939 358.522C96.1802 360.673 92.8915 363.556 90.2682 367.001C81.1754 363.173 70.8184 359.127 60.308 358.522C56.3891 358.297 58.7639 374.171 58.7639 374.171H50.1858C50.1858 374.171 41.734 362.866 40.7498 352.743C40.7498 352.743 48.732 364.121 50.6824 369.9C50.6824 369.9 53.7796 359.209 58.8091 354.92C56.5374 352.361 53.9562 350.095 51.1248 348.174C52.9849 348.174 55.4681 348.256 55.4681 348.256C55.0708 348.021 48.741 344.21 45.2466 340.337C42.3661 337.14 41.2013 332.084 40.9485 329.077C40.8221 327.596 41.0026 323.117 41.0026 323.117C41.0026 323.117 74.6199 327.912 88.0379 324.851C93.2029 328.643 112.31 342.811 121.863 353.511Z" fill="#263238"/>
<path d="M86.6204 352.743C86.6204 352.743 104.481 361.692 109.249 365.195C114.016 368.699 115.434 367.75 115.434 367.75" stroke="#263238" stroke-linecap="round" stroke-linejoin="round"/>
<path d="M45.1833 351.795C45.1833 351.795 49.4724 358.341 49.6982 360.301" stroke="#263238" stroke-linecap="round" stroke-linejoin="round"/>
<path d="M117.023 226.14C117.023 226.14 126.531 222.004 125.628 239.594C124.725 257.184 127.949 258.087 127.949 258.087C127.949 258.087 104.02 267.911 97.9434 259.513C91.8665 251.116 97.6364 228.135 117.023 226.14Z" fill="#263238"/>
<path d="M115.696 258.087C115.696 258.087 105.853 262.728 104.959 267.017C104.066 271.306 91.7401 264.85 91.7401 264.85L100.67 252.01L115.696 258.087Z" fill="white" stroke="#263238" stroke-linecap="round" stroke-linejoin="round"/>
<path d="M51.1609 305.166C28.5869 333.916 46.908 347.786 72.4979 345.492L67.3691 353.619L80.2453 355.849C80.2453 355.849 90.1147 349.402 103.569 342.513C126.468 330.774 135.723 331.478 133.367 319.731C131.01 307.983 102.946 300.362 74.8095 312.742C74.7824 312.733 59.5043 294.583 51.1609 305.166Z" fill="#757575" stroke="#263238" stroke-linecap="round" stroke-linejoin="round"/>
<path d="M59.0348 367.751C59.0348 367.751 64.9131 351.498 67.3691 350.595C69.8252 349.692 79.1077 353.213 80.2454 355.832C80.2454 355.832 83.3787 351.028 84.6609 353.069C85.9431 355.109 84.092 358.487 84.6609 361.069C85.2297 363.651 91.5776 367.263 94.1149 367.742C96.6522 368.22 98.0969 369.647 98.0969 371.074V374.171H59.0348C58.6014 373.156 58.3779 372.064 58.3779 370.961C58.3779 369.858 58.6014 368.766 59.0348 367.751Z" fill="white" stroke="#263238" stroke-linecap="round" stroke-linejoin="round"/>
<path d="M84.6609 358.522C84.6609 358.522 79.4869 361.078 77.5997 360.328C75.7125 359.579 78.5659 364.617 79.2792 365.096C79.9926 365.575 84.697 363.426 84.697 363.426" stroke="#263238" stroke-linecap="round" stroke-linejoin="round"/>
<path d="M63.9198 355.841C63.9198 355.841 70.9448 355.976 73.0849 358.55" stroke="#263238" stroke-linecap="round" stroke-linejoin="round"/>
<path d="M59.0348 367.751C59.0348 367.751 70.2315 370.37 71.1796 370.37C72.7195 370.064 74.23 369.626 75.6944 369.06C75.6944 369.06 78.7645 370.604 80.8052 371.561C82.8459 372.519 96.1555 371.561 96.1555 371.561" stroke="#263238" stroke-linecap="round" stroke-linejoin="round"/>
<path d="M72.4979 345.511C83.189 344.355 103.957 331.181 111.181 326.603C118.405 322.025 120.21 323.226 120.21 323.226" stroke="#263238" stroke-linecap="round" stroke-linejoin="round"/>
<path d="M40.9395 323.073L42.6461 310.115L46.7636 307.009C53.4365 290.819 83.6676 260.579 91.9117 260.678C104.291 260.822 106.476 273.816 108.002 288.038C109.528 302.259 90.2412 300.119 90.2412 300.119V303.686L79.2702 309.366L85.916 309.158C85.916 309.158 66.8003 327.741 40.9395 323.073Z" fill="#6F00F0" stroke="#263238" stroke-linecap="round" stroke-linejoin="round"/>
<path d="M94.5213 235.638C97.1128 227.511 108.969 225.344 113.231 226.671C116.729 228.037 119.596 230.653 121.276 234.012C122.36 236.351 120.093 240.487 121.709 242.898C124.021 246.356 123.822 253.652 122.992 258.248C122.54 260.686 112.4 262.131 104.111 256.442C95.2075 250.284 92.011 243.457 94.5213 235.638Z" fill="white" stroke="#263238" stroke-linecap="round" stroke-linejoin="round"/>
<path d="M106.504 224.243C106.504 224.243 116.942 222.545 117.014 225.227C117.475 243.042 106.792 246.781 106.792 246.781C106.792 246.781 102.431 243.304 101.456 245.688C100.481 248.072 102.991 254.664 106.079 254.799C105.368 255.904 104.979 257.187 104.956 258.501C104.934 259.816 105.279 261.11 105.953 262.239C105.953 262.239 88.2727 265.192 86.8099 257.002C87.4934 254.155 87.9821 251.265 88.2727 248.352C89.4195 236.875 86.7377 229.155 106.504 224.243Z" fill="#263238"/>
<path d="M120.445 242.401C122.621 244.361 124.183 244.361 124.156 245.065C124.075 247.259 121.447 248.352 121.447 248.352" fill="white"/>
<path d="M120.445 242.401C122.621 244.361 124.183 244.361 124.156 245.065C124.075 247.259 121.447 248.352 121.447 248.352" stroke="#263238" stroke-linecap="round" stroke-linejoin="round"/>
<path d="M121.393 252.01C119.856 252.53 118.196 252.571 116.635 252.127" stroke="#263238" stroke-linecap="round" stroke-linejoin="round"/>
<path d="M115.605 231.467C115.605 231.467 122.549 229.453 121.276 240.722C121.276 240.722 124.165 236.794 124.156 232.379C124.156 224.731 113.926 226.266 113.926 226.266L115.262 231.683" fill="#263238"/>
<path d="M121.917 236.984C121.654 236.809 121.359 236.689 121.048 236.632C120.738 236.574 120.419 236.58 120.111 236.649" stroke="#263238" stroke-linecap="round" stroke-linejoin="round"/>
<path d="M117.24 236.856C117.24 236.856 113.51 237.073 111.894 239.565" stroke="#263238" stroke-linecap="round" stroke-linejoin="round"/>
<path d="M116.346 242.789C116.4 243.385 116.147 243.9 115.777 243.936C115.407 243.972 115.064 243.511 115 242.915C114.937 242.319 115.199 241.805 115.569 241.769C115.939 241.732 116.292 242.193 116.346 242.789Z" fill="#263238"/>
<path d="M73.0848 348.22C73.0848 348.22 81.3921 349.123 83.198 352.735" stroke="#263238" stroke-linecap="round" stroke-linejoin="round"/>
<path d="M94.1149 266.772C97.5958 264.841 101.688 264.33 105.537 265.346C112.147 267.016 129.285 291.531 131.669 293.924C134.053 296.317 138.514 297.536 142.622 301.861C149.123 308.643 158.577 314.638 159.534 314.638C160.492 314.638 161.259 314.042 162.451 313.808C163.643 313.573 172.871 312.733 172.871 312.733C172.871 312.733 175.968 313.428 172.871 314.747C169.774 316.065 170.009 317.266 170.009 317.266C170.009 317.266 169.395 318.259 170.632 319.216C171.869 320.173 172.609 319.65 174.388 322.169C176.167 324.688 171.878 323.262 171.878 323.262C171.878 323.262 172.826 325.97 170.921 325.7C169.016 325.429 170.686 328.345 167.589 327.948C164.492 327.551 157.864 323.37 156.203 318.991C156.203 318.991 129.168 306.069 125.123 302.737C121.077 299.405 104.065 281.536 102.865 281.301" fill="white"/>
<path d="M94.1149 266.772C97.5958 264.841 101.688 264.33 105.537 265.346C112.147 267.016 129.285 291.531 131.669 293.924C134.053 296.317 138.514 297.536 142.622 301.861C149.123 308.643 158.577 314.638 159.534 314.638C160.492 314.638 161.259 314.042 162.451 313.808C163.643 313.573 172.871 312.733 172.871 312.733C172.871 312.733 175.968 313.428 172.871 314.747C169.774 316.065 170.009 317.266 170.009 317.266C170.009 317.266 169.395 318.259 170.632 319.216C171.869 320.173 172.609 319.65 174.388 322.169C176.167 324.688 171.878 323.262 171.878 323.262C171.878 323.262 172.826 325.97 170.921 325.7C169.016 325.429 170.686 328.345 167.589 327.948C164.492 327.551 157.864 323.37 156.203 318.991C156.203 318.991 129.168 306.069 125.123 302.737C121.077 299.405 104.065 281.536 102.865 281.301" stroke="#263238" stroke-linecap="round" stroke-linejoin="round"/>
<path d="M90.2322 264.154C90.2322 264.154 103.56 260.587 108.21 263.205C112.86 265.824 121.673 277.969 121.673 277.969C121.673 277.969 110.928 287.585 107.605 286.71C104.282 285.834 94.1149 284.398 94.1149 284.398" fill="#6F00F0"/>
<path d="M90.2322 264.154C90.2322 264.154 103.56 260.587 108.21 263.205C112.86 265.824 121.673 277.969 121.673 277.969C121.673 277.969 110.928 287.585 107.605 286.71C104.282 285.834 94.1149 284.398 94.1149 284.398" stroke="#263238" stroke-linecap="round" stroke-linejoin="round"/>
<path d="M101.79 285.572C101.79 285.572 96.9591 288.227 95.1803 288.227" stroke="#263238" stroke-linecap="round" stroke-linejoin="round"/>
<path d="M94.1149 272.254C94.5212 272.967 94.3857 280.778 102.865 283.207" stroke="#263238" stroke-linecap="round" stroke-linejoin="round"/>
<path d="M48.7952 307.262C48.7952 307.262 66.8544 310.359 73.0848 304.878" stroke="#263238" stroke-linecap="round" stroke-linejoin="round"/>
<path d="M79.2611 309.365C79.2611 309.365 74.7463 308.57 73.0849 310.891C71.4234 313.211 62.3757 315.405 62.3757 315.405" stroke="#263238" stroke-linecap="round" stroke-linejoin="round"/>
<path d="M42.9621 326.603C42.9621 326.603 40.3526 337.853 51.4861 342.856" stroke="#263238" stroke-linecap="round" stroke-linejoin="round"/>
<path d="M48.7952 327.379C48.7952 327.379 48.8584 332.923 50.6011 335.957L56.1362 337.763L62.3306 334.314C62.3306 334.314 61.0122 327.226 60.8948 325.79" stroke="#263238" stroke-linecap="round" stroke-linejoin="round"/>
</svg>
