<svg width="414" height="402" viewBox="0 0 414 402" fill="none" xmlns="http://www.w3.org/2000/svg">
<path d="M17.7599 381.091H394.282" stroke="#263238" stroke-linecap="round" stroke-linejoin="round"/>
<path d="M34.0237 317.266C36.1738 318.158 41.4196 318.069 41.4196 318.069C41.4196 318.069 40.2866 314.643 40.1885 314.429C39.0287 312.029 35.3887 308.05 32.4268 308.46C31.9361 308.544 31.4684 308.731 31.054 309.006C30.6395 309.282 30.2873 309.642 30.0201 310.062C29.7529 310.482 29.5766 310.954 29.5025 311.446C29.4284 311.938 29.4581 312.441 29.5898 312.921C30.0894 314.955 32.1948 316.472 34.0237 317.266Z" fill="#263238"/>
<path d="M35.8527 332.459C38.083 332.78 42.7579 331.415 43.1326 331.308C43.9084 333.986 44.8621 336.609 45.9875 339.159C46.6298 340.649 47.3257 342.13 48.0483 343.62C47.6201 342.996 47.2276 342.442 47.1562 342.371C45.3719 340.355 40.8487 337.491 38.092 338.66C37.6454 338.872 37.2478 339.174 36.9242 339.547C36.6006 339.921 36.3582 340.358 36.2123 340.83C36.0663 341.302 36.0201 341.8 36.0764 342.291C36.1328 342.782 36.2905 343.256 36.5396 343.682C37.5567 345.538 39.9922 346.448 41.9639 346.734C43.9355 347.019 47.977 345.931 49.0386 345.636C49.3152 346.198 49.5917 346.76 49.8772 347.322C51.2333 349.999 52.6072 352.675 53.8651 355.352C54.3112 356.289 54.7573 357.234 55.1231 358.18C54.7394 357.627 54.4183 357.163 54.3558 357.091C52.5715 355.084 48.0483 352.211 45.2916 353.389C44.8451 353.601 44.4474 353.903 44.1238 354.277C43.8003 354.65 43.5578 355.087 43.4119 355.559C43.266 356.032 43.2197 356.529 43.2761 357.02C43.3324 357.511 43.4901 357.985 43.7393 358.412C44.7563 360.259 47.1919 361.169 49.1635 361.454C51.1352 361.74 54.784 360.767 56.042 360.41C56.4345 361.392 56.8271 362.373 57.1572 363.337C57.3624 364.006 57.6211 364.63 57.7906 365.308L58.3526 367.298C58.656 368.573 58.9861 369.885 59.2448 371.143C59.4411 372.035 59.6106 372.847 59.7801 373.685C59.3519 372.74 58.4597 370.911 58.3705 370.768C56.952 368.511 52.8659 364.978 49.9754 365.727C49.5015 365.869 49.0621 366.107 48.6851 366.426C48.308 366.746 48.0016 367.141 47.7852 367.586C47.5688 368.03 47.4471 368.515 47.4279 369.009C47.4087 369.503 47.4924 369.996 47.6736 370.456C48.3963 372.436 50.6623 373.703 52.5715 374.283C54.677 374.925 59.3162 374.337 59.8961 374.283C60.1815 375.666 60.4403 377.022 60.6633 378.307C60.8328 379.252 60.9845 380.162 61.1272 381.037H62.9918C62.8134 380.055 62.6171 379.038 62.403 377.977C62.1264 376.567 61.7963 375.059 61.4484 373.516C62.8455 372.951 64.2097 372.307 65.5344 371.589C67.0689 373.239 70.9855 375.157 71.494 375.416C70.9676 376.737 70.4323 378.003 69.9149 379.199C69.6472 379.832 69.3796 380.421 69.1119 380.983H71.0836L71.5475 379.859C72.0917 378.53 72.6538 377.093 73.2069 375.612C73.769 375.737 78.3724 376.656 80.5136 376.174C82.4585 375.728 84.8138 374.631 85.6791 372.704C85.8941 372.257 86.0136 371.771 86.0302 371.276C86.0467 370.78 85.9599 370.287 85.7752 369.827C85.5906 369.367 85.3122 368.951 84.9577 368.604C84.6032 368.258 84.1805 367.989 83.7164 367.815C80.8883 366.869 76.5792 370.099 74.9823 372.276C74.8931 372.401 74.0366 373.891 73.5102 374.836C73.7333 374.23 73.9563 373.65 74.1794 373.052C74.6343 371.812 75.0715 370.572 75.4908 369.234L76.0796 367.253C76.2937 366.602 76.4276 365.879 76.6149 365.183C76.9896 363.568 77.3019 361.909 77.5784 360.232C78.6579 360.624 82.512 361.954 84.5104 361.811C86.5088 361.668 88.9712 360.919 90.1399 359.134C90.4201 358.726 90.6122 358.263 90.7039 357.776C90.7956 357.289 90.7848 356.789 90.6724 356.306C90.5599 355.824 90.3482 355.37 90.0507 354.973C89.7532 354.577 89.3764 354.247 88.9444 354.005C86.2679 352.64 81.5306 355.173 79.6393 357.056C79.5233 357.172 78.3189 358.679 77.6766 359.518C77.8372 358.51 77.9977 357.502 78.1226 356.476C78.4884 353.514 78.7561 350.498 79.0148 347.501C79.104 346.609 79.2021 345.663 79.2914 344.744C79.675 344.887 84.2249 346.573 86.4285 346.412C88.418 346.27 90.8893 345.52 92.058 343.736C92.3382 343.327 92.5303 342.865 92.622 342.378C92.7137 341.891 92.703 341.39 92.5905 340.908C92.478 340.425 92.2663 339.971 91.9688 339.575C91.6713 339.179 91.2945 338.849 90.8625 338.606C88.1861 337.241 83.4488 339.775 81.5574 341.657C81.4147 341.8 79.6839 343.968 79.2735 344.539C79.4876 342.523 79.7107 340.515 80.0229 338.535C80.4166 335.868 80.9858 333.231 81.7269 330.639C81.9053 330.711 86.6516 332.495 88.9444 332.325C90.9339 332.183 93.4051 331.433 94.5739 329.649C94.8541 329.24 95.0462 328.778 95.1379 328.291C95.2296 327.804 95.2188 327.303 95.1064 326.821C94.9939 326.338 94.7822 325.884 94.4847 325.488C94.1872 325.092 93.8104 324.762 93.3784 324.519C90.7019 323.154 85.9646 325.688 84.0733 327.57C83.9216 327.722 82.0659 330.05 81.7537 330.497C81.7983 330.354 81.834 330.193 81.8786 330.042C82.6926 327.462 83.7346 324.96 84.9922 322.565C85.6702 321.236 86.3928 320.005 87.1244 318.818C87.972 319.238 91.8706 321.129 93.9493 321.209C96.028 321.29 98.5082 320.826 99.8375 319.193C100.161 318.818 100.402 318.379 100.547 317.906C100.691 317.432 100.735 316.933 100.676 316.442C100.618 315.95 100.457 315.476 100.205 315.049C99.9534 314.623 99.6154 314.254 99.213 313.965C96.7239 312.315 91.7101 314.313 89.6313 315.981C89.5154 316.07 88.4626 317.123 87.7132 317.89C88.0522 317.364 88.3913 316.811 88.7214 316.311C89.9704 314.429 91.2283 312.743 92.3524 311.324C93.0037 310.503 93.6014 309.772 94.1367 309.103C95.1894 309.103 99.4182 308.942 101.274 308.077C103.13 307.211 105.137 305.641 105.565 303.571C105.678 303.09 105.689 302.591 105.599 302.105C105.508 301.619 105.317 301.157 105.039 300.748C104.761 300.34 104.4 299.993 103.981 299.732C103.562 299.47 103.092 299.298 102.603 299.227C99.6323 298.906 96.1083 302.983 95.0288 305.472C94.9307 305.686 93.8512 309.147 93.9047 309.147H93.9672C93.4051 309.79 92.8074 310.477 92.1829 311.244C91.0231 312.68 89.7295 314.304 88.4359 316.169C87.0155 318.171 85.7165 320.256 84.5461 322.414C83.2189 324.808 82.1082 327.316 81.2273 329.908V330.006C81.2273 329.114 81.2273 326.678 81.1738 326.491C80.8258 323.814 78.6044 318.934 75.6603 318.399C75.1705 318.328 74.6713 318.359 74.1943 318.491C73.7173 318.623 73.2729 318.853 72.8895 319.166C72.5061 319.479 72.1919 319.868 71.967 320.309C71.7422 320.75 71.6114 321.233 71.5832 321.727C71.4137 323.832 72.9482 325.938 74.4381 327.258C76.1153 328.757 80.7723 330.202 81.1381 330.318C80.3072 332.978 79.6545 335.69 79.1843 338.437C78.8988 340.034 78.6669 341.657 78.4527 343.281C78.4527 342.523 78.4527 341.845 78.4527 341.755C78.1048 339.079 75.8834 334.199 72.9393 333.655C72.4495 333.585 71.9505 333.617 71.4739 333.75C70.9974 333.884 70.5538 334.114 70.1712 334.428C69.7887 334.742 69.4755 335.132 69.2517 335.573C69.0279 336.014 68.8982 336.497 68.8711 336.991C68.7016 339.097 70.2271 341.193 71.717 342.523C73.2069 343.852 77.168 345.199 78.2208 345.511C78.1405 346.136 78.0602 346.76 77.9888 347.385C77.632 350.383 77.2929 353.38 76.8647 356.306C76.722 357.341 76.5346 358.349 76.3562 359.366C76.3562 358.688 76.3562 358.126 76.3562 358.037C76.0172 355.361 73.7868 350.481 70.8516 349.945C70.361 349.879 69.862 349.916 69.3864 350.053C68.9107 350.19 68.4688 350.425 68.0887 350.742C67.7086 351.059 67.3986 351.452 67.1785 351.895C66.9584 352.339 66.833 352.823 66.8102 353.318C66.6407 355.423 68.1663 357.529 69.6562 358.849C71.146 360.169 74.7325 361.383 75.9726 361.775C75.7584 362.81 75.5443 363.845 75.2856 364.835C75.0983 365.504 74.9555 366.165 74.7325 366.825C74.5094 367.485 74.3042 368.145 74.0991 368.796C73.653 370.028 73.2069 371.303 72.7341 372.499C72.4129 373.329 72.0917 374.114 71.7795 374.908C71.9311 373.891 72.2077 371.874 72.2077 371.705C72.1778 369.356 71.5417 367.054 70.361 365.023C70.3698 364.76 70.3519 364.497 70.3074 364.238C70.2451 363.738 70.0777 363.257 69.8164 362.827C69.555 362.397 69.2056 362.027 68.7911 361.741C68.3765 361.455 67.9062 361.261 67.411 361.17C66.9159 361.079 66.4071 361.094 65.9181 361.213C63.0275 361.98 61.2075 367.057 61.0737 369.724C61.0737 369.876 61.1718 371.598 61.2521 372.677C61.1094 372.053 60.9756 371.437 60.815 370.795C60.5116 369.519 60.1637 368.252 59.8068 366.887C59.6106 366.236 59.4054 365.576 59.2002 364.916C58.995 364.255 58.7363 363.568 58.5043 362.89C57.9333 361.329 57.2731 359.777 56.5773 358.224C57.6925 357.957 61.6447 356.94 63.2327 355.718C64.8207 354.495 66.489 352.515 66.4712 350.409C66.4799 349.914 66.3853 349.421 66.1933 348.964C66.0013 348.507 65.7162 348.095 65.3561 347.754C64.996 347.414 64.5688 347.152 64.1019 346.985C63.6349 346.819 63.1383 346.751 62.6439 346.787C59.673 347.117 57.1036 351.855 56.5683 354.469C56.5683 354.638 56.3631 356.556 56.2829 357.609C55.8635 356.717 55.3907 355.753 54.9803 354.825C53.6421 352.149 52.2147 349.473 50.7962 346.796L49.5293 344.396C49.9308 344.298 54.6592 343.192 56.4345 341.827C58.0136 340.613 59.6909 338.624 59.673 336.474C59.6818 335.978 59.5871 335.486 59.3951 335.029C59.2031 334.572 58.918 334.16 58.5579 333.819C58.1978 333.478 57.7707 333.216 57.3037 333.05C56.8367 332.883 56.3402 332.816 55.8457 332.852C52.8749 333.182 50.3055 337.919 49.7702 340.533C49.7256 340.729 49.4847 343.495 49.4579 344.2C48.5123 342.416 47.5933 340.631 46.7815 338.785C45.6443 336.341 44.6668 333.825 43.8552 331.255C44.0426 331.21 48.9762 330.077 50.7962 328.677C52.3753 327.463 54.0525 325.474 54.0346 323.324C54.0434 322.828 53.9488 322.336 53.7568 321.879C53.5648 321.422 53.2796 321.01 52.9195 320.669C52.5595 320.328 52.1323 320.066 51.6653 319.899C51.1984 319.733 50.7018 319.666 50.2073 319.702C47.2365 320.032 44.6671 324.769 44.1318 327.383C44.1318 327.588 43.8285 330.559 43.8196 331.103C43.8196 330.952 43.7036 330.8 43.659 330.657C42.9213 328.054 42.4138 325.391 42.1423 322.699C41.9728 321.218 41.8925 319.791 41.8479 318.399C42.74 318.283 47.0848 317.703 48.8602 316.615C50.6356 315.526 52.4288 313.787 52.6607 311.69C52.723 311.199 52.6823 310.7 52.5411 310.225C52.4 309.75 52.1616 309.31 51.841 308.932C51.5204 308.554 51.1247 308.248 50.6791 308.031C50.2335 307.815 49.7477 307.694 49.2527 307.675C46.264 307.675 43.195 312.136 42.3743 314.643C42.3743 314.777 42.0263 316.231 41.8301 317.319C41.8301 316.695 41.8301 316.044 41.8301 315.446C41.8301 313.18 41.9728 311.11 42.1155 309.281C42.1958 308.237 42.294 307.301 42.401 306.426C43.2932 305.829 46.719 303.384 47.7539 301.636C48.7888 299.887 49.6364 297.478 48.8513 295.515C48.6783 295.049 48.4099 294.625 48.0633 294.268C47.7166 293.912 47.2994 293.632 46.8383 293.447C46.3772 293.261 45.8823 293.174 45.3856 293.19C44.8888 293.207 44.401 293.328 43.9534 293.544C41.2769 294.918 40.6167 300.271 41.0539 302.902C41.0539 303.125 42.0977 306.614 42.1512 306.587C42.0353 307.426 41.9282 308.371 41.8211 309.326C41.6427 311.155 41.4554 313.233 41.4018 315.5C41.3256 317.943 41.3882 320.388 41.5892 322.824C41.8072 325.557 42.2669 328.264 42.9631 330.916V331.005C42.4902 330.273 41.1074 328.248 40.9825 328.106C39.1982 326.089 34.6661 323.226 31.9183 324.394C31.4698 324.605 31.0701 324.907 30.7448 325.281C30.4195 325.655 30.1756 326.093 30.0287 326.566C29.8818 327.039 29.8352 327.538 29.8917 328.031C29.9482 328.523 30.1067 328.998 30.357 329.426C31.4455 331.264 33.881 332.174 35.8527 332.459Z" fill="#263238"/>
<path d="M87.0887 318.337C87.0887 318.337 88.0433 314.848 88.0701 314.625C88.4358 311.949 87.5883 306.659 84.894 305.365C84.4406 305.167 83.9511 305.066 83.4565 305.067C82.9619 305.069 82.473 305.173 82.0208 305.374C81.5687 305.574 81.1631 305.866 80.8299 306.232C80.4967 306.598 80.2432 307.028 80.0853 307.497C79.3627 309.487 80.2816 311.913 81.37 313.591C82.6458 315.553 87.0887 318.337 87.0887 318.337Z" fill="#263238"/>
<path d="M320.742 317.266C322.883 318.158 328.129 318.069 328.138 318.069C328.147 318.069 327.005 314.643 326.907 314.429C325.747 312.029 322.098 308.05 319.136 308.46C318.647 308.546 318.18 308.732 317.766 309.009C317.353 309.285 317.002 309.645 316.736 310.065C316.469 310.485 316.294 310.956 316.22 311.448C316.147 311.939 316.177 312.441 316.308 312.921C316.799 314.955 318.913 316.472 320.742 317.266Z" fill="#263238"/>
<path d="M322.571 332.459C324.802 332.78 329.476 331.415 329.851 331.308C330.624 333.986 331.575 336.609 332.697 339.159C333.348 340.649 334.044 342.13 334.758 343.62C334.33 342.996 333.946 342.442 333.866 342.371C332.081 340.355 327.549 337.491 324.802 338.66C324.354 338.871 323.956 339.172 323.631 339.546C323.307 339.919 323.063 340.356 322.917 340.828C322.77 341.3 322.723 341.798 322.778 342.289C322.834 342.781 322.991 343.255 323.24 343.682C324.257 345.538 326.693 346.448 328.665 346.734C330.636 347.019 334.687 345.931 335.739 345.636C336.025 346.198 336.301 346.76 336.578 347.322C337.943 349.999 339.308 352.675 340.575 355.352C341.021 356.289 341.422 357.234 341.833 358.18L341.065 357.091C339.281 355.084 334.749 352.211 332.001 353.389C331.554 353.6 331.155 353.902 330.831 354.275C330.506 354.648 330.263 355.085 330.116 355.557C329.969 356.029 329.922 356.527 329.978 357.019C330.034 357.51 330.191 357.984 330.44 358.412C331.457 360.259 333.893 361.169 335.864 361.454C337.836 361.74 341.494 360.767 342.752 360.41C343.135 361.392 343.528 362.373 343.858 363.337C344.072 364.006 344.322 364.63 344.5 365.308C344.679 365.986 344.875 366.637 345.053 367.298C345.366 368.573 345.687 369.885 345.945 371.143C346.133 372.035 346.302 372.847 346.481 373.685C346.044 372.74 345.16 370.911 345.071 370.768C343.644 368.511 339.567 364.978 336.676 365.727C336.201 365.868 335.761 366.105 335.383 366.424C335.005 366.744 334.698 367.139 334.48 367.583C334.263 368.028 334.14 368.513 334.121 369.007C334.101 369.502 334.184 369.995 334.365 370.456C335.097 372.436 337.363 373.703 339.272 374.283C341.369 374.925 346.017 374.337 346.597 374.283C346.882 375.666 347.141 377.022 347.364 378.307C347.533 379.252 347.685 380.162 347.828 381.037H349.684C349.505 380.055 349.318 379.038 349.104 377.977C348.827 376.567 348.497 375.059 348.149 373.516C349.546 372.951 350.91 372.307 352.235 371.589C353.761 373.239 357.686 375.157 358.195 375.416C357.659 376.737 357.133 378.003 356.616 379.199C356.339 379.832 356.071 380.421 355.813 380.983H357.775L358.248 379.859C358.792 378.53 359.346 377.093 359.908 375.612C360.47 375.737 365.073 376.656 367.214 376.174C369.159 375.728 371.514 374.631 372.38 372.704C372.595 372.257 372.714 371.771 372.731 371.276C372.747 370.78 372.661 370.287 372.476 369.827C372.291 369.367 372.013 368.951 371.658 368.604C371.304 368.258 370.881 367.989 370.417 367.815C367.58 366.869 363.28 370.099 361.683 372.276C361.585 372.401 360.728 373.891 360.202 374.836C360.425 374.23 360.657 373.65 360.88 373.052C361.326 371.812 361.772 370.572 362.191 369.234C362.388 368.579 362.584 367.919 362.78 367.253C362.985 366.602 363.128 365.879 363.307 365.183C363.69 363.568 364.003 361.909 364.279 360.232C365.359 360.624 369.213 361.954 371.211 361.811C373.209 361.668 375.672 360.919 376.841 359.134C377.121 358.726 377.313 358.263 377.405 357.776C377.496 357.289 377.486 356.789 377.373 356.306C377.261 355.824 377.049 355.37 376.751 354.973C376.454 354.577 376.077 354.247 375.645 354.005C372.969 352.64 368.231 355.173 366.34 357.056C366.224 357.172 365.02 358.679 364.377 359.518C364.529 358.51 364.689 357.502 364.814 356.476C365.18 353.514 365.457 350.498 365.707 347.501C365.796 346.609 365.894 345.663 365.992 344.744C366.376 344.887 370.926 346.573 373.129 346.412C375.119 346.27 377.59 345.52 378.759 343.736C379.039 343.327 379.231 342.865 379.323 342.378C379.414 341.891 379.404 341.39 379.291 340.908C379.179 340.425 378.967 339.971 378.669 339.575C378.372 339.179 377.995 338.849 377.563 338.606C374.887 337.241 370.149 339.775 368.258 341.657C368.115 341.8 366.385 343.968 365.974 344.539C366.179 342.523 366.411 340.515 366.715 338.535C367.116 335.869 367.688 333.232 368.428 330.639C368.606 330.711 373.352 332.495 375.636 332.325C377.626 332.183 380.097 331.433 381.275 329.649C381.555 329.24 381.747 328.778 381.839 328.291C381.93 327.804 381.919 327.303 381.807 326.821C381.695 326.338 381.483 325.884 381.185 325.488C380.888 325.092 380.511 324.762 380.079 324.519C377.403 323.154 372.656 325.688 370.765 327.57C370.622 327.722 368.767 330.05 368.454 330.497C368.454 330.354 368.526 330.193 368.57 330.042C369.387 327.462 370.432 324.96 371.693 322.565C372.371 321.236 373.094 320.005 373.816 318.818C374.708 319.238 378.571 321.129 380.65 321.209C382.729 321.29 385.2 320.826 386.538 319.193C386.861 318.818 387.103 318.379 387.247 317.906C387.392 317.432 387.436 316.933 387.377 316.442C387.318 315.95 387.158 315.476 386.906 315.049C386.654 314.623 386.316 314.254 385.914 313.965C383.416 312.315 378.411 314.313 376.323 315.981C376.216 316.07 375.163 317.123 374.405 317.89C374.744 317.364 375.083 316.811 375.422 316.311C376.662 314.429 377.929 312.743 379.053 311.324C379.695 310.503 380.302 309.772 380.837 309.103C381.881 309.103 386.11 308.942 387.975 308.077C389.839 307.211 391.846 305.641 392.275 303.571C392.387 303.09 392.399 302.591 392.308 302.105C392.218 301.619 392.027 301.157 391.749 300.748C391.47 300.34 391.11 299.994 390.69 299.732C390.271 299.47 389.802 299.298 389.313 299.227C386.342 298.906 382.818 302.983 381.729 305.472C381.64 305.686 380.552 309.147 380.605 309.147H380.846C380.284 309.79 379.686 310.477 379.062 311.244C377.902 312.68 376.6 314.304 375.306 316.169C373.892 318.173 372.596 320.258 371.425 322.414C370.098 324.808 368.987 327.316 368.106 329.908C368.102 329.94 368.102 329.973 368.106 330.006C368.106 329.114 368.106 326.678 368.053 326.491C367.705 323.814 365.475 318.934 362.539 318.399C362.05 318.328 361.55 318.359 361.073 318.491C360.596 318.623 360.152 318.853 359.769 319.166C359.385 319.479 359.071 319.868 358.846 320.309C358.621 320.75 358.491 321.233 358.462 321.727C358.293 323.832 359.818 325.938 361.308 327.258C362.985 328.757 367.642 330.202 368.017 330.318C367.182 332.977 366.529 335.689 366.063 338.437C365.778 340.034 365.546 341.657 365.332 343.281C365.332 342.523 365.332 341.845 365.332 341.755C364.984 339.079 362.762 334.199 359.818 333.655C359.328 333.583 358.828 333.615 358.35 333.747C357.873 333.88 357.428 334.111 357.044 334.424C356.661 334.738 356.347 335.129 356.122 335.571C355.898 336.013 355.768 336.496 355.741 336.991C355.572 339.097 357.106 341.193 358.587 342.523C360.068 343.852 364.047 345.199 365.091 345.511C365.02 346.136 364.939 346.76 364.859 347.385C364.511 350.383 364.172 353.38 363.744 356.306C363.592 357.341 363.414 358.349 363.226 359.366C363.226 358.688 363.226 358.126 363.226 358.037C362.878 355.361 360.657 350.481 357.713 349.945C357.223 349.874 356.724 349.905 356.247 350.037C355.77 350.169 355.326 350.399 354.942 350.712C354.559 351.025 354.244 351.414 354.02 351.855C353.795 352.296 353.664 352.779 353.636 353.273C353.475 355.379 355.001 357.484 356.491 358.804C357.981 360.125 361.558 361.338 362.807 361.731C362.584 362.766 362.37 363.8 362.12 364.791C361.924 365.46 361.79 366.12 361.558 366.78C361.326 367.44 361.139 368.101 360.934 368.752C360.479 369.983 360.041 371.259 359.56 372.454C359.247 373.284 358.926 374.069 358.605 374.863C358.766 373.846 359.042 371.83 359.042 371.66C359.004 369.311 358.366 367.01 357.187 364.978C357.194 364.716 357.179 364.453 357.142 364.193C357.074 363.702 356.905 363.231 356.645 362.809C356.385 362.388 356.04 362.025 355.632 361.744C355.224 361.463 354.763 361.269 354.276 361.176C353.789 361.084 353.289 361.093 352.806 361.204C349.924 361.972 348.096 367.048 347.971 369.715C347.971 369.867 348.06 371.589 348.149 372.668C347.997 372.044 347.864 371.428 347.712 370.786C347.4 369.51 347.061 368.243 346.704 366.878C346.499 366.227 346.302 365.567 346.097 364.907C345.892 364.246 345.633 363.56 345.401 362.882C344.821 361.32 344.17 359.768 343.474 358.216C344.589 357.948 348.542 356.931 350.13 355.709C351.718 354.486 353.386 352.506 353.368 350.4C353.377 349.905 353.282 349.413 353.09 348.955C352.898 348.498 352.613 348.086 352.253 347.745C351.893 347.405 351.466 347.143 350.999 346.976C350.532 346.81 350.035 346.742 349.541 346.778C346.57 347.108 344.001 351.846 343.465 354.46C343.465 354.629 343.251 356.547 343.18 357.6C342.752 356.708 342.288 355.744 341.868 354.816C340.539 352.14 339.112 349.464 337.693 346.787C337.256 345.975 336.801 345.155 336.408 344.343C336.81 344.245 341.538 343.138 343.314 341.773C344.893 340.56 346.57 338.57 346.552 336.42C346.561 335.925 346.466 335.433 346.274 334.975C346.082 334.518 345.797 334.106 345.437 333.766C345.077 333.425 344.65 333.163 344.183 332.996C343.716 332.83 343.219 332.762 342.725 332.798C339.754 333.128 337.176 337.866 336.64 340.48C336.64 340.676 336.355 343.442 336.328 344.146C335.391 342.362 334.472 340.578 333.652 338.731C332.512 336.287 331.531 333.772 330.716 331.201C330.904 331.157 335.846 330.024 337.666 328.623C339.245 327.41 340.923 325.42 340.905 323.27C340.914 322.774 340.819 322.282 340.627 321.825C340.435 321.368 340.15 320.956 339.79 320.615C339.43 320.274 339.002 320.012 338.535 319.846C338.069 319.679 337.572 319.612 337.077 319.648C334.107 319.978 331.537 324.715 331.002 327.329C330.957 327.535 330.69 330.505 330.681 331.05C330.636 330.898 330.574 330.746 330.529 330.604C329.784 328.002 329.274 325.338 329.004 322.646C328.834 321.165 328.763 319.737 328.709 318.345C329.655 318.229 333.955 317.65 335.73 316.561C337.506 315.473 339.299 313.733 339.531 311.637C339.593 311.145 339.552 310.646 339.411 310.171C339.27 309.696 339.032 309.256 338.711 308.879C338.391 308.501 337.995 308.194 337.549 307.978C337.104 307.761 336.618 307.64 336.123 307.622C333.134 307.622 330.056 312.083 329.236 314.59C329.236 314.723 328.897 316.178 328.691 317.266C328.691 316.641 328.691 315.99 328.691 315.392C328.691 313.126 328.834 311.057 328.968 309.228C329.057 308.184 329.155 307.247 329.262 306.373C330.154 305.775 333.58 303.331 334.615 301.582C335.65 299.833 336.498 297.425 335.721 295.462C335.551 294.997 335.285 294.573 334.942 294.216C334.598 293.859 334.184 293.578 333.726 293.39C333.268 293.202 332.775 293.112 332.28 293.124C331.785 293.137 331.298 293.252 330.85 293.463C328.174 294.837 327.505 300.19 327.951 302.822C327.951 303.045 328.995 306.533 329.039 306.507H329.093C328.977 307.345 328.861 308.291 328.763 309.246C328.575 311.074 328.397 313.153 328.343 315.419C328.263 317.862 328.325 320.308 328.531 322.744C328.746 325.476 329.203 328.184 329.896 330.836V330.925C329.423 330.193 328.04 328.168 327.915 328.025C326.131 326.009 321.599 323.145 318.851 324.314C318.402 324.525 318.003 324.827 317.677 325.201C317.352 325.575 317.108 326.012 316.961 326.486C316.814 326.959 316.768 327.458 316.824 327.95C316.881 328.443 317.039 328.918 317.29 329.346C318.164 331.264 320.6 332.174 322.571 332.459Z" fill="#263238"/>
<path d="M373.807 318.337C373.852 318.337 374.753 314.848 374.789 314.625C375.154 311.949 374.298 306.659 371.604 305.365C371.15 305.167 370.661 305.066 370.166 305.067C369.672 305.069 369.183 305.173 368.73 305.374C368.278 305.574 367.873 305.866 367.54 306.232C367.206 306.598 366.953 307.028 366.795 307.497C366.081 309.487 367 311.913 368.08 313.591C369.355 315.553 373.798 318.337 373.807 318.337Z" fill="#263238"/>
<path d="M356.375 139.31C351.709 139.299 347.099 140.326 342.878 142.315C338.657 144.304 334.931 147.205 331.968 150.81C329.005 154.415 326.881 158.633 325.747 163.159C324.614 167.685 324.5 172.407 325.414 176.982C326.328 181.558 328.247 185.873 331.033 189.617C333.818 193.36 337.4 196.438 341.52 198.628C345.641 200.818 350.196 202.065 354.857 202.28C359.518 202.494 364.168 201.671 368.472 199.869L368.758 199.744L369.65 199.333C370.114 199.11 370.587 198.887 371.042 198.646C371.497 198.406 371.88 198.182 372.291 197.942C372.701 197.701 373.103 197.46 373.495 197.201C374.289 196.684 375.047 196.148 375.788 195.568C377.282 194.406 378.662 193.103 379.91 191.679C380.222 191.331 380.516 190.974 380.802 190.599C381.087 190.225 381.292 189.984 381.533 189.707C381.578 189.645 381.631 189.564 381.685 189.502C381.962 189.127 382.229 188.744 382.488 188.36L383.228 187.2C383.24 187.17 383.258 187.142 383.282 187.12C383.514 186.718 383.746 186.317 383.969 185.915C384.192 185.505 384.406 185.086 384.602 184.666L384.977 183.881L385.325 183.078C385.512 182.641 385.691 182.186 385.86 181.731C385.86 181.633 385.932 181.535 385.967 181.437C386.253 180.625 386.512 179.786 386.735 178.93C386.815 178.644 386.877 178.359 386.949 178.038L387.109 177.315L387.163 177.048C387.216 176.798 387.252 176.539 387.306 176.289C387.359 176.039 387.413 175.683 387.448 175.397C387.484 175.112 387.52 174.826 387.564 174.505L387.618 173.97C387.618 173.747 387.671 173.515 387.68 173.274C387.689 173.033 387.68 172.89 387.68 172.685C387.68 172.48 387.68 172.221 387.68 171.998C387.68 171.623 387.68 171.24 387.68 170.856C387.692 162.527 384.405 154.533 378.539 148.621C372.672 142.709 364.703 139.362 356.375 139.31ZM363.512 188.021C361.252 188.97 358.826 189.459 356.375 189.457C352.686 189.459 349.08 188.367 346.012 186.319C342.945 184.27 340.553 181.358 339.141 177.951C337.729 174.544 337.359 170.794 338.078 167.176C338.797 163.558 340.573 160.235 343.181 157.627C345.789 155.019 349.113 153.243 352.73 152.523C356.348 151.804 360.098 152.174 363.505 153.587C366.913 154.999 369.825 157.39 371.873 160.458C373.921 163.526 375.013 167.132 375.012 170.82C375.019 173.643 374.378 176.43 373.138 178.966C371.147 183.052 367.734 186.272 363.539 188.021H363.512Z" fill="#FF6300" stroke="#263238" stroke-linecap="round" stroke-linejoin="round"/>
<path d="M384.7 184.586C384.504 185.005 384.29 185.425 384.067 185.835C383.844 186.236 383.612 186.638 383.38 187.039C383.356 187.062 383.338 187.089 383.326 187.12L382.586 188.279C382.327 188.663 382.06 189.047 381.783 189.421C381.729 189.484 381.676 189.564 381.631 189.627C381.39 189.948 381.15 190.251 380.9 190.519C380.65 190.786 380.302 191.25 380.008 191.598C378.754 193.016 377.374 194.318 375.886 195.488C375.145 196.059 374.387 196.603 373.593 197.121C373.201 197.379 372.79 197.629 372.389 197.861C371.987 198.093 371.559 198.334 371.14 198.566C370.292 199.012 369.418 199.458 368.535 199.788L363.601 187.914C367.796 186.164 371.21 182.945 373.201 178.858L384.7 184.586Z" fill="white" stroke="#263238" stroke-linecap="round" stroke-linejoin="round"/>
<path d="M387.868 170.82C387.868 171.204 387.868 171.587 387.868 171.962C387.868 172.185 387.868 172.417 387.868 172.649C387.868 172.881 387.868 173.042 387.868 173.238C387.868 173.434 387.868 173.711 387.805 173.934L387.752 174.469C387.707 174.755 387.68 175.04 387.636 175.361C387.591 175.682 387.546 175.977 387.493 176.253C387.439 176.53 387.404 176.762 387.35 177.012L387.297 177.279L387.136 178.002C387.065 178.288 387.002 178.573 386.922 178.894C386.699 179.742 386.44 180.589 386.155 181.401C386.155 181.499 386.074 181.597 386.048 181.696C385.878 182.151 385.7 182.588 385.512 183.043L385.164 183.846L384.79 184.631L373.192 179.01C374.432 176.474 375.073 173.688 375.065 170.865C375.066 168.416 374.585 165.991 373.649 163.729C372.713 161.466 371.341 159.41 369.61 157.678C367.88 155.945 365.825 154.571 363.563 153.633C361.301 152.695 358.877 152.211 356.428 152.21V139.31C364.774 139.326 372.772 142.654 378.666 148.561C384.561 154.469 387.87 162.475 387.868 170.82Z" fill="#263238" stroke="#263238" stroke-linecap="round" stroke-linejoin="round"/>
<path d="M364.011 215.57H379.419" stroke="#263238" stroke-linecap="round" stroke-linejoin="round"/>
<path d="M364.011 220.049H379.419" stroke="#263238" stroke-linecap="round" stroke-linejoin="round"/>
<path d="M379.419 224.519H364.011" stroke="#263238" stroke-linecap="round" stroke-linejoin="round"/>
<path d="M300.107 162.086H315.514" stroke="#263238" stroke-linecap="round" stroke-linejoin="round"/>
<path d="M300.107 166.556H315.514" stroke="#263238" stroke-linecap="round" stroke-linejoin="round"/>
<path d="M315.514 171.034H300.107" stroke="#263238" stroke-linecap="round" stroke-linejoin="round"/>
<path d="M374.45 190.725L384.388 200.164V225.135" stroke="#263238" stroke-linecap="round" stroke-linejoin="round"/>
<path d="M333.009 162.113H319.761" stroke="#263238" stroke-linecap="round" stroke-linejoin="round"/>
<path d="M337.095 82.9346H327.059V113.036H337.095V82.9346Z" fill="#6F00F0" stroke="#263238" stroke-linecap="round" stroke-linejoin="round"/>
<path d="M351.423 72.9062H341.386V113.035H351.423V72.9062Z" fill="#263238" stroke="#263238" stroke-linecap="round" stroke-linejoin="round"/>
<path d="M365.76 61.4424H355.723V113.035H365.76V61.4424Z" fill="#6F00F0" stroke="#263238" stroke-linecap="round" stroke-linejoin="round"/>
<path d="M380.088 53.3154H370.051V113.036H380.088V53.3154Z" fill="#263238" stroke="#263238" stroke-linecap="round" stroke-linejoin="round"/>
<path d="M327.531 79.5979L366.554 43.0645" stroke="#263238" stroke-width="2" stroke-linecap="round" stroke-linejoin="round"/>
<path d="M369.186 48.2744L372.442 37.5508L361.522 40.0934L369.186 48.2744Z" fill="#263238"/>
<path d="M110.401 58.623V117.96H31.6953V58.623H41.5713V60.6928C41.5713 61.0477 41.7123 61.3881 41.9633 61.6391C42.2143 61.8901 42.5546 62.0311 42.9096 62.0311C43.2645 62.0311 43.6049 61.8901 43.8558 61.6391C44.1068 61.3881 44.2478 61.0477 44.2478 60.6928V58.623H55.6494V60.6928C55.6494 61.0477 55.7904 61.3881 56.0414 61.6391C56.2923 61.8901 56.6327 62.0311 56.9876 62.0311C57.3426 62.0311 57.6829 61.8901 57.9339 61.6391C58.1849 61.3881 58.3259 61.0477 58.3259 60.6928V58.623H69.7186V60.6928C69.7186 61.0477 69.8596 61.3881 70.1106 61.6391C70.3615 61.8901 70.7019 62.0311 71.0568 62.0311C71.4117 62.0311 71.7521 61.8901 72.0031 61.6391C72.2541 61.3881 72.395 61.0477 72.395 60.6928V58.623H83.761V60.6928C83.761 61.0477 83.902 61.3881 84.153 61.6391C84.4039 61.8901 84.7443 62.0311 85.0992 62.0311C85.4542 62.0311 85.7945 61.8901 86.0455 61.6391C86.2965 61.3881 86.4375 61.0477 86.4375 60.6928V58.623H97.8569V60.6928C97.8569 61.0477 97.9979 61.3881 98.2489 61.6391C98.4999 61.8901 98.8403 62.0311 99.1952 62.0311C99.5501 62.0311 99.8905 61.8901 100.141 61.6391C100.392 61.3881 100.533 61.0477 100.533 60.6928V58.623H110.401Z" fill="#00DA49" stroke="#263238" stroke-linecap="round" stroke-linejoin="round"/>
<path d="M49.1813 74.8604H40.4383V83.6034H49.1813V74.8604Z" fill="white" stroke="#263238" stroke-linecap="round" stroke-linejoin="round"/>
<path d="M62.2959 74.8604H53.5529V83.6034H62.2959V74.8604Z" fill="white" stroke="#263238" stroke-linecap="round" stroke-linejoin="round"/>
<path d="M75.4194 74.8604H66.6764V83.6034H75.4194V74.8604Z" fill="white" stroke="#263238" stroke-linecap="round" stroke-linejoin="round"/>
<path d="M88.534 74.8604H79.791V83.6034H88.534V74.8604Z" fill="white" stroke="#263238" stroke-linecap="round" stroke-linejoin="round"/>
<path d="M101.649 74.8604H92.9055V83.6034H101.649V74.8604Z" fill="#263238" stroke="#263238" stroke-linecap="round" stroke-linejoin="round"/>
<path d="M49.1813 89.2246H40.4383V97.9677H49.1813V89.2246Z" fill="white" stroke="#263238" stroke-linecap="round" stroke-linejoin="round"/>
<path d="M62.2959 89.2246H53.5529V97.9677H62.2959V89.2246Z" fill="white" stroke="#263238" stroke-linecap="round" stroke-linejoin="round"/>
<path d="M75.4194 89.2246H66.6764V97.9677H75.4194V89.2246Z" fill="#263238" stroke="#263238" stroke-linecap="round" stroke-linejoin="round"/>
<path d="M88.534 89.2246H79.791V97.9677H88.534V89.2246Z" fill="white" stroke="#263238" stroke-linecap="round" stroke-linejoin="round"/>
<path d="M101.649 89.2246H92.9055V97.9677H101.649V89.2246Z" fill="white" stroke="#263238" stroke-linecap="round" stroke-linejoin="round"/>
<path d="M49.1813 103.597H40.4383V112.34H49.1813V103.597Z" fill="white" stroke="#263238" stroke-linecap="round" stroke-linejoin="round"/>
<path d="M62.2959 103.597H53.5529V112.34H62.2959V103.597Z" fill="#263238" stroke="#263238" stroke-linecap="round" stroke-linejoin="round"/>
<path d="M75.4194 103.597H66.6764V112.34H75.4194V103.597Z" fill="white" stroke="#263238" stroke-linecap="round" stroke-linejoin="round"/>
<path d="M88.534 103.597H79.791V112.34H88.534V103.597Z" fill="white" stroke="#263238" stroke-linecap="round" stroke-linejoin="round"/>
<path d="M101.649 103.597H92.9055V112.34H101.649V103.597Z" fill="#263238" stroke="#263238" stroke-linecap="round" stroke-linejoin="round"/>
<path d="M44.2388 53.0472V60.6929C44.2388 61.0478 44.0978 61.3882 43.8469 61.6392C43.5959 61.8901 43.2555 62.0311 42.9006 62.0311C42.5457 62.0311 42.2053 61.8901 41.9543 61.6392C41.7034 61.3882 41.5624 61.0478 41.5624 60.6929V53.0472C41.5624 52.6923 41.7034 52.3519 41.9543 52.1009C42.2053 51.85 42.5457 51.709 42.9006 51.709C43.2555 51.709 43.5959 51.85 43.8469 52.1009C44.0978 52.3519 44.2388 52.6923 44.2388 53.0472Z" fill="#263238" stroke="#263238" stroke-linecap="round" stroke-linejoin="round"/>
<path d="M58.308 53.0472V60.6929C58.308 61.0478 58.167 61.3882 57.9161 61.6392C57.6651 61.8901 57.3247 62.0311 56.9698 62.0311C56.6149 62.0311 56.2745 61.8901 56.0235 61.6392C55.7726 61.3882 55.6316 61.0478 55.6316 60.6929V53.0472C55.6316 52.6923 55.7726 52.3519 56.0235 52.1009C56.2745 51.85 56.6149 51.709 56.9698 51.709C57.3247 51.709 57.6651 51.85 57.9161 52.1009C58.167 52.3519 58.308 52.6923 58.308 53.0472Z" fill="#263238" stroke="#263238" stroke-linecap="round" stroke-linejoin="round"/>
<path d="M72.3772 53.0472V60.6929C72.3772 61.0478 72.2362 61.3882 71.9852 61.6392C71.7343 61.8901 71.3939 62.0311 71.039 62.0311C70.684 62.0311 70.3437 61.8901 70.0927 61.6392C69.8417 61.3882 69.7007 61.0478 69.7007 60.6929V53.0472C69.7007 52.6923 69.8417 52.3519 70.0927 52.1009C70.3437 51.85 70.684 51.709 71.039 51.709C71.3939 51.709 71.7343 51.85 71.9852 52.1009C72.2362 52.3519 72.3772 52.6923 72.3772 53.0472Z" fill="#263238" stroke="#263238" stroke-linecap="round" stroke-linejoin="round"/>
<path d="M86.4374 53.0472V60.6929C86.4374 61.0478 86.2964 61.3882 86.0455 61.6392C85.7945 61.8901 85.4541 62.0311 85.0992 62.0311C84.7443 62.0311 84.4039 61.8901 84.1529 61.6392C83.902 61.3882 83.761 61.0478 83.761 60.6929V53.0472C83.761 52.8715 83.7956 52.6974 83.8629 52.5351C83.9301 52.3727 84.0287 52.2252 84.1529 52.1009C84.2772 51.9767 84.4247 51.8781 84.5871 51.8109C84.7495 51.7436 84.9235 51.709 85.0992 51.709C85.2749 51.709 85.449 51.7436 85.6113 51.8109C85.7737 51.8781 85.9212 51.9767 86.0455 52.1009C86.1697 52.2252 86.2683 52.3727 86.3356 52.5351C86.4028 52.6974 86.4374 52.8715 86.4374 53.0472Z" fill="#263238" stroke="#263238" stroke-linecap="round" stroke-linejoin="round"/>
<path d="M100.524 53.0472V60.6929C100.524 61.0478 100.383 61.3882 100.133 61.6392C99.8815 61.8901 99.5412 62.0311 99.1862 62.0311C98.8313 62.0311 98.4909 61.8901 98.24 61.6392C97.989 61.3882 97.848 61.0478 97.848 60.6929V53.0472C97.848 52.6923 97.989 52.3519 98.24 52.1009C98.4909 51.85 98.8313 51.709 99.1862 51.709C99.5412 51.709 99.8815 51.85 100.133 52.1009C100.383 52.3519 100.524 52.6923 100.524 53.0472Z" fill="#263238" stroke="#263238" stroke-linecap="round" stroke-linejoin="round"/>
<path d="M81.8786 183.247C81.8771 181.847 81.7757 180.448 81.5752 179.063L86.7943 176.743L84.1803 168.714L78.7114 169.874C77.3492 167.148 75.577 164.648 73.4567 162.46L76.3116 157.508L69.4866 152.521L65.7485 156.67C63.0415 155.263 60.1352 154.279 57.1304 153.752L56.5148 148.123H48.0751L47.4863 153.672C44.474 154.12 41.5472 155.023 38.8057 156.349L34.9873 152.12L28.1267 157.045L30.9191 161.889C28.7448 164.024 26.9096 166.479 25.477 169.169L19.9011 167.991L17.2871 176.021L22.3901 178.295C22.1177 179.92 21.9805 181.564 21.9798 183.211C21.9827 184.608 22.081 186.003 22.2742 187.386L17.064 189.715L19.678 197.744L25.1469 196.585C26.5091 199.31 28.2813 201.81 30.4016 203.998L27.5557 209.003L34.3985 213.972L38.1366 209.824C40.8423 211.232 43.7493 212.213 46.7547 212.732L47.3524 218.415H55.81L56.3899 212.857C59.4072 212.419 62.3385 211.516 65.0794 210.181L68.8978 214.419L75.7406 209.449L72.9482 204.605C75.1183 202.463 76.9529 200.005 78.3903 197.316L83.9662 198.503L86.5802 190.473L81.4771 188.198C81.749 186.562 81.8833 184.906 81.8786 183.247ZM34.8802 183.247C34.8802 179.875 35.8801 176.579 37.7535 173.775C39.6268 170.971 42.2895 168.786 45.4048 167.496C48.5201 166.205 51.9481 165.868 55.2553 166.526C58.5624 167.183 61.6003 168.807 63.9846 171.191C66.3689 173.576 67.9927 176.614 68.6505 179.921C69.3084 183.228 68.9707 186.656 67.6803 189.771C66.3899 192.887 64.2047 195.549 61.4011 197.423C58.5974 199.296 55.3011 200.296 51.9292 200.296C47.4082 200.293 43.0731 198.497 39.8764 195.3C36.6796 192.103 34.8826 187.768 34.8802 183.247Z" fill="#263238" stroke="#263238" stroke-linecap="round" stroke-linejoin="round"/>
<path d="M122.757 156.242C122.754 155.347 122.691 154.453 122.569 153.566L125.888 152.085L124.22 146.973L120.741 147.704C119.874 145.969 118.746 144.377 117.395 142.985L119.179 139.836L114.826 136.678L112.444 139.354C110.724 138.457 108.876 137.831 106.966 137.498L106.582 133.93H101.229L100.864 137.498C98.9424 137.785 97.0768 138.366 95.3322 139.22L92.9055 136.544L88.5519 139.702L90.3362 142.789C88.9526 144.146 87.7852 145.708 86.8746 147.419L83.306 146.67L81.6466 151.692L84.8941 153.138C84.7219 154.17 84.6354 155.214 84.6353 156.26C84.6384 157.155 84.701 158.05 84.8227 158.937L81.5128 160.409L83.1722 165.53L86.6516 164.798C87.5221 166.539 88.6533 168.136 90.0061 169.535L88.2218 172.685L92.5754 175.843L94.9575 173.166C96.6801 174.063 98.5308 174.689 100.444 175.022L100.819 178.635H106.172L106.538 175.067C108.459 174.78 110.324 174.199 112.069 173.345L114.496 176.021L118.858 172.863L117.074 169.776C118.458 168.419 119.626 166.858 120.535 165.146L124.104 165.895L125.772 160.774L122.525 159.329C122.686 158.308 122.763 157.276 122.757 156.242ZM92.8431 156.242C92.8431 154.095 93.4799 151.996 94.6729 150.21C95.8659 148.425 97.5616 147.033 99.5456 146.211C101.53 145.39 103.713 145.175 105.819 145.593C107.925 146.012 109.859 147.046 111.378 148.565C112.896 150.083 113.93 152.018 114.349 154.124C114.768 156.23 114.553 158.413 113.731 160.397C112.91 162.381 111.518 164.077 109.733 165.27C107.947 166.463 105.848 167.1 103.701 167.1C100.821 167.1 98.0593 165.956 96.0232 163.92C93.987 161.884 92.8431 159.122 92.8431 156.242Z" fill="#FFC400" stroke="#263238" stroke-linecap="round" stroke-linejoin="round"/>
<path d="M119.447 250.837C119.796 247.455 119.969 244.057 119.964 240.657C120.058 232.706 119.037 224.781 116.931 217.114L166.445 159.722C164.868 190.084 165.029 220.511 166.927 250.855L119.447 250.837Z" stroke="#263238" stroke-linecap="round" stroke-linejoin="round"/>
<path d="M310.037 240.657C310.032 244.057 310.205 247.455 310.554 250.836H261.95C263.881 220.023 264.012 189.123 262.342 158.294L313.043 217.104C310.946 224.776 309.934 232.704 310.037 240.657Z" stroke="#263238" stroke-linecap="round" stroke-linejoin="round"/>
<path d="M336.123 240.657C336.14 245.82 335.738 250.975 334.919 256.073H311.259C310.979 254.396 310.75 252.65 310.572 250.836C310.223 247.454 310.05 244.057 310.054 240.657C309.96 232.703 310.981 224.775 313.088 217.104C315.479 209.075 319.074 203.909 323.098 203.909C330.279 203.909 336.123 220.387 336.123 240.657Z" stroke="#263238" stroke-linecap="round" stroke-linejoin="round"/>
<path d="M334.919 256.073C334.919 256.073 334.919 256.154 334.919 256.189C334.811 256.843 334.695 257.486 334.571 258.116C334.169 260.222 333.678 262.202 333.161 264.04H313.043C312.508 262.202 312.035 260.222 311.633 258.116C311.509 257.48 311.393 256.838 311.286 256.189C311.286 256.189 311.286 256.109 311.286 256.073H334.919Z" stroke="#263238" stroke-linecap="round" stroke-linejoin="round"/>
<path d="M334.919 256.073C334.919 256.073 334.919 256.154 334.919 256.189C334.811 256.843 334.695 257.486 334.571 258.116C334.169 260.222 333.678 262.202 333.161 264.04H313.043C312.508 262.202 312.035 260.222 311.633 258.116C311.509 257.48 311.393 256.838 311.286 256.189C311.286 256.189 311.286 256.109 311.286 256.073H334.919Z" stroke="#263238" stroke-linecap="round" stroke-linejoin="round"/>
<path d="M168.31 135.571C167.498 143.6 166.891 151.746 166.445 159.659C164.868 190.021 165.029 220.448 166.927 250.792C166.99 251.684 167.025 252.175 167.025 252.175H261.852C261.852 252.175 261.852 251.702 261.95 250.792C263.881 219.978 264.012 189.078 262.342 158.249C261.762 148.284 260.933 138.114 259.764 128.059C258.423 116.741 256.47 105.505 253.912 94.3984M252.011 86.4494C249.95 78.2595 247.711 70.5067 245.436 63.3428H183.441C177.561 81.8816 171.843 104.382 169.113 128.059M214.434 232.601C208.546 232.601 202.79 230.855 197.894 227.584C192.998 224.312 189.182 219.663 186.929 214.223C184.676 208.783 184.086 202.797 185.235 197.022C186.384 191.247 189.219 185.942 193.383 181.779C197.546 177.615 202.851 174.78 208.626 173.631C214.401 172.482 220.387 173.072 225.827 175.325C231.267 177.579 235.916 181.394 239.188 186.29C242.459 191.186 244.205 196.942 244.205 202.83C244.211 206.743 243.445 210.62 241.952 214.237C240.458 217.854 238.266 221.141 235.501 223.91C232.736 226.679 229.452 228.876 225.837 230.375C222.222 231.874 218.347 232.646 214.434 232.646V232.601ZM214.434 157.072C209.508 157.072 204.658 155.851 200.32 153.517C195.982 151.183 192.291 147.809 189.577 143.698C186.863 139.587 185.211 134.867 184.77 129.96C184.329 125.054 185.111 120.115 187.048 115.585C188.984 111.056 192.014 107.077 195.866 104.006C199.718 100.935 204.272 98.8681 209.119 97.9895C213.966 97.1109 218.955 97.4485 223.64 98.972C228.325 100.495 232.558 103.157 235.961 106.719L241.163 114.151C243.389 118.695 244.422 123.731 244.164 128.784C243.906 133.838 242.366 138.743 239.688 143.037C237.011 147.33 233.284 150.872 228.86 153.327C224.435 155.783 219.458 157.071 214.398 157.072H214.434Z" stroke="#263238" stroke-linecap="round" stroke-linejoin="round"/>
<path d="M243.83 207.715C246.493 191.49 235.499 176.178 219.274 173.516C203.049 170.853 187.737 181.847 185.074 198.072C182.412 214.297 193.406 229.609 209.631 232.272C225.856 234.934 241.167 223.94 243.83 207.715Z" stroke="#263238" stroke-linecap="round" stroke-linejoin="round"/>
<path d="M244.205 127.337C244.201 134.248 241.791 140.943 237.389 146.272C232.986 151.6 226.866 155.229 220.079 156.537C213.292 157.844 206.262 156.748 200.195 153.436C194.129 150.124 189.404 144.803 186.833 138.387C184.263 131.971 184.006 124.86 186.107 118.276C188.208 111.691 192.536 106.043 198.348 102.302C204.16 98.5613 211.093 96.9604 217.956 97.7745C224.82 98.5887 231.186 101.767 235.962 106.764L241.163 114.195C243.168 118.286 244.209 122.781 244.205 127.337Z" stroke="#263238" stroke-linecap="round" stroke-linejoin="round"/>
<path d="M193.959 34.0357C194.685 32.2514 195.378 30.5623 196.038 28.9683L196.359 28.2011L196.975 26.729L197.974 24.4095L198.42 23.4013C199.044 21.9828 199.598 20.7249 200.07 19.7168C200.133 19.5651 200.204 19.4223 200.267 19.2796L200.32 19.1547L200.624 18.5034C200.927 17.8432 201.177 17.308 201.373 16.8976L201.516 16.6032L201.881 15.8448C203.801 11.5188 206.233 7.43916 209.126 3.69378C209.75 2.87792 210.555 2.21688 211.476 1.76192C212.397 1.30696 213.411 1.07031 214.438 1.07031C215.466 1.07031 216.48 1.30696 217.401 1.76192C218.322 2.21688 219.127 2.87792 219.751 3.69378C222.641 7.43967 225.07 11.5193 226.987 15.8448C226.987 15.8448 227.495 16.8797 228.396 18.8246C228.441 18.9317 228.494 19.0387 228.548 19.1547C229.279 20.7606 230.252 22.9196 231.403 25.5871C231.551 25.938 231.703 26.2949 231.858 26.6577C232.616 28.442 233.446 30.4136 234.32 32.5726C234.418 32.8046 234.516 33.0544 234.614 33.2952C234.82 33.7859 235.016 34.2766 235.212 34.7851C235.238 34.8333 235.259 34.8842 235.275 34.9368C235.462 35.3918 235.64 35.8289 235.828 36.3286L236.14 37.1226C237.389 40.3165 238.718 43.8137 240.074 47.5785C240.306 48.203 240.529 48.8454 240.761 49.4877C241.19 50.7011 241.653 51.9322 242.055 53.1901C242.198 53.5916 242.34 54.002 242.474 54.4124C243.467 57.2851 244.455 60.2768 245.436 63.3874H211.927" stroke="#263238" stroke-linecap="round" stroke-linejoin="round"/>
<path d="M203.88 63.3693H183.441C183.914 61.8883 184.377 60.4341 184.85 59.0067C185.011 58.5071 185.18 58.0164 185.341 57.5257C186.394 54.3586 187.446 51.2807 188.481 48.4347L189.472 45.7048C189.588 45.4014 189.704 45.0892 189.811 44.8126C190.037 44.2179 190.26 43.6231 190.48 43.0283" stroke="#263238" stroke-linecap="round" stroke-linejoin="round"/>
<path d="M211.927 63.3877H203.88" stroke="#263238" stroke-linecap="round" stroke-linejoin="round"/>
<path d="M241.163 114.222L235.961 106.791C230.793 101.399 223.78 98.1564 216.324 97.7118C208.869 97.2672 201.52 99.6532 195.747 104.393C189.975 109.132 186.204 115.876 185.189 123.275C184.173 130.675 185.989 138.185 190.271 144.304C194.554 150.423 200.988 154.7 208.288 156.28C215.588 157.86 223.215 156.627 229.645 152.826C236.075 149.026 240.833 142.938 242.968 135.781C245.104 128.624 244.459 120.925 241.163 114.222ZM214.398 149.114C210.096 149.116 205.89 147.842 202.312 145.453C198.734 143.064 195.945 139.668 194.297 135.693C192.649 131.719 192.217 127.346 193.056 123.126C193.894 118.906 195.965 115.03 199.006 111.987C202.048 108.944 205.923 106.872 210.143 106.032C214.362 105.192 218.736 105.622 222.711 107.268C226.686 108.914 230.083 111.702 232.474 115.279C234.864 118.856 236.14 123.061 236.14 127.364C236.133 133.12 233.844 138.639 229.776 142.711C225.707 146.782 220.19 149.076 214.434 149.087L214.398 149.114Z" stroke="#263238" stroke-linecap="round" stroke-linejoin="round"/>
<path d="M214.434 173.104C208.546 173.104 202.79 174.85 197.894 178.121C192.998 181.392 189.182 186.042 186.929 191.482C184.676 196.922 184.086 202.908 185.235 208.683C186.384 214.458 189.219 219.762 193.383 223.926C197.546 228.089 202.851 230.925 208.626 232.073C214.401 233.222 220.387 232.633 225.827 230.379C231.267 228.126 235.916 224.31 239.188 219.414C242.459 214.519 244.205 208.763 244.205 202.874C244.205 194.979 241.068 187.406 235.485 181.823C229.902 176.24 222.33 173.104 214.434 173.104ZM214.434 224.616C210.134 224.616 205.93 223.341 202.355 220.952C198.78 218.563 195.993 215.167 194.347 211.195C192.702 207.222 192.271 202.85 193.11 198.633C193.949 194.415 196.02 190.541 199.06 187.501C202.101 184.46 205.975 182.39 210.192 181.551C214.41 180.712 218.781 181.142 222.754 182.788C226.727 184.433 230.122 187.22 232.511 190.795C234.9 194.371 236.176 198.574 236.176 202.874C236.176 208.641 233.885 214.171 229.808 218.248C225.73 222.326 220.2 224.616 214.434 224.616Z" stroke="#263238" stroke-linecap="round" stroke-linejoin="round"/>
<path d="M261.95 252.22H167.025V279.511H261.95V252.22Z" stroke="#263238" stroke-linecap="round" stroke-linejoin="round"/>
<path d="M179.248 279.501V253.04" stroke="#263238" stroke-linecap="round" stroke-linejoin="round"/>
<path d="M197.028 279.501V253.04" stroke="#263238" stroke-linecap="round" stroke-linejoin="round"/>
<path d="M214.809 279.501V253.04" stroke="#263238" stroke-linecap="round" stroke-linejoin="round"/>
<path d="M232.589 279.501V253.04" stroke="#263238" stroke-linecap="round" stroke-linejoin="round"/>
<path d="M250.37 279.501V253.04" stroke="#263238" stroke-linecap="round" stroke-linejoin="round"/>
<path d="M119.955 240.657C119.96 244.057 119.787 247.454 119.438 250.836C119.271 252.62 119.043 254.366 118.751 256.073H95.0824C94.2634 250.975 93.8606 245.82 93.878 240.657C93.878 220.36 99.7126 203.909 106.921 203.909C110.945 203.909 114.54 209.048 116.922 217.113C119.028 224.781 120.049 232.706 119.955 240.657Z" stroke="#263238" stroke-linecap="round" stroke-linejoin="round"/>
<path d="M118.751 256.073C118.698 256.439 118.635 256.796 118.573 257.144L118.492 257.59C118.323 258.482 118.135 259.374 117.939 260.267C117.85 260.704 117.743 261.159 117.636 261.56L117.315 262.809C117.208 263.22 117.092 263.63 116.976 264.023H96.8578C96.6793 263.416 96.5098 262.8 96.3492 262.158C96.266 261.849 96.1857 261.527 96.1083 261.194C95.9567 260.543 95.805 259.883 95.6623 259.205C95.5998 258.866 95.5285 258.518 95.4571 258.17C95.3233 257.519 95.2073 256.85 95.1002 256.172C95.1002 256.172 95.1002 256.091 95.1002 256.056L118.751 256.073Z" stroke="#263238" stroke-linecap="round" stroke-linejoin="round"/>
<path d="M118.76 256.073C118.698 256.43 118.644 256.787 118.573 257.144L118.492 257.59C118.323 258.482 118.135 259.374 117.939 260.267C117.85 260.704 117.743 261.159 117.636 261.56L117.315 262.809C117.208 263.22 117.092 263.63 116.976 264.023H96.8578C96.6793 263.416 96.5098 262.8 96.3492 262.158C96.266 261.849 96.1857 261.527 96.1083 261.194C95.9567 260.543 95.805 259.883 95.6623 259.205C95.5998 258.866 95.5285 258.518 95.4571 258.17C95.3322 257.519 95.2162 256.85 95.1002 256.172C95.1002 256.172 95.1002 256.091 95.1002 256.056L118.76 256.073Z" stroke="#263238" stroke-linecap="round" stroke-linejoin="round"/>
<path d="M252.207 387.371C252.207 387.371 250.86 389.227 250.361 389.227C248.301 389.691 246.279 390.308 244.312 391.074C242.626 391.743 241.635 392.198 242.795 393.75C246.498 398.63 255.571 399.469 260.281 400.477C264.992 401.485 268.016 401.485 268.516 397.952C269.016 394.419 268.177 388.201 268.177 388.201C268.177 388.201 258.934 390.065 252.207 387.371Z" fill="white" stroke="#263238" stroke-linecap="round" stroke-linejoin="round"/>
<path d="M268.498 398.076C263.301 398.991 257.965 398.723 252.886 397.291C246.319 395.364 243.795 393.062 242.84 391.76C242.189 392.206 242.028 392.75 242.795 393.758C246.498 398.638 255.571 399.477 260.281 400.485C264.992 401.493 267.945 401.493 268.498 398.076Z" fill="white" stroke="#263238" stroke-linecap="round" stroke-linejoin="round"/>
<path d="M287.01 386.871C287.01 386.871 283.647 389.726 282.978 390.395C282.308 391.064 278.606 391.412 279.106 393.428C279.605 395.445 282.469 396.997 284.824 397.291C287.18 397.586 292.898 400.316 294.236 400.146C295.575 399.977 299.589 400.316 300.294 396.453C300.999 392.59 299.955 387.201 299.955 387.201L287.01 386.871Z" fill="white" stroke="#263238" stroke-linecap="round" stroke-linejoin="round"/>
<path d="M292.22 397.122C289.196 396.114 287.849 396.114 283.647 395.105C281.974 394.696 280.418 393.909 279.097 392.804C279.048 393.009 279.048 393.223 279.097 393.428C279.605 395.444 282.46 396.997 284.815 397.291C287.171 397.586 292.889 400.316 294.228 400.146C295.566 399.977 299.58 400.316 300.276 396.479C298.331 397.987 294.709 397.925 292.22 397.122Z" fill="white" stroke="#263238" stroke-linecap="round" stroke-linejoin="round"/>
<path d="M249.183 264.995C249.183 264.995 246.997 284.328 248.005 302.323C249.014 320.317 251.877 341.327 252.546 347.207C253.216 353.086 254.063 377.977 254.063 379.493C253.945 380.867 253.661 382.221 253.216 383.526L251.877 384.534L251.538 387.558C254.696 389.16 258.024 390.402 261.459 391.261C266.161 392.269 268.685 390.922 268.855 389.744C269.024 388.567 268.685 385.881 268.685 383.695C268.685 381.51 268.346 379.154 268.346 376.63C268.346 374.105 268.855 347.376 269.024 343.683C269.194 339.989 269.194 337.286 269.355 334.261C269.515 331.237 271.54 303.5 271.54 303.5L274.065 298.959C274.065 298.959 275.912 330.738 276.92 333.423C277.928 336.108 286.002 379.154 286.671 380.162C287.34 381.171 285.333 382.009 285.502 383.017C285.672 384.026 287.18 388.906 287.18 388.906C287.18 388.906 291.721 390.922 294.576 391.091C297.43 391.261 298.778 390.922 299.928 388.736C300.869 387.049 301.223 385.097 300.937 383.187C300.644 381.208 300.251 379.246 299.759 377.308C299.259 374.952 299.429 353.264 298.082 346.029C296.735 338.794 293.88 334.601 293.71 328.712C293.541 322.824 295.387 299.967 294.888 293.58C294.388 287.192 294.718 283.828 293.202 278.11C291.685 272.391 289.339 266.173 289.339 266.173C289.339 266.173 268.516 272.712 249.183 264.995Z" fill="#263238" stroke="#263238" stroke-linecap="round" stroke-linejoin="round"/>
<path d="M261.682 206.505C261.682 206.505 254.054 211.198 250.976 212.367C247.898 213.535 242.626 214.419 242.055 217.354C241.484 220.289 240.583 224.982 240.583 224.982C240.583 224.982 235.158 239.345 234.284 242.129C233.41 244.912 233.847 249.31 235.899 250.488C237.951 251.666 240.297 251.514 242.492 250.925C244.687 250.336 250.263 243.306 250.263 243.306C250.263 243.306 249.37 259.285 248.942 260.453C248.514 261.622 247.033 265.583 248.353 266.761C249.674 267.939 265.804 272.774 269.908 272.774C274.012 272.774 286.475 270.865 288.375 269.544C290.275 268.224 290.873 267.93 291.052 265.583C291.23 263.237 290.909 263.683 291.203 260.453C291.498 257.224 295.887 236.562 296.476 234.358C297.065 232.154 300.731 222.341 300 218.085C299.268 213.83 291.97 206.487 288.562 205.595C285.154 204.703 267.543 205.337 261.682 206.505Z" fill="#00DA49" stroke="#263238" stroke-linecap="round" stroke-linejoin="round"/>
<path d="M265.349 173.229C265.349 173.229 261.78 178.501 262.262 180.41C262.744 182.32 262.708 182.899 262.262 183.488C261.816 184.077 259.041 185.692 259.773 186.718C260.621 187.722 261.552 188.653 262.556 189.501C262.556 189.501 263.002 193.9 263.734 194.337C264.466 194.774 265.634 195.068 266.41 192.142C267.187 189.216 269.488 180.847 269.488 179.652C269.488 178.457 269.89 172.345 265.349 173.229Z" fill="white" stroke="#263238" stroke-linecap="round" stroke-linejoin="round"/>
<path d="M270.327 167.51C270.327 167.51 263.288 167.804 262.708 170.293C262.128 172.782 265.634 175.575 266.223 176.012C266.812 176.449 264.608 178.215 265.197 179.58C265.729 180.62 266.369 181.601 267.106 182.507C267.106 182.507 265.197 192.187 264.903 192.624C264.608 193.061 262.851 187.788 262.556 189.546C262.262 191.303 262.414 193.061 262.119 193.944C261.825 194.827 259.925 198.191 260.799 199.511C261.673 200.831 262.262 201.42 264.903 200.831L267.579 200.243L267.142 205.23L284.441 203.615C284.441 203.615 283.995 197.611 284.584 195.264C285.172 192.918 292.211 183.97 290.302 176.94C288.393 169.91 274.288 166.484 270.327 167.51Z" fill="white" stroke="#263238" stroke-linecap="round" stroke-linejoin="round"/>
<path d="M290.267 176.895C288.357 169.856 274.288 166.484 270.327 167.51C270.327 167.51 263.288 167.804 262.708 170.293C262.128 172.782 265.634 175.575 266.223 176.012C266.812 176.449 264.608 178.216 265.197 179.581C265.729 180.621 266.369 181.601 267.106 182.507C267.106 182.507 265.197 192.187 264.903 192.624C264.608 193.061 262.851 187.788 262.556 189.546C262.262 191.303 262.414 193.061 262.119 193.944C261.825 194.827 259.925 198.191 260.799 199.511C261.673 200.832 262.262 201.42 264.903 200.832L267.579 200.243C267.579 200.243 269.783 198.458 269.926 197.165C270.068 195.871 270.22 189.689 270.363 188.663C270.505 187.637 271.389 186.316 272.415 186.468C273.394 187.674 273.96 189.162 274.029 190.715C274.324 193.65 275.35 195.265 277.991 195.853C280.286 196.176 282.626 195.826 284.726 194.845C285.841 191.955 292.078 183.568 290.267 176.895Z" fill="#263238" stroke="#263238" stroke-linecap="round" stroke-linejoin="round"/>
<path d="M268.712 187.744C268.712 187.744 270.327 182.899 271.647 184.666C272.968 186.432 272.673 191.259 271.059 192.579C269.444 193.9 268.132 190.054 268.712 187.744Z" fill="white" stroke="#263238" stroke-linecap="round" stroke-linejoin="round"/>
<path d="M259.336 208.415C259.336 208.415 262.556 203.428 266.375 202.108C270.193 200.787 282.933 200.493 284.985 200.645C287.037 200.796 288.509 205.623 288.509 205.623L259.336 208.415Z" fill="#00DA49" stroke="#263238" stroke-linecap="round" stroke-linejoin="round"/>
<path d="M248.808 230.843C249.54 235.83 250.272 243.333 250.272 243.333L244.116 224.714" stroke="#263238" stroke-linecap="round" stroke-linejoin="round"/>
<path d="M250.245 243.307C250.245 243.307 241.011 242.567 238.37 241.692" stroke="#263238" stroke-linecap="round" stroke-linejoin="round"/>
<path d="M250.682 246.09C250.682 246.09 253.358 258.99 258.015 263.977" stroke="#263238" stroke-linecap="round" stroke-linejoin="round"/>
<path d="M250.102 249.899C250.102 249.899 250.682 262.8 252.734 265.441" stroke="#263238" stroke-linecap="round" stroke-linejoin="round"/>
<path d="M238.513 230.111C238.513 230.111 235.881 230.111 235.435 231.137C234.989 232.163 236.755 234.652 236.755 234.652L238.513 230.111Z" fill="white" stroke="#263238" stroke-linecap="round" stroke-linejoin="round"/>
<path d="M235.426 232.601C235.426 232.601 232.5 233.627 233.642 234.947C234.248 235.685 234.998 236.292 235.845 236.731L236.738 234.679L235.426 232.601Z" fill="white" stroke="#263238" stroke-linecap="round" stroke-linejoin="round"/>
<path d="M233.642 234.947C233.642 234.947 232.75 236.687 233.178 237.213C233.881 237.759 234.667 238.187 235.506 238.48L235.845 236.696L233.642 234.947Z" fill="white" stroke="#263238" stroke-linecap="round" stroke-linejoin="round"/>
<path d="M233.347 237.678C233.2 237.888 233.1 238.128 233.054 238.38C233.008 238.633 233.017 238.892 233.08 239.141C233.347 239.872 234.811 240.408 234.811 240.408L235.542 238.481L233.347 237.678Z" stroke="#263238" stroke-linecap="round" stroke-linejoin="round"/>
<path d="M213.881 203.437C213.881 203.437 213.488 197.879 212.694 199.208C211.9 200.538 212.56 205.159 212.56 205.159C212.56 205.159 209.652 200.261 209.259 201.715C208.867 203.169 210.714 206.114 210.714 206.114C210.714 206.114 207.404 203.865 207.404 204.927C207.404 205.989 208.992 208.362 208.992 208.362L208.332 209.557C208.332 209.557 209.92 210.351 210.714 209.816C211.508 209.281 213.488 205.98 213.488 205.98L213.881 203.437Z" fill="white" stroke="#263238" stroke-linecap="round" stroke-linejoin="round"/>
<path d="M142.741 220.79L123.435 221.977L124.889 251.337L144.588 249.348L142.741 220.79Z" fill="#0063FF" stroke="#263238" stroke-linecap="round" stroke-linejoin="round"/>
<path d="M128.368 221.182C128.368 221.182 129.029 219.335 129.823 219.335C130.617 219.335 132.071 223.43 131.143 223.43C130.215 223.43 129.689 221.583 129.689 221.583L128.368 221.182Z" fill="white" stroke="#263238" stroke-linecap="round" stroke-linejoin="round"/>
<path d="M130.84 219.728C130.84 219.728 132.16 218.14 132.82 218.836C133.48 219.531 134.141 223.6 133.347 223.466C132.553 223.332 132.026 221.485 132.026 221.485L130.84 219.728Z" fill="white" stroke="#263238" stroke-linecap="round" stroke-linejoin="round"/>
<path d="M132.829 218.8C132.829 218.8 134.417 217.908 134.943 219.201C135.47 220.495 135.345 222.77 134.81 223.038C134.274 223.305 133.918 222.243 133.918 222.243C133.652 221.067 133.288 219.915 132.829 218.8Z" fill="white" stroke="#263238" stroke-linecap="round" stroke-linejoin="round"/>
<path d="M134.935 219.201C134.935 219.201 136.656 218.006 136.79 219.201C137.006 220.316 136.865 221.471 136.389 222.502C136.227 222.761 135.98 222.956 135.691 223.054C135.401 223.152 135.087 223.146 134.801 223.037C134.801 223.037 135.336 220.254 134.935 219.201Z" fill="white" stroke="#263238" stroke-linecap="round" stroke-linejoin="round"/>
<path d="M136.523 259.535C136.523 259.535 130.822 274.015 130.822 284.381C130.822 294.748 141.528 321.192 142.054 323.27C142.58 325.349 139.636 334.868 140.332 340.034C141.028 345.199 143.437 365.433 143.615 366.646C143.794 367.86 142.018 391.154 142.018 393.411C142.018 395.668 143.74 396.177 145.123 396.346C146.506 396.516 149.271 396.346 150.137 395.829C151.002 395.311 152.207 394.446 152.207 394.446C152.549 393.443 152.727 392.392 152.733 391.332C152.902 388.914 152.733 381.519 152.733 380.626C152.733 379.734 154.633 354.531 154.633 354.531C154.633 354.531 155.347 379.672 154.981 386.648C154.937 387.541 152.483 396.016 154.901 396.881C157.319 397.747 163.876 396.328 165.946 396.141C169.184 395.846 173.823 393.384 173.127 392.697C172.197 391.456 170.846 390.596 169.327 390.279C167.926 389.851 163.813 387.264 163.296 385.542C162.779 383.82 163.153 377.424 163.153 376.558C163.153 375.693 168.462 358.305 169.157 355.147C170.243 348.353 170.934 341.501 171.227 334.627C171.406 328.757 171.058 325.126 171.406 323.029C171.754 320.933 179.872 306.266 179.694 293.133C179.515 280.001 175.545 261.159 175.545 261.159L136.523 259.535Z" fill="white" stroke="#263238" stroke-linecap="round" stroke-linejoin="round"/>
<path d="M152.804 388.808C151.865 389.808 150.6 390.44 149.236 390.592C146.872 390.718 144.506 390.416 142.25 389.7C142.134 391.573 142.063 392.938 142.063 393.402C142.063 395.65 143.785 396.168 145.168 396.337C146.55 396.507 149.316 396.337 150.181 395.82C151.047 395.302 152.251 394.437 152.251 394.437C152.594 393.434 152.771 392.383 152.778 391.323C152.769 390.735 152.795 389.834 152.804 388.808Z" fill="white" stroke="#263238" stroke-linecap="round" stroke-linejoin="round"/>
<path d="M173.163 392.742C172.232 391.501 170.881 390.641 169.363 390.324C168.207 389.873 167.115 389.273 166.115 388.54L166.57 390.913C166.57 390.913 158.684 392.403 154.285 390.422C153.795 393.144 153.482 396.427 154.936 396.953C157.354 397.845 163.912 396.4 165.981 396.212C169.22 395.891 173.868 393.465 173.163 392.742Z" fill="white" stroke="#263238" stroke-linecap="round" stroke-linejoin="round"/>
<path d="M147.103 211.003C147.103 211.003 134.274 215.232 134.141 216.552C134.007 217.872 124.621 246.573 124.095 247.777C123.569 248.982 123.435 249.901 125.148 251.221C126.861 252.541 128.716 255.976 131.5 255.316C134.283 254.656 136.389 252.015 136.924 251.087C137.399 250.229 137.702 249.287 137.816 248.312C138.126 246.563 138.546 244.835 139.074 243.138C139.333 242.603 139.467 248.428 138.806 250.935C138.146 253.442 135.63 258.34 136.558 259.536C137.473 260.47 138.549 261.232 139.734 261.784C139.734 261.784 144.623 264.032 156.792 264.032C168.961 264.032 174.51 263.765 175.572 262.971C176.634 262.176 176.464 260.588 176.625 259.268C176.785 257.948 175.304 249.454 175.438 248.821C175.572 248.188 176.5 242.737 176.5 242.737C176.5 242.737 186.153 253.442 189.721 253.184C190.699 253.157 191.653 252.874 192.487 252.364C193.321 251.854 194.007 251.133 194.477 250.275L208.233 214.438C208.233 214.438 210.482 212.85 211.41 212.056C212.337 211.262 214.978 205.971 215.371 204.392C215.745 202.785 215.791 201.119 215.504 199.494C215.246 198.308 214.452 200.154 214.318 201.216C214.184 202.278 213.916 203.464 213.916 203.464C213.916 203.464 211.802 207.693 211.41 208.094C210.437 208.661 209.419 209.148 208.367 209.549C208.367 209.549 211.142 205.846 211.276 204.918C211.409 203.991 212.07 202.242 210.749 203.464C209.544 204.758 208.48 206.175 207.573 207.693C207.573 207.693 203.737 210.209 203.603 211.262C203.469 212.314 202.711 214.964 202.711 215.365C202.711 215.767 189.891 236.393 189.891 236.393L185.519 229.908C185.519 229.908 182.745 219.202 180.238 217.748C177.731 216.293 172.958 215.499 172.958 215.499C172.958 215.499 163.305 209.807 158.808 208.888C154.312 207.97 147.103 211.003 147.103 211.003Z" fill="white" stroke="#263238" stroke-linecap="round" stroke-linejoin="round"/>
<path d="M139.038 243.138L136.389 226.339" stroke="#263238" stroke-linecap="round" stroke-linejoin="round"/>
<path d="M175.206 181.544C176.045 182.825 176.528 184.306 176.607 185.835C176.848 188.628 176.411 191.447 176.848 192.161C177.285 192.875 179.676 193.811 179.274 194.989C178.873 196.167 176.955 197.291 176.955 197.291C176.955 197.291 176.83 202.644 175.786 203.946C174.742 205.249 169.541 204.16 169.541 204.16L167.819 210.468L153.982 206.114C153.982 206.114 155.766 205.472 154.499 201.154C154.02 199.203 153.31 197.316 152.385 195.533C152.385 195.533 151.769 188.218 160.736 183.552C169.702 178.886 175.206 181.544 175.206 181.544Z" fill="white" stroke="#263238" stroke-linecap="round" stroke-linejoin="round"/>
<path d="M175.17 190.76C175.313 191.652 175.17 192.428 174.84 192.482C174.51 192.536 174.136 191.849 173.948 190.948C173.761 190.046 173.948 189.27 174.269 189.217C174.591 189.163 175.019 189.859 175.17 190.76Z" fill="#263238"/>
<path d="M172.235 188.074C172.235 188.074 173.779 185.951 175.197 187.378" stroke="#263238" stroke-linecap="round" stroke-linejoin="round"/>
<path d="M175.59 198.423C175.085 198.463 174.579 198.381 174.113 198.184C173.647 197.987 173.236 197.68 172.913 197.29" stroke="#263238" stroke-linecap="round" stroke-linejoin="round"/>
<path d="M170.299 185.666C170.299 185.666 168.194 190.635 166.731 191.509C166.001 191.976 165.234 192.382 164.438 192.723C163.037 195.187 161.416 197.519 159.594 199.69C157.31 202.126 157.47 201.68 155.873 201.234C154.276 200.788 150.244 198.602 147.541 193.392C144.837 188.182 145.319 180.241 151.368 175.941C157.417 171.641 168.247 171.481 171.673 172.185C175.099 172.89 178.989 175.647 178.463 178.618C177.936 181.589 173.511 184.791 170.299 185.666Z" fill="#263238" stroke="#263238" stroke-linecap="round" stroke-linejoin="round"/>
<path d="M166.481 194.293C166.481 194.293 163.805 189.207 162.422 191.973C161.039 194.739 163.26 199.11 165.098 198.406" fill="white"/>
<path d="M166.481 194.293C166.481 194.293 163.805 189.207 162.422 191.973C161.039 194.739 163.26 199.11 165.098 198.406" stroke="#263238" stroke-linecap="round" stroke-linejoin="round"/>
<path d="M152.103 189.334C152.697 184.369 149.828 179.942 145.694 179.447C141.56 178.952 137.727 182.576 137.132 187.541C136.538 192.507 139.407 196.934 143.541 197.429C147.675 197.924 151.508 194.3 152.103 189.334Z" fill="#263238" stroke="#263238" stroke-linecap="round" stroke-linejoin="round"/>
<path d="M147.104 211.003C147.104 211.003 149.218 206.899 150.404 206.239C151.591 205.579 156.757 204.919 162.181 206.239C167.605 207.559 171.432 211.529 171.994 213.117C172.242 213.929 172.54 214.725 172.887 215.499C172.887 215.499 160.459 210.735 156.364 210.209C152.269 209.683 147.104 211.003 147.104 211.003Z" fill="white" stroke="#263238" stroke-linecap="round" stroke-linejoin="round"/>
<path d="M178.177 225.679L176.464 242.737L179.899 233.217" stroke="#263238" stroke-linecap="round" stroke-linejoin="round"/>
<path d="M189.82 236.394L192.728 240.23" stroke="#263238" stroke-linecap="round" stroke-linejoin="round"/>
<path d="M214.282 201.216C214.148 202.269 213.881 203.464 213.881 203.464C213.881 203.464 211.766 207.693 211.374 208.094C210.401 208.661 209.384 209.148 208.332 209.549C208.332 209.549 211.106 205.846 211.24 204.918C211.374 203.991 212.034 202.242 210.714 203.464C209.509 204.758 208.444 206.175 207.538 207.693C207.538 207.693 203.701 210.209 203.568 211.262C203.434 212.314 202.675 214.964 202.675 215.365C202.675 215.606 197.938 223.332 194.218 229.345L201.355 232.397L208.251 214.438C208.251 214.438 210.5 212.85 211.427 212.056C212.355 211.262 214.996 205.971 215.389 204.392C215.763 202.785 215.809 201.119 215.522 199.494C215.21 198.308 214.416 200.154 214.282 201.216Z" fill="white" stroke="#263238" stroke-linecap="round" stroke-linejoin="round"/>
<path d="M179.729 293.196C179.56 280.063 175.581 261.221 175.581 261.221L136.523 259.535C136.523 259.535 130.822 274.015 130.822 284.381C130.822 294.748 141.528 321.192 142.054 323.27C142.58 325.349 139.636 334.868 140.332 340.034C140.805 343.602 142.116 354.174 142.901 360.892C146.559 361.856 150.352 362.206 154.125 361.927C154.428 357.761 154.678 354.549 154.678 354.549C154.678 354.549 154.678 357.689 154.758 361.998C158.653 363.573 162.926 363.967 167.043 363.131C168.087 359.411 168.952 356.28 169.193 355.227C170.279 348.433 170.97 341.582 171.263 334.708C171.441 328.837 171.093 325.206 171.441 323.11C171.789 321.013 179.908 306.328 179.729 293.196Z" fill="#263238" stroke="#263238" stroke-linecap="round" stroke-linejoin="round"/>
<path d="M148.442 289.682L154.357 291.582C154.357 291.582 157.033 325.127 156.828 327.607C156.623 330.087 152.519 343.567 154.669 354.55" stroke="white" stroke-linecap="round" stroke-linejoin="round"/>
</svg>
