<svg width="400" height="381" viewBox="0 0 400 381" fill="none" xmlns="http://www.w3.org/2000/svg">
<path opacity="0.2" d="M376.877 232.306H341.949V246.443H376.877V232.306Z" fill="black"/>
<path opacity="0.2" d="M263.263 118.167H228.335V132.304H263.263V118.167Z" fill="black"/>
<path opacity="0.2" d="M241.749 139.521H206.822V153.659H241.749V139.521Z" fill="black"/>
<path opacity="0.2" d="M265.408 45.6816H230.481V59.8189H265.408V45.6816Z" fill="black"/>
<path opacity="0.2" d="M237.167 217.135H202.239V231.272H237.167V217.135Z" fill="black"/>
<path opacity="0.2" d="M168.31 90.8994H133.383V105.037H168.31V90.8994Z" fill="black"/>
<path opacity="0.2" d="M206.564 90.8994H171.637V105.037H206.564V90.8994Z" fill="black"/>
<path opacity="0.2" d="M177.292 321.678H142.364V335.815H177.292V321.678Z" fill="black"/>
<path opacity="0.2" d="M158.996 339.142H124.069V353.279H158.996V339.142Z" fill="black"/>
<path opacity="0.1" d="M222.622 159.067H187.695V173.205H222.622V159.067Z" fill="black"/>
<path opacity="0.1" d="M170.955 55.7285H136.028V69.8658H170.955V55.7285Z" fill="black"/>
<path opacity="0.1" d="M396.835 266.2H361.907V280.337H396.835V266.2Z" fill="black"/>
<path opacity="0.1" d="M192.26 287.817H157.333V301.955H192.26V287.817Z" fill="black"/>
<path opacity="0.1" d="M232.177 287.817H197.25V301.955H232.177V287.817Z" fill="black"/>
<path opacity="0.1" d="M235.504 267.859H200.576V281.997H235.504V267.859Z" fill="black"/>
<path opacity="0.1" d="M262.539 159.067H227.612V173.205H262.539V159.067Z" fill="black"/>
<path opacity="0.2" d="M280.41 337.717H245.483V351.854H280.41V337.717Z" fill="black"/>
<path opacity="0.1" d="M261.283 357.262H226.356V371.399H261.283V357.262Z" fill="black"/>
<path opacity="0.1" d="M301.2 357.262H266.273V371.399H301.2V357.262Z" fill="black"/>
<path opacity="0.2" d="M111.087 161.761H76.1596V175.898H111.087V161.761Z" fill="black"/>
<path opacity="0.1" d="M91.9609 181.298H57.0335V195.435H91.9609V181.298Z" fill="black"/>
<path opacity="0.1" d="M131.878 181.298H96.9506V195.435H131.878V181.298Z" fill="black"/>
<path opacity="0.2" d="M97.4575 267.033H62.5302V281.17H97.4575V267.033Z" fill="black"/>
<path opacity="0.1" d="M252.136 199.428H217.209V213.565H252.136V199.428Z" fill="black"/>
<path opacity="0.1" d="M199.745 338.308H164.817V352.445H199.745V338.308Z" fill="black"/>
<path opacity="0.1" d="M188.269 73.4355H153.341V87.5728H188.269V73.4355Z" fill="black"/>
<path opacity="0.2" d="M77.4986 220.22H42.5713V234.357H77.4986V220.22Z" fill="black"/>
<path opacity="0.1" d="M97.4575 202.756H62.5302V216.893H97.4575V202.756Z" fill="black"/>
<path opacity="0.1" d="M186.439 117.758H151.511V131.895H186.439V117.758Z" fill="black"/>
<path opacity="0.1" d="M135.52 126.058H100.593V140.195H135.52V126.058Z" fill="black"/>
<path opacity="0.2" d="M307.853 232.306H272.926V246.443H307.853V232.306Z" fill="black"/>
<path opacity="0.2" d="M52.9913 310.5H18.0639V324.637H52.9913V310.5Z" fill="black"/>
<path opacity="0.1" d="M37.9064 111.862H2.97903V126H37.9064V111.862Z" fill="black"/>
<path opacity="0.1" d="M77.8233 111.862H42.8959V126H77.8233V111.862Z" fill="black"/>
<path opacity="0.1" d="M81.15 91.9043H46.2226V106.042H81.15V91.9043Z" fill="black"/>
<path opacity="0.1" d="M55.0458 148.703H20.1185V162.84H55.0458V148.703Z" fill="black"/>
<path opacity="0.2" d="M100.393 325.05H65.466V339.187H100.393V325.05Z" fill="black"/>
<g opacity="0.3">
<path d="M264.858 3.98145V203.425H390.431V3.98145H264.858ZM385.832 51.8901H330.489V11.2413H385.832V51.8901ZM330.489 106.069H385.832V149.62H330.489V106.069ZM330.489 100.755V57.2041H385.832V100.755H330.489ZM269.424 11.2413H324.767V51.8901H269.707V57.2041H324.767V100.755H269.707V106.069H324.767V149.62H269.707V154.918H324.767V196.165H269.424V11.2413ZM330.489 196.165V154.918H385.832V196.165H330.489Z" stroke="black" stroke-linecap="round" stroke-linejoin="round"/>
<path d="M316.834 23.3906L288.917 46.5009" stroke="black" stroke-linecap="round" stroke-linejoin="round"/>
<path d="M372.194 68.6406L344.269 91.7509" stroke="black" stroke-linecap="round" stroke-linejoin="round"/>
<path d="M309.133 166.359L281.216 189.461" stroke="black" stroke-linecap="round" stroke-linejoin="round"/>
<path d="M302.189 30.1348L289.399 40.7211" stroke="black" stroke-linecap="round" stroke-linejoin="round"/>
<path d="M370.065 63.3486L357.266 73.935" stroke="black" stroke-linecap="round" stroke-linejoin="round"/>
<path d="M307.487 173.576L294.688 184.171" stroke="black" stroke-linecap="round" stroke-linejoin="round"/>
<path d="M303.637 122.555L290.838 133.149" stroke="black" stroke-linecap="round" stroke-linejoin="round"/>
<path d="M369.101 167.32L356.302 177.907" stroke="black" stroke-linecap="round" stroke-linejoin="round"/>
<path d="M398.182 203.295H257.624V220.759H398.182V203.295Z" stroke="black" stroke-linecap="round" stroke-linejoin="round"/>
</g>
<g opacity="0.3">
<path d="M58.2391 80.7211L58.7547 75.6982H25.4656L25.9812 80.7211H58.2391Z" stroke="black" stroke-linecap="round" stroke-linejoin="round"/>
<path d="M56.8753 93.9362H27.3451L23.6527 58.2021H60.5593L56.8753 93.9362Z" stroke="black" stroke-linecap="round" stroke-linejoin="round"/>
<path d="M29.6818 57.9436C26.3458 57.2871 23.2337 55.7869 20.6423 53.586C16.2847 49.902 8.584 48.8958 5.89792 50.9083C4.02029 52.3628 2.23188 53.9291 0.542389 55.5985C0.542389 55.5985 2.55487 48.2305 7.9104 46.5507C13.2659 44.8708 16.6173 46.5507 19.636 47.8895C22.6547 49.2284 23.9936 50.2347 27.345 52.2471C29.2128 53.3596 31.0022 54.5989 32.7005 55.9561C32.7005 55.9561 31.6943 51.6068 29.6818 49.5943C27.6693 47.5818 15.6194 38.85 15.6194 38.85C19.3909 39.7981 23.0854 41.0296 26.6714 42.534C31.029 44.5465 34.372 48.2305 34.713 49.902C35.1403 51.5076 35.6965 53.0761 36.3762 54.5923L37.7151 57.9187C37.7151 57.9187 37.3824 52.9291 37.0498 49.2118C36.7172 45.4945 36.0436 43.1743 36.3762 39.4903C36.7088 35.8063 37.3824 33.4612 37.3824 31.457C37.4556 30.0682 37.8062 28.7081 38.4136 27.457C38.4136 27.457 39.7359 36.8292 40.4095 39.8562C41.0831 42.8833 41.0748 46.8916 41.4074 48.8958C41.74 50.8999 42.7546 56.9374 42.7546 56.9374C42.7546 56.9374 42.081 51.9478 44.0935 49.2367C46.106 46.5257 46.7713 44.5465 48.1101 42.534C49.449 40.5215 51.1289 37.1702 51.1289 37.1702C51.1289 37.1702 51.1289 42.534 49.7817 45.8854C48.4345 49.2367 47.4365 50.875 47.4365 52.2471V56.9374C47.4365 56.9374 50.763 50.9083 52.8004 49.2367C54.8378 47.5652 56.1268 47.5735 56.817 46.5507C57.5073 45.5278 61.5073 43.2242 61.5073 43.2242C61.5073 43.2242 59.2037 48.5631 58.4969 49.5694C57.2422 50.9927 55.8978 52.3343 54.4719 53.586C56.8568 52.4102 59.3217 51.4042 61.8482 50.5756C65.1746 49.5694 70.2225 48.5631 72.2267 48.5631C74.2308 48.5631 80.9419 47.5569 80.9419 47.5569C80.9419 47.5569 74.9127 50.2347 71.2287 51.5819C67.5447 52.9291 65.1913 53.586 63.8524 53.927L62.5301 54.2929C65.7208 54.7928 68.8601 55.5776 71.9106 56.638C76.6009 58.3012 77.9398 59.6484 78.6134 60.6547C79.0856 61.4896 79.4251 62.393 79.6196 63.3324C79.6196 63.3324 81.6238 64.9956 81.6238 66.3511C81.6238 67.7067 72.5676 59.9561 69.183 58.9499C65.7984 57.9436 60.526 58.2014 60.526 58.2014" stroke="black" stroke-linecap="round" stroke-linejoin="round"/>
</g>
<g opacity="0.3">
<path d="M79.1959 106.019L78.8466 102.618H101.408L101.05 106.019H79.1959Z" stroke="black" stroke-linecap="round" stroke-linejoin="round"/>
<path d="M80.1269 114.974H100.127L102.63 90.7578H77.6238L80.1269 114.974Z" stroke="black" stroke-linecap="round" stroke-linejoin="round"/>
<path d="M98.5471 90.5843C100.808 90.1466 102.917 89.1293 104.668 87.6321C107.62 85.1373 112.842 84.4554 114.647 85.8192C115.922 86.8033 117.135 87.8642 118.281 88.9959C118.281 88.9959 116.917 84.0063 113.291 82.867C109.666 81.7277 107.387 82.867 105.341 83.7735C103.535 84.6327 101.793 85.6192 100.127 86.7257C98.8603 87.4734 97.6461 88.3069 96.4931 89.2205C96.4931 89.2205 97.175 86.2766 98.5388 84.9128C99.9026 83.5489 108.069 77.6445 108.069 77.6445C105.515 78.288 103.014 79.1219 100.585 80.1394C97.6324 81.4949 95.3621 83.998 95.1375 85.129C94.8472 86.2168 94.469 87.2792 94.0066 88.3057L93.0918 90.576C93.0918 90.576 93.3247 87.1747 93.5492 84.6716C93.7737 82.1685 94.2311 80.5884 94.0066 78.0936C93.782 75.5988 93.3246 74.0104 93.3246 72.6466C93.2827 71.7008 93.0508 70.7732 92.6427 69.9189C92.6427 69.9189 91.7363 76.2807 91.2789 78.3181C90.8215 80.3556 90.8298 83.0832 90.597 84.4471C90.3641 85.8109 89.6905 89.8941 89.6905 89.8941C89.6905 89.8941 90.1479 86.4928 88.7841 84.6716C87.4203 82.8504 86.9712 81.4949 86.0564 80.1394C85.1417 78.7838 84.019 76.5052 84.019 76.5052C84.0203 78.5079 84.326 80.4988 84.9255 82.4096C85.8319 84.6716 86.5138 85.8109 86.5138 86.7173V89.8941C86.5138 89.8941 84.2435 85.8109 82.8797 84.6716C81.5159 83.5323 80.6094 83.5406 80.1604 82.8587C79.7113 82.1768 76.9836 80.5884 76.9836 80.5884C76.9836 80.5884 78.572 84.2225 79.0211 84.9044C79.8715 85.868 80.7825 86.7763 81.7487 87.6238C80.1352 86.8289 78.4679 86.148 76.7591 85.5864C74.4653 84.8885 72.1044 84.4342 69.7154 84.2308C68.3516 84.2308 63.8194 83.5489 63.8194 83.5489C63.8194 83.5489 67.9025 85.3618 70.3973 86.2766C72.8921 87.1914 74.4805 87.6321 75.387 87.865L76.2934 88.0895C74.1296 88.4278 72.0005 88.9594 69.9316 89.6779C66.7549 90.8088 65.8485 91.7236 65.3994 92.3972C65.0757 92.9637 64.8454 93.5786 64.7175 94.2184C64.7175 94.2184 63.362 95.3494 63.362 96.2558C63.362 97.1623 69.4909 91.9481 71.7612 91.2662C73.6837 90.834 75.6558 90.6634 77.624 90.7589" stroke="black" stroke-linecap="round" stroke-linejoin="round"/>
</g>
<g opacity="0.3">
<path d="M122.63 48.7337L123.029 44.8252H97.1578L97.557 48.7337H122.63Z" stroke="black" stroke-linecap="round" stroke-linejoin="round"/>
<path d="M121.566 59.0031H98.6216L95.7526 31.2275H124.435L121.566 59.0031Z" stroke="black" stroke-linecap="round" stroke-linejoin="round"/>
<path d="M95.7941 31.2288C95.7941 31.2288 92.6008 28.0937 90.7463 27.2953C88.8918 26.497 85.3907 25.1914 85.3907 25.1914C85.3907 25.1914 89.6402 25.1914 92.5592 26.5219C94.5604 27.4685 96.5042 28.532 98.3804 29.707C98.3804 29.707 95.7193 25.9897 93.5987 23.3369C91.4781 20.6841 86.688 16.1601 86.4303 14.8379C86.1725 13.5156 92.8003 19.3535 97.3159 22.8047C101.832 26.2558 102.63 28.6259 102.63 28.6259C102.63 28.6259 99.1787 22.2475 96.5176 16.6674C94.9194 13.2025 92.9687 9.91144 90.6964 6.84618C89.8648 5.78172 98.397 15.6113 101.316 20.393C104.235 25.1747 106.098 28.0937 106.098 28.0937C106.098 28.0937 102.913 12.1518 102.38 8.43454L101.316 1C101.316 1 106.364 15.6113 107.137 18.2641C107.911 20.9169 109.258 25.6986 109.258 25.6986C109.258 25.6986 110.854 17.998 111.387 13.2246C111.919 8.45117 114.306 1.58212 114.306 1.58212C114.306 1.58212 113.258 16.4013 113.017 20.1269L112.484 27.5614C112.484 27.5614 115.137 20.6508 117.532 17.4658C119.609 14.8647 121.83 12.3826 124.185 10.0312C124.185 10.0312 119.653 18.5385 118.588 21.183C117.524 23.8275 116.202 28.6675 116.202 28.6675C116.202 28.6675 121.516 20.4346 123.902 17.7735C125.92 15.6587 128.251 13.8665 130.813 12.4595C132.934 11.1373 124.16 21.7568 123.104 24.1519C122.41 25.6905 121.621 27.1847 120.742 28.6259C120.742 28.6259 122.339 26.497 126.563 24.9003C130.707 23.4526 134.974 22.3864 139.312 21.7153C140.376 21.7153 132.659 24.9003 130.015 25.9647C127.37 27.0292 124.435 31.2288 124.435 31.2288" stroke="black" stroke-linecap="round" stroke-linejoin="round"/>
</g>
<path d="M314.068 131.318C317.097 119.023 306.415 105.819 290.209 101.827C274.003 97.8343 258.41 104.565 255.381 116.859C252.352 129.154 263.034 142.358 279.24 146.35C295.446 150.343 311.039 143.612 314.068 131.318Z" fill="#FF6300" stroke="#263238" stroke-linecap="round" stroke-linejoin="round"/>
<path d="M267.637 134.013C267.637 134.013 261.641 135.676 258.913 132.35C256.186 129.023 260.277 119.535 264.776 115.169C269.275 110.803 281.957 108.899 288.502 109.58C295.046 110.262 302.814 115.169 303.911 120.391C305.009 125.614 302.814 130.62 302.68 132.25C302.547 133.88 298.722 133.913 298.182 133.082C297.641 132.25 289.458 120.267 287.82 119.718C286.181 119.169 285.092 120.267 283.321 121.215C281.549 122.163 268.053 127.867 268.053 127.867L267.637 134.013Z" fill="#263238" stroke="#263238" stroke-linecap="round" stroke-linejoin="round"/>
<path d="M287.496 270.853L284.801 253.348L278.614 274.62C276.978 277.289 275.611 280.114 274.531 283.053C272.992 287.926 280.751 303.277 281.259 301.656C281.766 300.034 284.693 279.202 284.693 279.202C285.001 277.088 285.101 274.949 284.992 272.816L287.496 270.853Z" fill="white" stroke="#263238" stroke-linecap="round" stroke-linejoin="round"/>
<path d="M283.903 283.235C283.903 283.235 278.298 285.148 278.298 297.048C278.298 300.291 282.922 334.379 282.922 340.083V363.734H313.891L317.708 341.281L320.577 363.26H351.637C351.637 363.26 354.739 328.624 354.964 324.324C355.188 320.025 357.351 310.703 356.627 297.805C355.904 284.906 353.043 279.884 353.043 279.884L284.569 278.678L283.903 283.235Z" fill="#263238" stroke="#263238" stroke-linecap="round" stroke-linejoin="round"/>
<path d="M289.65 163.37C289.65 163.37 275.055 175.844 271.895 179.212C268.735 182.58 269.974 202.214 274.166 215.628C278.357 229.042 282.814 249.79 283.022 253.981C283.23 258.173 283.904 283.237 283.904 283.237C283.904 283.237 309.949 293.516 325.883 290.996C335.427 289.501 344.644 286.382 353.135 281.774C353.135 281.774 350.64 238.796 350.64 229.382C350.64 219.969 348.544 188.717 346.482 177.823C344.419 166.929 337.051 160.426 331.596 159.794C326.141 159.162 305.7 158.247 305.7 158.247L289.65 163.37Z" fill="white" stroke="#263238" stroke-linecap="round" stroke-linejoin="round"/>
<path d="M282.282 160.426C282.282 160.426 288.868 178.904 289.966 179.087C291.064 179.27 293.991 176.343 293.991 176.343L305.7 158.247L301.043 141.523C301.043 141.523 298.382 150.372 293.259 156.043C288.137 161.715 282.282 160.426 282.282 160.426Z" fill="white" stroke="#263238" stroke-linecap="round" stroke-linejoin="round"/>
<path d="M295.006 156.808L286.365 170.18L282.282 160.425L295.006 156.808Z" fill="#263238" stroke="#263238" stroke-linecap="round" stroke-linejoin="round"/>
<path d="M287.413 114.646C287.413 114.646 279.928 120.651 273.916 122.829C267.903 125.008 264.909 125.815 264.909 125.815C264.909 125.815 266.822 137.948 267.404 141.358C267.986 144.767 269.176 150.505 271.629 152.95C274.082 155.395 280.078 161.266 282.806 162.763C285.533 164.26 290.174 163.037 291.537 162.356C292.901 161.674 300.801 149.674 301.217 148.035C301.633 146.397 301.076 141.491 301.076 141.491C301.076 141.491 304.619 139.586 305.167 137.674C305.716 135.761 304.486 128.676 303.396 127.694C302.307 126.713 300.535 127.836 300.261 128.925C299.974 129.863 299.609 130.775 299.172 131.653C299.085 130.038 298.666 128.458 297.941 127.012C296.851 125.241 296.851 124.518 294.257 122.513C291.662 120.509 287.413 114.646 287.413 114.646Z" fill="white" stroke="#263238" stroke-linecap="round" stroke-linejoin="round"/>
<path d="M278.273 141.506L278.681 145.19C278.681 145.19 283.18 145.057 285.226 142.87" stroke="#263238" stroke-linecap="round" stroke-linejoin="round"/>
<path d="M276.253 149.008C276.253 149.008 279.529 150.097 284.569 148.601C289.608 147.104 290.847 143.553 290.847 143.553" stroke="#263238" stroke-linecap="round" stroke-linejoin="round"/>
<path d="M275.271 132.374C275.271 132.374 269.409 130.462 267.637 134.037" stroke="#263238" stroke-linecap="round" stroke-linejoin="round"/>
<path d="M281.242 130.196C281.242 130.196 285.192 126.238 289.284 127.702" stroke="#263238" stroke-linecap="round" stroke-linejoin="round"/>
<path d="M274.664 137.615C275.055 138.671 274.939 139.694 274.406 139.885C273.874 140.077 273.134 139.378 272.743 138.314C272.352 137.249 272.477 136.235 273.009 136.043C273.541 135.852 274.282 136.551 274.664 137.615Z" fill="#263238"/>
<path d="M287.355 133.713C287.745 134.778 287.629 135.792 287.097 135.992C286.565 136.191 285.824 135.476 285.434 134.42C285.043 133.364 285.159 132.341 285.691 132.15C286.224 131.958 286.964 132.657 287.355 133.713Z" fill="#263238"/>
<path d="M318.332 182.828L330.307 225.606C329.973 226.682 329.902 227.823 330.099 228.932C330.349 229.688 330.557 230.457 330.722 231.236C330.722 231.236 327.396 248.009 324.435 258.28C321.475 268.55 311.022 290.978 311.438 293.498C311.853 296.018 309.342 314.879 310.606 315.718C311.87 316.558 314.805 317.814 315.637 317.814C316.469 317.814 320.253 318.23 321.508 318.23C322.764 318.23 327.379 318.022 328.219 316.342C329.059 314.662 328.851 313.623 327.587 314.039C326.498 314.342 325.385 314.553 324.261 314.671L323.429 313.007C323.429 313.007 324.477 305.673 323.429 300.217C322.381 294.762 321.966 292.883 321.966 292.883C321.966 292.883 348.169 250.329 349.217 242.363C350.265 234.396 351.937 225.589 351.937 221.573C351.937 217.556 347.779 181.747 346.49 177.764C345.201 173.78 344.602 169.797 341.25 166.446C337.899 163.094 335.587 163.119 333.907 163.119" fill="white"/>
<path d="M318.332 182.828L330.307 225.606C329.973 226.682 329.902 227.823 330.099 228.932C330.349 229.688 330.557 230.457 330.722 231.236C330.722 231.236 327.396 248.009 324.435 258.28C321.475 268.55 311.022 290.978 311.438 293.498C311.853 296.018 309.342 314.879 310.606 315.718C311.87 316.558 314.805 317.814 315.637 317.814C316.469 317.814 320.253 318.23 321.508 318.23C322.764 318.23 327.379 318.022 328.219 316.342C329.059 314.662 328.851 313.623 327.587 314.039C326.498 314.342 325.385 314.553 324.261 314.671L323.429 313.007C323.429 313.007 324.477 305.673 323.429 300.217C322.381 294.762 321.966 292.883 321.966 292.883C321.966 292.883 348.169 250.329 349.217 242.363C350.265 234.396 351.937 225.589 351.937 221.573C351.937 217.556 347.779 181.747 346.49 177.764C345.201 173.78 344.602 169.797 341.25 166.446C337.899 163.094 335.587 163.119 333.907 163.119" stroke="#263238" stroke-linecap="round" stroke-linejoin="round"/>
<path d="M332.385 230.105C332.385 230.105 338.539 227.543 343.795 229.855" stroke="#263238" stroke-linecap="round" stroke-linejoin="round"/>
<path d="M336.361 225.489C336.361 225.489 343.413 223.826 347.903 229.082" stroke="#263238" stroke-linecap="round" stroke-linejoin="round"/>
<path d="M326.39 250.729C325.741 253.399 325.068 256.01 324.411 258.297C321.475 268.567 310.997 290.996 311.413 293.516C311.829 296.035 309.317 314.896 310.581 315.736C311.845 316.576 314.781 317.832 315.612 317.832C316.444 317.832 320.228 318.247 321.483 318.247C322.739 318.247 327.355 318.04 328.194 316.36C329.034 314.68 328.827 313.64 327.562 314.056C326.473 314.359 325.361 314.571 324.236 314.688L323.404 313.025C323.404 313.025 324.452 305.69 323.404 300.235C322.357 294.78 321.941 292.9 321.941 292.9C321.941 292.9 334.465 272.434 342.565 257.208C337.342 251.802 330.756 250.729 326.39 250.729Z" fill="white" stroke="#263238" stroke-linecap="round" stroke-linejoin="round"/>
<path d="M319.089 314.363C319.089 314.363 321.168 316.126 321.891 316.683C322.615 317.241 322.848 317.806 324.203 317.964" fill="white"/>
<path d="M319.089 314.363C319.089 314.363 321.168 316.126 321.891 316.683C322.615 317.241 322.848 317.806 324.203 317.964" stroke="#263238" stroke-linecap="round" stroke-linejoin="round"/>
<path d="M315.013 315.419C315.013 315.419 318.132 317.739 320.044 318.221L315.013 315.419Z" fill="white"/>
<path d="M315.013 315.419C315.013 315.419 318.132 317.739 320.044 318.221" stroke="#263238" stroke-linecap="round" stroke-linejoin="round"/>
<path d="M311.579 314.921C312.397 316.003 313.431 316.904 314.615 317.565L311.579 314.921Z" fill="white"/>
<path d="M311.579 314.921C312.397 316.003 313.431 316.904 314.615 317.565" stroke="#263238" stroke-linecap="round" stroke-linejoin="round"/>
<path d="M283.82 278.072C283.82 278.072 284.585 283.702 284.885 284.617C285.184 285.532 284.735 287.203 285.043 290.696C285.35 294.189 286.257 297.848 283.978 297.241C281.7 296.634 280.652 290.696 280.777 289.174C280.901 287.652 278.19 283.095 278.19 283.095" fill="white"/>
<path d="M283.82 278.072C283.82 278.072 284.585 283.702 284.885 284.617C285.184 285.532 284.735 287.203 285.043 290.696C285.35 294.189 286.257 297.848 283.978 297.241C281.7 296.634 280.652 290.696 280.777 289.174C280.901 287.652 278.19 283.095 278.19 283.095" stroke="#263238" stroke-linecap="round" stroke-linejoin="round"/>
<path d="M239.513 247.224C237.384 243.149 221.575 187.107 221.575 187.107C218.598 195.265 216.694 235.49 216.694 235.49L218.423 256.821L218.116 260.821C222.274 257.985 232.369 252.397 239.097 259.839C239.197 259.449 239.28 259.116 239.321 258.858C240.195 253.461 241.642 251.274 239.513 247.224Z" fill="#00DA49" stroke="#263238" stroke-linecap="round" stroke-linejoin="round"/>
<path d="M234.414 252.592C235.479 252.766 236.518 253.07 237.508 253.498" stroke="#263238" stroke-linecap="round" stroke-linejoin="round"/>
<path d="M219.587 254.566C223.096 253.275 226.78 252.524 230.514 252.337" stroke="#263238" stroke-linecap="round" stroke-linejoin="round"/>
<path d="M236.469 250.347C236.469 250.347 231.812 247.52 228.07 248.634" stroke="#263238" stroke-linecap="round" stroke-linejoin="round"/>
<path d="M142.04 363.171L143.03 320.443L146.065 297.001L216.743 294.589L223.039 311.396L226.922 363.728H191.147L184.394 329.067L182.456 332.402L181.716 362.988L142.04 363.171Z" fill="#263238" stroke="#263238" stroke-linecap="round" stroke-linejoin="round"/>
<path d="M164.302 179.115C164.302 179.115 133.533 187.265 131.645 188.196C129.757 189.127 133.907 217.111 136.818 227.281C139.728 237.452 146.797 274.916 146.797 274.916L146.323 301.976C146.323 301.976 176.518 302.725 188.602 301.236C197.108 300.09 205.547 298.491 213.882 296.446C213.882 296.446 218.165 272.529 216.693 256.778C215.221 241.028 219.512 201.893 219.571 199.315C219.629 196.737 221.541 187.082 221.541 187.082C221.541 187.082 198.539 180.038 192.627 179.298C183.21 178.391 173.73 178.329 164.302 179.115Z" fill="#0063FF" stroke="#263238" stroke-linecap="round" stroke-linejoin="round"/>
<path d="M158.506 186.021C158.506 186.021 162.34 196.59 171.396 202.902" stroke="#263238" stroke-linecap="round" stroke-linejoin="round"/>
<path d="M190.257 184.15C189.033 187.091 187.599 189.94 185.966 192.674" stroke="#263238" stroke-linecap="round" stroke-linejoin="round"/>
<path d="M185.4 194.883L183.812 197.103" stroke="#263238" stroke-linecap="round" stroke-linejoin="round"/>
<path d="M174.315 298.989C181.467 298.565 194.581 297.418 203.097 294.44" stroke="#263238" stroke-linecap="round" stroke-linejoin="round"/>
<path d="M169.225 299.215C169.225 299.215 170.057 299.215 171.445 299.132" stroke="#263238" stroke-linecap="round" stroke-linejoin="round"/>
<path d="M198.681 291.296C189.292 292.518 175.055 293.625 163.97 291.229" stroke="#263238" stroke-linecap="round" stroke-linejoin="round"/>
<path d="M208.669 289.634C208.669 289.634 206.299 290.124 202.49 290.698" stroke="#263238" stroke-linecap="round" stroke-linejoin="round"/>
<path d="M207.886 276.638C202.206 279.964 191.354 285.519 180.601 287.282" stroke="#263238" stroke-linecap="round" stroke-linejoin="round"/>
<path d="M211.944 274.155C211.944 274.155 211.179 274.671 209.815 275.494" stroke="#263238" stroke-linecap="round" stroke-linejoin="round"/>
<path d="M159.953 168.465L161.242 183.342C161.242 183.342 165.79 194.153 176.377 193.43C186.747 192.748 188.285 179.542 188.285 179.542L186.19 163.833C186.19 163.833 177.042 171.442 171.961 170.777C166.88 170.112 159.953 168.465 159.953 168.465Z" fill="white" stroke="#263238" stroke-linecap="round" stroke-linejoin="round"/>
<path d="M149.408 150.839C149.408 150.839 147.52 148.435 146.082 150.606C144.643 152.776 146.348 158.614 148.951 159.878C151.554 161.142 152.236 161.134 152.236 161.134C152.236 161.134 155.188 166.955 156.743 168.685C158.298 170.415 169.674 178.531 172.41 179.03C175.146 179.529 179.063 178.681 180.585 177.084C182.107 175.487 186.955 164.494 187.703 161.866C188.452 159.238 188.585 158.656 188.618 157.059C188.651 155.462 188.577 154.082 188.577 154.082C188.577 154.082 191.304 150.074 191.612 146.872C191.92 143.67 191.18 141.267 189.475 140.809C187.77 140.352 185.849 143.778 185.849 143.778L180.103 126.157C180.103 126.157 178.123 121.308 176.46 120.735C174.797 120.161 162.481 121.658 157.275 123.828C152.069 125.999 146.988 128.294 146.581 130.697C146.173 133.101 149.408 150.839 149.408 150.839Z" fill="white" stroke="#263238" stroke-linecap="round" stroke-linejoin="round"/>
<path d="M158.821 126.175C158.821 126.175 148.992 128.129 148.418 129.726C147.844 131.322 147.063 134.349 148.077 136.661C149.092 138.973 150.223 150.882 150.223 150.882C150.223 150.882 151.728 154.616 150.672 154.075C149.616 153.534 148.842 149.085 148.501 148.57C148.16 148.054 143.744 139.505 142.397 136.304C141.05 133.102 143.969 130.083 144.701 129.368C145.234 128.817 145.724 128.225 146.164 127.597C146.164 127.597 145.399 122.441 147.769 120.112C150.14 117.784 167.287 114.291 168.718 113.709C170.148 113.127 171.645 110.158 172.876 109.443C174.106 108.728 177.865 110.516 180.027 114.956C182.19 119.397 182.023 120.645 181.291 121.534L180.618 122.482C180.618 122.482 183.113 122.84 184.086 126.216C185.059 129.593 186.414 132.786 186.348 135.455C186.281 138.125 185.89 143.248 185.874 143.771C185.857 144.295 185.258 143.771 184.768 142.025C184.277 140.279 179.778 127.272 179.113 125.85C178.553 124.691 177.928 123.563 177.241 122.474C176.876 121.909 162.323 122.482 158.821 126.175Z" fill="#263238" stroke="#263238" stroke-linecap="round" stroke-linejoin="round"/>
<path d="M172.41 179.031C175.146 179.489 179.063 178.682 180.585 177.085C182.106 175.489 186.955 164.495 187.703 161.867C188.452 159.239 188.585 158.657 188.618 157.06C188.651 155.464 188.576 154.083 188.576 154.083L186.165 143.272L185.957 143.597C186.231 146.923 186.73 153.376 186.63 154.3C186.467 155.008 186.103 155.654 185.582 156.161C185.062 156.668 184.407 157.015 183.695 157.16C182.314 157.393 175.819 156.329 172.95 156.595C170.081 156.861 169.15 157.85 166.946 158.998C164.742 160.146 160.21 162.882 159.063 163.231C157.915 163.58 155.736 162.774 154.863 161.626C153.99 160.478 150.223 150.915 150.223 150.915C150.116 151.543 149.902 152.147 149.591 152.703L152.243 161.169C152.243 161.169 155.196 166.99 156.751 168.72C158.306 170.449 169.674 178.532 172.41 179.031Z" fill="#263238" stroke="#263238" stroke-linecap="round" stroke-linejoin="round"/>
<path d="M171.055 140.42C171.055 140.42 169.176 142.599 169.5 143.281C169.824 143.963 174.099 156.586 173.949 157.933C173.799 159.281 171.953 159.988 170.481 159.53C169.009 159.073 168.069 154.956 168.069 154.956" fill="white"/>
<path d="M171.055 140.42C171.055 140.42 169.176 142.599 169.5 143.281C169.824 143.963 174.099 156.586 173.949 157.933C173.799 159.281 171.953 159.988 170.481 159.53C169.009 159.073 168.069 154.956 168.069 154.956" stroke="#263238" stroke-linecap="round" stroke-linejoin="round"/>
<path d="M173.034 139.28C173.034 139.28 177.1 136.42 180.718 138.366" stroke="#263238" stroke-width="3" stroke-linecap="round" stroke-linejoin="round"/>
<path d="M162.323 141.796C162.323 141.796 156.069 140.424 153.316 145.231" stroke="#263238" stroke-width="3" stroke-linecap="round" stroke-linejoin="round"/>
<path d="M161.691 147.642C161.916 148.59 161.625 149.488 161.043 149.638C160.461 149.788 159.804 149.147 159.579 148.199C159.355 147.251 159.637 146.361 160.219 146.203C160.802 146.045 161.492 146.694 161.691 147.642Z" fill="#263238" stroke="#263238" stroke-linecap="round" stroke-linejoin="round"/>
<path d="M176.726 143.701C176.95 144.649 176.659 145.538 176.077 145.688C175.495 145.838 174.838 145.197 174.614 144.249C174.389 143.301 174.672 142.412 175.254 142.262C175.836 142.112 176.501 142.753 176.726 143.701Z" fill="#263238" stroke="#263238" stroke-linecap="round" stroke-linejoin="round"/>
<path d="M166.115 165.031C166.115 165.031 174.081 166.52 178.788 161.256" stroke="#858585" stroke-linecap="round" stroke-linejoin="round"/>
<path d="M239.321 258.866C239.321 258.983 239.271 259.124 239.238 259.265C239.271 259.091 239.296 258.949 239.321 258.866Z" stroke="#263238" stroke-linecap="round" stroke-linejoin="round"/>
<path d="M239.096 259.817C232.369 252.374 222.24 257.962 218.115 260.798L215.969 280.49L214.955 284.199C214.955 284.199 207.337 292.349 206.373 294.021C205.411 295.525 204.185 296.844 202.755 297.912C201.624 298.844 199.196 299.576 198.98 300.69C198.763 301.804 202.464 302.353 203.587 301.804C204.709 301.256 207.57 298.287 207.57 298.287L205.782 303.102L220.269 309.405C220.269 309.405 221.1 305.139 221.549 302.545C221.998 299.95 222.689 293.838 222.905 292.723C223.121 291.609 237.649 266.004 239.221 259.301L239.096 259.817Z" fill="white" stroke="#263238" stroke-linecap="round" stroke-linejoin="round"/>
<path d="M131.645 188.178C131.645 188.178 127.853 191.695 127.03 195.221C126.206 198.747 113.624 242.822 110.68 249.5C107.737 256.178 107.238 261.55 108.843 264.145C110.448 266.739 139.437 287.346 139.437 287.346C139.437 287.346 142.523 297.725 143.379 300.32C144.236 302.914 145.807 307.363 145.807 307.363L157.45 301.983C158.572 303.241 159.781 304.419 161.067 305.509C162.523 306.623 164.394 307.172 164.76 306.066C165.126 304.96 163.013 301.8 163.013 301.8C162.409 300.51 162.006 299.136 161.816 297.725C161.674 295.87 158.972 292.536 157.899 290.864C156.826 289.193 147.92 283.08 147.92 283.08L129.699 254.506L136.859 227.288C136.859 227.288 130.348 195.795 131.645 188.178Z" fill="white" stroke="#263238" stroke-linecap="round" stroke-linejoin="round"/>
<path d="M129.658 254.523L137.907 231.421C137.907 231.421 130.348 195.787 131.645 188.178C131.645 188.178 127.853 191.695 127.03 195.221C126.206 198.747 113.624 242.822 110.68 249.5C107.737 256.178 107.238 261.55 108.843 264.145C110.934 266.954 113.639 269.249 116.751 270.856C118.414 267.629 122.822 260.128 132.335 259.471L129.658 254.523Z" fill="#00DA49" stroke="#263238" stroke-linecap="round" stroke-linejoin="round"/>
<path d="M115.969 253.232C119.595 252.846 123.26 253.29 126.689 254.529" stroke="#263238" stroke-linecap="round" stroke-linejoin="round"/>
<path d="M123.428 251.556C123.428 251.556 128.027 252.853 129.657 254.524" stroke="#263238" stroke-linecap="round" stroke-linejoin="round"/>
<path d="M221.956 283.556C221.956 283.556 211.47 312.92 215.378 328.72C219.287 344.521 222.863 363.739 222.863 363.739H276.726C276.726 363.739 282.772 344.18 282.056 332.454C281.341 320.729 279.928 307.564 279.928 307.564L277.083 273.776H223.378L221.956 283.556Z" fill="#263238" stroke="#263238" stroke-linecap="round" stroke-linejoin="round"/>
<path d="M247.379 312.529C247.379 312.529 256.269 331.373 260.177 346.134C264.086 360.895 263.911 363.548 263.911 363.548" stroke="#858585" stroke-linecap="round" stroke-linejoin="round"/>
<path d="M257.333 328.356C257.333 328.356 266.755 320.181 269.599 310.427" stroke="#858585" stroke-linecap="round" stroke-linejoin="round"/>
<path d="M253.241 194.674L228.002 202.99C234.208 213.818 238.307 225.723 240.086 238.075C243.113 258.691 241.865 279.655 241.865 279.655C241.865 279.655 248.443 283.564 260.884 282.15C273.325 280.737 277.084 273.776 277.084 273.776C277.084 273.776 276.194 239.289 271.57 225.601C266.946 211.913 253.241 194.674 253.241 194.674Z" fill="#FFC400" stroke="#263238" stroke-linecap="round" stroke-linejoin="round"/>
<path d="M215.687 133.42C215.687 133.42 209.591 132.946 207.03 139.831C204.468 146.717 197.258 170.759 198.713 176.048C200.169 181.337 203.362 183.1 204.643 188.871C205.923 194.642 203.021 198.16 203.021 198.16C203.021 198.16 205.267 201.37 210.714 201.528C216.161 201.686 224.335 197.37 229.782 196.081C235.229 194.792 247.246 193.678 254.78 192.555C262.315 191.432 263.928 185.827 263.928 185.827C263.928 185.827 258.797 186.301 258.481 183.1C258.165 179.898 262.323 167.873 260.56 159.54C258.797 151.208 246.78 142.908 241.491 138.709C236.202 134.509 231.237 131.224 225.624 131.016C220.011 130.808 216.643 131.341 215.687 133.42Z" fill="#263238" stroke="#263238" stroke-linecap="round" stroke-linejoin="round"/>
<path d="M212.959 163.548C212.959 163.548 208.152 171.864 208.801 179.249C209.449 186.633 215.054 187.107 216.169 186.143" stroke="#858585" stroke-linecap="round" stroke-linejoin="round"/>
<path d="M243.729 151.376C243.729 151.376 255.263 162.112 257.034 173.488" stroke="#858585" stroke-linecap="round" stroke-linejoin="round"/>
<path d="M226.522 181.937L231.919 196.723C231.919 196.723 243.221 209.879 248.119 208.025C253.017 206.17 248.293 192.998 248.119 191.143C247.944 189.289 246.455 180.166 246.455 180.166C246.455 180.166 243.079 185.571 240.884 185.571C238.688 185.571 226.522 181.937 226.522 181.937Z" fill="white" stroke="#263238" stroke-linecap="round" stroke-linejoin="round"/>
<path d="M222.298 143.073C222.298 143.073 213.483 159.19 213.483 161.369C213.483 163.547 220.26 177.169 222.132 179.855C224.003 182.541 236.884 188.504 239.77 188.67C242.655 188.836 245.533 185.618 246.206 183.073C246.88 180.529 249.766 173.568 249.574 169.701C249.5 168.254 244.277 151.988 242.747 151.14C241.217 150.292 222.298 143.073 222.298 143.073Z" fill="white" stroke="#263238" stroke-linecap="round" stroke-linejoin="round"/>
<path d="M228.069 165.601C228.069 165.601 224.834 164.262 222.938 167.156" stroke="#263238" stroke-linecap="round" stroke-linejoin="round"/>
<path d="M236.643 162.485C236.643 162.485 237.317 159.026 241.325 160.032" stroke="#263238" stroke-linecap="round" stroke-linejoin="round"/>
<path d="M226.056 161.031C226.056 161.031 220.934 160.698 219.403 164.266" stroke="#263238" stroke-linecap="round" stroke-linejoin="round"/>
<path d="M233.009 157.8C233.009 157.8 235.795 154.008 239.662 155.347" stroke="#263238" stroke-linecap="round" stroke-linejoin="round"/>
<path d="M237.649 169.835C237.649 169.835 235.986 172.288 233.491 171.615" stroke="#263238" stroke-linecap="round" stroke-linejoin="round"/>
<path d="M242.439 171.398C242.439 171.398 239.212 176.188 230.298 176.854C230.298 176.854 236.202 181.087 239.653 179.972C243.104 178.858 242.439 171.398 242.439 171.398Z" fill="white" stroke="#263238" stroke-linecap="round" stroke-linejoin="round"/>
<path d="M216.702 169.947C216.702 169.947 213.799 168.616 213.375 172.175C212.951 175.735 220.394 176.974 220.394 176.974L216.702 169.947Z" fill="white" stroke="#263238" stroke-linecap="round" stroke-linejoin="round"/>
<path d="M245.541 157.098C245.531 156.919 245.566 156.74 245.641 156.578C245.716 156.415 245.831 156.274 245.974 156.166C246.117 156.059 246.284 155.988 246.461 155.96C246.638 155.933 246.819 155.949 246.988 156.008C248.41 156.374 250.797 160.64 250.539 163.193C250.282 165.746 248.61 165.796 248.61 165.796L245.541 157.098Z" fill="white" stroke="#263238" stroke-linecap="round" stroke-linejoin="round"/>
<path d="M222.963 196.542C222.963 196.542 203.212 209.715 202.364 212.076C201.516 214.438 215.869 284.509 215.869 284.509C215.869 284.509 196.792 327.395 201.524 334.821C206.256 342.247 227.695 349.341 228.701 350.688C229.707 352.035 238.331 315.07 242.007 301.058C245.682 287.045 251.836 261.715 252.136 249.723C252.435 237.731 247.579 221.864 245.89 216.625C244.202 211.386 241.2 202.322 241.2 202.322L222.963 196.542Z" fill="#A3A3A3" stroke="#263238" stroke-linecap="round" stroke-linejoin="round"/>
<path d="M228.02 188.183C228.02 188.183 241.916 201.596 241.242 202.27C240.569 202.944 232.627 214.744 232.627 214.744L220.477 197.014L228.02 188.183Z" fill="#A3A3A3" stroke="#263238" stroke-linecap="round" stroke-linejoin="round"/>
<path d="M250.473 201.61C250.473 201.61 262.639 216.455 267.704 227.099C272.768 237.744 275.138 256.646 275.138 264.072V278.085C275.138 278.085 280.411 313.544 282.074 319.457C283.737 325.37 286.465 336.339 286.465 336.339C286.465 336.339 288.485 335.665 288.319 328.231C288.153 320.796 285.45 290.584 283.088 278.592C280.727 266.6 279.762 246.733 278.223 243.191L276.702 239.64L294.739 234.401C294.739 234.401 283.487 224.222 279.837 208.621C278.174 201.519 274.473 197.727 272.277 196.205C270.082 194.683 254.032 192.995 251.304 193.17C248.577 193.344 250.473 201.61 250.473 201.61Z" fill="#A3A3A3" stroke="#263238" stroke-linecap="round" stroke-linejoin="round"/>
<path d="M250.472 201.612C250.472 201.612 250.979 199.417 251.994 199.749C253.009 200.082 261.616 204.988 262.464 204.481C263.312 203.974 253.69 192.34 251.836 190.676C250.697 189.645 249.451 188.739 248.119 187.974V191.184L250.472 201.612Z" fill="#A3A3A3" stroke="#263238" stroke-linecap="round" stroke-linejoin="round"/>
<path d="M266.864 201.776C266.864 201.776 272.768 220.853 273.45 229.128L266.864 201.776Z" fill="white"/>
<path d="M266.864 201.776C266.864 201.776 272.768 220.853 273.45 229.128" stroke="#263238" stroke-linecap="round" stroke-linejoin="round"/>
<path d="M270.232 239.958C270.232 239.958 273.666 226.212 274.489 225.38C275.313 224.549 282.057 221.671 282.606 221.538C283.155 221.405 287.554 224.557 288.236 225.247C288.918 225.937 291.953 227.858 291.404 228.956C290.855 230.054 289.067 229.231 288.078 229.231C287.088 229.231 282.581 232.116 282.307 232.557C282.032 232.998 280.519 236.407 279.97 237.372C279.421 238.337 270.232 239.958 270.232 239.958Z" fill="white" stroke="#263238" stroke-linecap="round" stroke-linejoin="round"/>
<path d="M289.491 226.357C289.491 226.357 287.687 225.634 287.146 225.9C286.605 226.166 280.177 229.16 279.82 229.609C279.462 230.058 278.988 230.789 278.988 230.789" stroke="#263238" stroke-linecap="round" stroke-linejoin="round"/>
<path d="M277.284 228.715C277.892 227.911 278.624 227.209 279.454 226.636C280.544 225.996 284.344 224.549 284.793 224.374C285.514 224.28 286.243 224.28 286.964 224.374" stroke="#263238" stroke-linecap="round" stroke-linejoin="round"/>
<path d="M284.161 222.744C284.161 222.744 276.926 225.364 276.468 225.996L276.019 226.636" stroke="#263238" stroke-linecap="round" stroke-linejoin="round"/>
<path d="M277.159 237.738C277.159 237.738 284.086 232.84 287.138 231.493C290.19 230.146 296.427 232.674 297.608 234.195C298.789 235.717 300.31 242.977 300.103 248.374C299.895 253.771 299.77 256.141 296.053 257.322C292.993 258.159 289.893 258.836 286.764 259.351C286.265 259.518 285.757 249.223 282.547 243.651C279.337 238.079 277.159 237.738 277.159 237.738Z" fill="#A3A3A3" stroke="#263238" stroke-linecap="round" stroke-linejoin="round"/>
<path d="M268.377 241.109C268.377 241.109 270.041 260.361 271.421 262.731C272.802 265.101 276.145 264.586 279.696 263.746C283.247 262.906 288.469 261.717 288.644 260.536C288.818 259.355 288.644 248.062 286.781 243.313C284.918 238.565 281.716 235.213 279.188 235.887C276.66 236.561 268.377 238.24 268.377 241.109Z" fill="#A3A3A3" stroke="#263238" stroke-linecap="round" stroke-linejoin="round"/>
<path d="M252.768 272.815L273.392 255.077L264.735 249.306L248.236 256.591C248.236 256.591 252.635 268.275 252.768 272.815Z" fill="white" stroke="#263238" stroke-linecap="round" stroke-linejoin="round"/>
<path d="M242.739 282.573C242.739 282.573 244.934 282.573 247.961 280.078C250.988 277.584 253.732 275.92 252.909 268.943C252.086 261.966 248.643 251.205 246.996 249.816C245.35 248.428 234.763 250.091 234.522 250.781C234.281 251.471 242.905 263.979 243.595 271.263C244.285 278.548 242.739 282.573 242.739 282.573Z" fill="#A3A3A3" stroke="#263238" stroke-linecap="round" stroke-linejoin="round"/>
<path d="M206.439 212.456C206.439 212.456 204.893 209.496 202.364 212.074C199.836 214.652 198.464 221.945 200.252 230.743C202.04 239.542 206.988 276.39 208.917 280.922C210.847 285.455 212.626 289.721 216.061 289.862C219.495 290.003 230.772 288.482 238.473 285.463C246.173 282.444 245.758 273.363 243.146 265.504C240.535 257.646 235.72 251.201 232.834 249.28C229.949 247.359 228.435 244.881 225.417 239.242C222.398 233.604 215.545 219.334 213.591 217.288" fill="#A3A3A3"/>
<path d="M206.439 212.456C206.439 212.456 204.893 209.496 202.364 212.074C199.836 214.652 198.464 221.945 200.252 230.743C202.04 239.542 206.988 276.39 208.917 280.922C210.847 285.455 212.626 289.721 216.061 289.862C219.495 290.003 230.772 288.482 238.473 285.463C246.173 282.444 245.758 273.363 243.146 265.504C240.535 257.646 235.72 251.201 232.834 249.28C229.949 247.359 228.435 244.881 225.417 239.242C222.398 233.604 215.545 219.334 213.591 217.288" stroke="#263238" stroke-linecap="round" stroke-linejoin="round"/>
<path d="M219.87 263.808C219.202 264.417 218.488 264.973 217.733 265.471" stroke="#263238" stroke-linecap="round" stroke-linejoin="round"/>
<path d="M228.343 251.947C226.519 255.552 224.272 258.928 221.649 262.001" stroke="#263238" stroke-linecap="round" stroke-linejoin="round"/>
<path d="M272.153 243.263C272.153 243.263 251.945 245.184 246.722 245.042C241.5 244.901 234.074 242.157 234.074 242.157C234.074 242.157 225.142 238.448 223.213 237.483C221.284 236.518 216.751 236.518 215.512 237.076C214.273 237.633 211.529 239.82 211.945 241.234C212.361 242.647 213.999 241.641 214.83 240.951C215.507 240.45 216.245 240.036 217.026 239.72L221.425 240.676L222.257 241.782C222.257 241.782 216.211 242.88 215.388 243.296C214.564 243.712 212.227 248.926 211.812 250.032C211.396 251.138 211.812 250.988 212.643 250.988H213.475C213.475 250.988 213.067 253.192 213.891 253.483C214.544 253.605 215.219 253.508 215.812 253.209C215.812 253.209 216.776 254.173 217.192 254.173C219.03 253.362 220.818 252.443 222.548 251.421C223.238 251.005 229.151 252.252 230.664 252.252C232.178 252.252 237.949 252.119 237.949 252.119C237.949 252.119 265.716 260.086 269.433 260.643C273.151 261.2 275.621 261.051 276.993 256.926C278.365 252.801 275.321 243.812 272.153 243.263Z" fill="white" stroke="#263238" stroke-linecap="round" stroke-linejoin="round"/>
<path d="M215.786 253.158C215.786 253.158 219.503 249 220.46 248.484C221.397 248.01 222.364 247.596 223.354 247.245" stroke="#263238" stroke-linecap="round" stroke-linejoin="round"/>
<path d="M213.45 250.95L217.3 246.418L221.425 244.763" stroke="#263238" stroke-linecap="round" stroke-linejoin="round"/>
<path d="M115.046 132.521C115.987 133.049 116.969 133.503 117.982 133.876C119.786 134.55 124.302 136.13 126.298 138.392C128.294 140.654 127.653 146.067 127.653 146.067" stroke="#263238" stroke-linecap="round" stroke-linejoin="round"/>
<path d="M89.2662 151.296L87.5032 155.096" stroke="#263238" stroke-linecap="round" stroke-linejoin="round"/>
<path d="M75.0043 139.38C75.0043 139.38 73.7736 145.202 72.5095 146.532C71.2455 147.863 69.2912 149.443 69.9482 152.353C70.6052 155.264 74.4389 157.085 74.4222 157.567C74.4056 158.05 67.5199 159.372 67.6862 161.576C67.8526 163.78 69.7486 166.424 69.7486 166.424C69.7486 166.424 64.6176 168.087 64.1852 171.023C63.7527 173.958 65.4991 176.844 65.4742 177.933C65.4492 179.023 62.3557 181.443 63.2787 183.389C64.2018 185.335 66.3889 185.052 66.5054 185.443C66.6218 185.834 65.2413 187.38 65.2164 188.353C65.2494 189.014 65.4878 189.648 65.8983 190.166H106.855L95.2123 129.584L79.7944 135.522L75.0043 139.38Z" fill="#6F00F0" stroke="#263238" stroke-linecap="round" stroke-linejoin="round"/>
<path d="M130.497 276.88C130.497 276.88 138.938 296.098 140.052 300.822C141.167 305.545 141.715 326.543 139.927 334.726C136.726 349.62 127.545 363.741 127.545 363.741H81.025L71.4283 318.942L85.4408 275.3L130.497 276.88Z" fill="white" stroke="#263238" stroke-linecap="round" stroke-linejoin="round"/>
<path d="M122.78 313.927L118.863 324.064L120.726 363.524" stroke="#263238" stroke-linecap="round" stroke-linejoin="round"/>
<path d="M129.757 264.111C129.757 264.111 137.973 271.105 138.963 273.725C139.952 276.344 140.576 293.683 141.025 296.619C141.474 299.554 139.487 302.39 139.487 302.39L132.385 284.735C132.385 284.735 131.703 276.876 131.553 276.353C131.404 275.829 130.098 271.629 130.098 271.629L129.757 264.111Z" fill="white" stroke="#263238" stroke-linecap="round" stroke-linejoin="round"/>
<path d="M136.543 280.195C136.543 280.195 136.643 283.339 136.942 285.609C137.242 287.879 138.182 292.079 136.236 293.093" fill="white"/>
<path d="M136.543 280.195C136.543 280.195 136.643 283.339 136.942 285.609C137.242 287.879 138.182 292.079 136.236 293.093" stroke="#263238" stroke-linecap="round" stroke-linejoin="round"/>
<path d="M99.9523 189.658L111.129 190.007L119.121 190.274L128.41 198.049C128.41 198.049 136.21 236.852 136.851 239.297C137.491 241.742 130.198 260.087 129.657 261.841C129.117 263.596 130.489 276.877 130.489 276.877C130.489 276.877 126.913 280.203 115.337 281.767C103.761 283.33 90.3888 278.44 90.3888 278.44C90.3888 278.44 99.1622 255.372 101.042 242.956C101.042 242.956 102.705 219.014 102.131 212.186C101.557 205.359 99.9523 189.658 99.9523 189.658Z" fill="#00DA49" stroke="#263238" stroke-linecap="round" stroke-linejoin="round"/>
<path d="M127.811 247.091L109.715 256.272" stroke="#263238" stroke-linecap="round" stroke-linejoin="round"/>
<path d="M126.755 250.24L118.364 254.432" stroke="#263238" stroke-linecap="round" stroke-linejoin="round"/>
<path d="M96.8674 176.811C96.8674 176.811 103.587 200.096 104.46 204.212C105.333 208.329 113.932 213.177 119.213 210.507C124.493 207.838 122.789 202.757 121.899 199.605C121.009 196.453 119.08 190.274 119.08 190.274L121.109 171.372C121.109 171.372 114.739 179.871 112.427 180.827C110.115 181.784 96.8674 176.811 96.8674 176.811Z" fill="white" stroke="#263238" stroke-linecap="round" stroke-linejoin="round"/>
<path d="M109.441 182.94L118.247 191.439L120.418 173.202L109.441 182.94Z" fill="#263238" stroke="#263238" stroke-linecap="round" stroke-linejoin="round"/>
<path d="M118.564 190.507L118.098 198.856" stroke="#263238" stroke-linecap="round" stroke-linejoin="round"/>
<path d="M119.154 188.354C119.154 188.354 131.628 223.921 132.984 231.955C134.339 239.988 134.647 241.743 134.772 244.545C134.896 247.348 132.635 253.452 132.635 253.452C132.635 253.452 141.458 242.641 141.516 233.186C141.574 223.73 135.163 195.239 132.169 193.51C120.277 186.641 119.154 188.354 119.154 188.354Z" fill="#263238" stroke="#263238" stroke-linecap="round" stroke-linejoin="round"/>
<path d="M130.722 205.907C130.722 205.907 136.185 221.849 135.304 233.816" stroke="#A3A3A3" stroke-linecap="round" stroke-linejoin="round"/>
<path d="M88.4682 148.952L94.1148 140.96L120.252 167.497C120.252 167.497 118.664 183.006 118.655 183.489C118.647 183.971 120.277 186.64 120.277 186.64C120.763 187.075 121.198 187.563 121.574 188.096C122.156 188.927 121.574 188.927 121.4 190.15C121.225 191.372 122.082 191.971 122.672 192.578C123.567 193.232 124.529 193.789 125.541 194.241C126.373 194.724 125.624 195.813 124.992 196.902C124.477 197.683 124.163 198.579 124.077 199.51C123.992 200.442 124.137 201.38 124.502 202.241C125.533 204.42 126.165 204.054 127.928 205.751C129.691 207.447 127.096 209.027 127.096 209.027C127.096 209.027 128.435 208.661 129.533 208.295C129.778 208.227 130.005 208.107 130.199 207.944C130.394 207.781 130.551 207.577 130.661 207.348C130.77 207.119 130.829 206.869 130.834 206.615C130.839 206.361 130.789 206.109 130.689 205.875C130.223 205.044 129.317 202.241 129.699 201.717C130.082 201.193 133.508 199.539 134.506 198.208C135.504 196.877 134.423 196.628 135.287 196.146C136.152 195.663 137.865 194.574 138.273 192.877C138.68 191.181 136.668 189.119 137.283 188.511C137.899 187.904 140.236 184.179 140.26 183.081C140.285 181.983 138.905 180.146 138.905 180.146C138.905 180.146 139.811 179.422 140.377 175.913C140.942 172.403 138.19 171.306 137.99 169.368C137.791 167.43 140.651 164.761 140.693 157.975C140.734 151.189 129.516 149.127 129.175 148.287C128.834 147.447 129.225 146.1 129.026 144.287C128.826 142.474 124.427 139.297 124.427 139.297C124.427 139.297 124.951 137.484 125.341 136.27C125.732 135.056 125.159 133.967 123.021 132.029C120.884 130.091 110.547 121.002 106.231 120.029C101.915 119.056 94.5888 123.788 93.7572 124.27C92.9256 124.752 86.0316 123.064 83.9359 124.761C81.8403 126.457 81.1584 129.359 80.6095 130.582C80.0607 131.804 78.2727 131.796 77.1584 133.01C76.044 134.224 74.2062 144.761 74.2062 144.761" fill="#6F00F0"/>
<path d="M88.4682 148.952L94.1148 140.96L120.252 167.497C120.252 167.497 118.664 183.006 118.655 183.489C118.647 183.971 120.277 186.64 120.277 186.64C120.763 187.075 121.198 187.563 121.574 188.096C122.156 188.927 121.574 188.927 121.4 190.15C121.225 191.372 122.082 191.971 122.672 192.578C123.567 193.232 124.529 193.789 125.541 194.241C126.373 194.724 125.624 195.813 124.992 196.902C124.477 197.683 124.163 198.579 124.077 199.51C123.992 200.442 124.137 201.38 124.502 202.241C125.533 204.42 126.165 204.054 127.928 205.751C129.691 207.447 127.096 209.027 127.096 209.027C127.096 209.027 128.435 208.661 129.533 208.295C129.778 208.227 130.005 208.107 130.199 207.944C130.394 207.781 130.551 207.577 130.661 207.348C130.77 207.119 130.829 206.869 130.834 206.615C130.839 206.361 130.789 206.109 130.689 205.875C130.223 205.044 129.317 202.241 129.699 201.717C130.082 201.193 133.508 199.539 134.506 198.208C135.504 196.877 134.423 196.628 135.287 196.146C136.152 195.663 137.865 194.574 138.273 192.877C138.68 191.181 136.668 189.119 137.283 188.511C137.899 187.904 140.236 184.179 140.26 183.081C140.285 181.983 138.905 180.146 138.905 180.146C138.905 180.146 139.811 179.422 140.377 175.913C140.942 172.403 138.19 171.306 137.99 169.368C137.791 167.43 140.651 164.761 140.693 157.975C140.734 151.189 129.516 149.127 129.175 148.287C128.834 147.447 129.225 146.1 129.026 144.287C128.826 142.474 124.427 139.297 124.427 139.297C124.427 139.297 124.951 137.484 125.341 136.27C125.732 135.056 125.159 133.967 123.021 132.029C120.884 130.091 110.547 121.002 106.231 120.029C101.915 119.056 94.5888 123.788 93.7572 124.27C92.9256 124.752 86.0316 123.064 83.9359 124.761C81.8403 126.457 81.1584 129.36 80.6095 130.582C80.0607 131.804 78.2727 131.796 77.1584 133.01C76.044 134.224 74.2062 144.761 74.2062 144.761" stroke="#263238" stroke-linecap="round" stroke-linejoin="round"/>
<path d="M99.2292 185.736C99.2292 185.736 111.878 230.21 112.435 235.982C112.992 241.753 93.2001 279.5 89.1502 287.367C85.1003 295.234 76.3186 319.175 74.8965 327.383C73.4745 335.591 72.4017 345.388 72.4017 345.388C72.4017 345.388 61.8653 340.323 54.938 335.949C48.0108 331.575 46.8881 329.138 47.4536 328.257C48.0191 327.375 50.8881 316.548 50.8881 316.548C50.8881 316.548 44.9338 309.895 45.2997 309.213C45.6656 308.531 59.2042 262.019 59.2042 262.019C59.2042 262.019 62.7717 187.217 64.1938 187.217C65.6158 187.217 99.2292 185.736 99.2292 185.736Z" fill="#263238" stroke="#263238" stroke-linecap="round" stroke-linejoin="round"/>
<path d="M97.9483 206.974L112.435 235.98" stroke="#A3A3A3" stroke-linecap="round" stroke-linejoin="round"/>
<path d="M72.5094 187.741C72.5094 187.741 62.0728 185.645 60.2599 188.439C58.447 191.233 42.4386 238.602 41.4573 242.968C40.476 247.333 70.4803 279.666 70.4803 279.666L85.9315 269.354L67.6362 243.658L77.6154 206.959" fill="#263238"/>
<path d="M72.5094 187.741C72.5094 187.741 62.0728 185.645 60.2599 188.439C58.447 191.233 42.4386 238.602 41.4573 242.968C40.476 247.333 70.4803 279.666 70.4803 279.666L85.9315 269.354L67.6362 243.658L77.6154 206.959" stroke="#263238" stroke-linecap="round" stroke-linejoin="round"/>
<path d="M75.0375 218.374L67.5863 241.401L84.26 266.391" stroke="#A3A3A3" stroke-linecap="round" stroke-linejoin="round"/>
<path d="M77.075 211.147L76.0022 214.549" stroke="#A3A3A3" stroke-linecap="round" stroke-linejoin="round"/>
<path d="M84.2599 266.394L67.4864 280.373L73.0914 287.192L90.7297 273.554L84.2599 266.394Z" fill="white" stroke="#263238" stroke-linecap="round" stroke-linejoin="round"/>
<path d="M89.4824 274.252C89.4824 274.252 103.445 289.637 105 290.335C106.555 291.034 109.624 294.352 110.455 295.924C111.287 297.495 112.468 299.599 113.665 300.472C114.863 301.346 115.021 302.393 112.909 302.917C110.796 303.441 108.875 303.616 107.711 301.171C106.867 299.495 105.85 297.911 104.676 296.447L92.7506 305.362C92.7506 305.362 90.1809 295.924 89.8815 294.003C89.5822 292.082 88.9501 288.938 88.9501 288.938L80.9252 281.246L89.4824 274.252Z" fill="white" stroke="#263238" stroke-linecap="round" stroke-linejoin="round"/>
<path d="M69.9315 175.006C69.9315 175.006 68.7673 182.756 69.4326 185.426C70.1311 188.253 75.811 187.746 74.6467 191.496C74.2725 192.702 72.8089 193.991 73.2663 195.363C73.7236 196.736 75.5864 196.844 76.5927 197.642C78.4804 199.106 77.8068 200.686 78.4472 202.756C78.9128 204.253 80.5095 204.777 80.942 205.966C81.4492 207.372 80.4679 208.253 82.0314 209.783C84.759 212.453 86.8048 212.935 87.1707 212.694C87.5366 212.453 86.8297 211.862 88.5511 211.031C90.2726 210.199 93.5408 208.603 93.0002 207.272L91.8609 204.619C92.6925 206.457 95.1374 204.619 95.8194 203.63C97.3661 201.417 94.9878 199.039 95.2705 196.644C95.5782 194 98.5969 192.636 98.8963 189.991C99.1957 187.347 96.5096 185.584 97.1 183.18C97.3661 182.091 97.5158 180.885 97.5158 180.885C97.5158 180.885 96.6842 178.457 95.5366 177.609C94.389 176.76 93.9482 173.367 93.8734 172.153" fill="#6F00F0"/>
<path d="M69.9315 175.006C69.9315 175.006 68.7673 182.756 69.4326 185.426C70.1311 188.253 75.811 187.746 74.6467 191.496C74.2725 192.702 72.8089 193.991 73.2663 195.363C73.7236 196.736 75.5864 196.844 76.5927 197.642C78.4804 199.106 77.8068 200.686 78.4472 202.756C78.9128 204.253 80.5095 204.777 80.942 205.966C81.4492 207.372 80.4679 208.253 82.0314 209.783C84.759 212.453 86.8048 212.935 87.1707 212.694C87.5366 212.453 86.8297 211.862 88.5511 211.031C90.2726 210.199 93.5408 208.603 93.0002 207.272L91.8609 204.619C92.6925 206.457 95.1374 204.619 95.8194 203.63C97.3661 201.417 94.9878 199.039 95.2705 196.644C95.5782 194 98.5969 192.636 98.8963 189.991C99.1957 187.347 96.5096 185.584 97.1 183.18C97.3661 182.091 97.5158 180.885 97.5158 180.885C97.5158 180.885 96.6842 178.457 95.5366 177.609C94.389 176.76 93.9482 173.367 93.8734 172.153" stroke="#263238" stroke-linecap="round" stroke-linejoin="round"/>
<path d="M91.728 136.63C91.728 136.63 81.9317 150.875 82.6801 153.886C83.4286 156.896 90.9047 176.214 93.491 178.127C96.0772 180.04 106.348 184.564 109.765 184.705C113.183 184.846 115.686 183.474 117.117 181.146C118.547 178.817 123.969 169.362 124.019 167.308C124.069 165.254 119.686 145.536 118.871 145.262C118.057 144.988 91.728 136.63 91.728 136.63Z" fill="white" stroke="black" stroke-linecap="round" stroke-linejoin="round"/>
<path d="M106.697 151.724C106.697 151.724 106.414 155.524 106.763 156.763C107.113 158.002 110.331 162.46 110.406 163.225C110.481 163.99 109.233 164.747 107.504 165.412" stroke="#263238" stroke-linecap="round" stroke-linejoin="round"/>
<path d="M84.5926 159.728C84.5926 159.728 82.4471 157.816 81.2662 160.144C80.0853 162.473 81.0001 165.624 84.5926 168.227C88.1851 170.83 89.05 170.822 89.05 170.822L84.5926 159.728Z" fill="white" stroke="#263238" stroke-linecap="round" stroke-linejoin="round"/>
<path d="M120.435 150.151C120.435 150.151 122.373 149.187 123.271 151.657C124.169 154.126 122.788 160.422 122.788 160.422L120.435 150.151Z" fill="white" stroke="#263238" stroke-linecap="round" stroke-linejoin="round"/>
<path d="M101.857 170.383C101.857 170.383 108.185 169.909 109.732 169.144C111.279 168.379 113.99 165.252 113.99 165.252C113.99 165.252 113.99 172.113 110.664 173.285C108.269 174.109 101.857 170.383 101.857 170.383Z" fill="white" stroke="#263238" stroke-linecap="round" stroke-linejoin="round"/>
<path d="M91.495 155.43C91.495 155.43 91.9607 151.813 98.2476 151.147L91.495 155.43Z" fill="white"/>
<path d="M91.495 155.43C91.495 155.43 91.9607 151.813 98.2476 151.147" stroke="#263238" stroke-linecap="round" stroke-linejoin="round"/>
<path d="M106.605 148.613C106.605 148.613 110.464 145.287 114.639 149.345L106.605 148.613Z" fill="white"/>
<path d="M106.605 148.613C106.605 148.613 110.464 145.287 114.639 149.345" stroke="#263238" stroke-linecap="round" stroke-linejoin="round"/>
<path d="M99.2954 157.262C99.6281 158.376 99.2954 159.482 98.4638 159.757C97.6322 160.031 96.8006 159.291 96.468 158.177C96.1353 157.063 96.468 155.965 97.2996 155.682C98.1312 155.399 98.9628 156.148 99.2954 157.262Z" fill="#263238"/>
<path d="M112.227 153.685C112.56 154.8 112.227 155.897 111.395 156.18C110.564 156.463 109.732 155.723 109.4 154.608C109.067 153.494 109.4 152.388 110.231 152.113C111.063 151.839 111.894 152.571 112.227 153.685Z" fill="#263238"/>
<path d="M379.197 363.737H6.83769" stroke="#263238" stroke-linecap="round" stroke-linejoin="round"/>
<path d="M398.972 363.737H385.126" stroke="#263238" stroke-linecap="round" stroke-linejoin="round"/>
</svg>
