<svg width="332" height="361" viewBox="0 0 332 361" fill="none" xmlns="http://www.w3.org/2000/svg">
<g clip-path="url(#clip0_475_19182)">
<path d="M79.5464 360.076C71.397 360.124 63.2476 359.554 55.0982 359.554C53.0609 359.624 51.0235 359.647 48.9823 359.68C47.43 359.874 41.6827 360.425 44.1897 357.534C45.0473 353.818 46.2367 351.308 43.0992 348.118C39.0245 344.755 32.0179 344.024 30.5083 338.16C29.2491 330.137 39.4921 326.066 39.2709 318.368C39.0303 315.163 37.9631 311.927 35.3592 309.881L35.4795 309.996C33.3723 307.92 30.7645 306.492 28.0713 305.32L28.1489 305.355C23.8937 303.317 18.8896 301.986 15.8239 298.175C12.504 293.856 13.7109 287.154 17.9835 283.918C25.0424 278.116 34.2454 275.947 42.8334 273.391C56.3691 269.621 70.2445 266.823 84.2886 265.952H84.2789C84.6379 265.941 84.9949 265.904 85.3539 265.902C92.5331 265.459 99.6716 266.137 106.579 268.174L106.455 268.141C110.384 269.305 114.41 270.384 118.118 272.146C124.582 275.85 129.918 282.404 129.974 290.123C129.941 295.828 126.287 300.548 125.08 305.981C122.504 318.221 142.171 316.576 144.497 326.716C145.737 332.781 142.44 338.657 140.475 344.235C139.2 347.266 137.865 350.291 137.11 353.502C136.943 354.472 136.798 355.761 135.647 356.024C119.762 358.425 103.653 359.086 87.6163 359.868H87.6493C84.9464 359.963 82.2474 360.086 79.5464 360.076ZM58.7325 357.165C67.8831 357.536 77.0512 358.006 86.2115 357.641H86.194H86.3085H86.2057L86.9566 357.606H86.8014C91.1943 357.412 95.5853 357.255 99.9704 356.952C111.515 356.209 123.15 355.778 134.545 353.677C135.395 348.789 137.854 344.398 139.522 339.774C139.499 339.836 139.478 339.9 139.454 339.968C146.698 322.352 138.201 324.628 126.351 316.296C121.786 313.349 121.454 307.512 123.425 302.879C124.589 299.134 126.918 295.806 127.49 291.871C128.48 284.642 123.466 278.126 117.672 274.387C113.766 272.136 109.247 271.102 104.963 269.777C98.488 267.894 91.79 267.431 85.0803 267.799C85.1249 267.799 85.1656 267.799 85.2103 267.799C69.4353 268.655 53.8816 271.961 38.747 276.389C30.3764 279.243 10.1523 284.335 17.6691 296.656L17.6381 296.617C21.1831 300.539 26.7693 301.536 31.2961 303.95C35.4504 306.084 39.8064 309.286 40.9279 314.063C44.1276 324.252 35.3922 327.212 32.8096 335.212C31.626 341.228 39.6337 342.539 43.3922 345.155C47.6784 347.803 48.1712 353.166 46.0834 357.41C50.2823 357.359 54.5122 357.059 58.7325 357.165Z" fill="#1E2322"/>
<path d="M44.83 359.717C36.145 359.787 27.8035 356.806 19.1166 356.837C13.2956 356.643 6.76446 358.153 1.47317 355.103C-0.455523 353.826 1.62257 351.585 1.88646 349.904C6.00967 339.149 8.55539 327.905 11.1535 316.707C12.2323 311.715 13.2258 306.693 13.8137 301.615C14.163 298.123 13.9185 294.366 14.4967 290.994C16.0218 290.317 15.3427 295.274 15.5037 296.12C15.8918 304.798 13.9379 313.354 12.0616 321.775C9.91557 331.262 7.49209 340.703 3.95098 349.778L3.96262 349.747L3.91023 349.889L3.92187 349.862C3.59784 350.754 3.26604 351.645 2.942 352.538L2.99245 352.4C2.90126 352.654 2.79842 352.908 2.71886 353.176C8.11106 356.593 18.3502 353.737 24.8814 354.864L25.0308 354.88H24.9803H25.0773H25.0327L25.1821 354.895H25.1647C29.6973 355.38 34.1659 356.327 38.6752 356.975C40.5088 357.429 45.0609 356.465 46.1125 357.613C46.6674 358.489 45.8467 359.754 44.83 359.717Z" fill="#1E2322"/>
<path d="M133.096 355.317C133.197 352.794 138.17 353.714 139.914 353.611C142.243 353.761 144.571 353.431 146.899 353.347C144.746 345.895 143.519 338.269 142.85 330.556C142.677 329.412 142.605 328.247 142.291 327.128C142.05 326.47 141.771 325.591 142.539 325.172C143.094 324.813 143.919 325.341 143.605 326C145.186 330.411 145.205 335.2 146.001 339.777C146.453 341.742 147.07 343.669 147.406 345.662C147.868 348.06 148.547 350.408 149.135 352.777C150.223 355.348 147.068 355.651 145.264 355.591H145.287C142.464 355.878 139.646 355.785 136.817 355.814C135.638 355.505 133.532 356.995 133.096 355.317Z" fill="#1E2322"/>
<path d="M132.223 318.165C130.779 317.084 131.08 312.041 130.699 310.146C129.982 305.004 129.535 299.837 129.083 294.67C128.695 291.625 127.775 288.684 127.325 285.651L127.343 285.738C127.265 284.605 125.917 281.359 127.463 280.988C127.563 281.008 127.652 281.064 127.713 281.145C127.775 281.226 127.804 281.327 127.797 281.429V281.417C128.233 285.28 129.764 288.984 130.513 292.795C131.427 297.974 131.584 303.259 132.566 308.438C132.88 310.767 133.001 313.107 133.4 315.423C133.796 316.562 134.016 318.466 132.223 318.165Z" fill="#1E2322"/>
<path d="M126.827 309.459C126.875 308.227 126.064 305.673 126.699 304.792C127.368 304.546 127.034 305.52 127.197 305.871C127.197 305.854 127.197 305.836 127.197 305.821C127.265 306.754 128.33 309.191 127.446 309.738C127.387 309.767 127.323 309.782 127.259 309.783C127.194 309.783 127.13 309.77 127.071 309.743C127.012 309.717 126.959 309.677 126.917 309.628C126.875 309.579 126.844 309.521 126.827 309.459Z" fill="#1E2322"/>
<path d="M128.325 304.336C128.325 303.754 127.709 302.221 128.41 302.008C128.992 302.085 128.868 303.43 129.186 303.913C129.444 304.443 128.544 304.971 128.325 304.336Z" fill="#1E2322"/>
<path d="M129.295 311.439C129.365 310.768 128.621 309.276 129.702 309.22C130.253 309.462 130.026 310.578 130.284 311.112C130.443 311.725 129.423 312.171 129.295 311.439Z" fill="#1E2322"/>
<path d="M142.666 343.104C142.361 342.192 142.234 341.229 142.293 340.269C142.363 339.961 142.825 339.79 143.009 340.087C143.127 340.607 143.11 341.191 143.319 341.717C143.426 342.223 143.935 342.926 143.319 343.284C143.266 343.319 143.205 343.342 143.142 343.351C143.079 343.361 143.014 343.357 142.952 343.34C142.891 343.323 142.833 343.293 142.784 343.253C142.734 343.212 142.694 343.161 142.666 343.104Z" fill="#1E2322"/>
<path d="M138.938 347.92C138.744 346.973 138.872 345.98 138.874 345.023C138.932 344.412 139.93 344.313 139.881 345.013V344.976C139.674 345.97 140.721 347.679 139.705 348.275C139.632 348.308 139.552 348.325 139.472 348.325C139.392 348.325 139.313 348.307 139.24 348.273C139.167 348.24 139.102 348.191 139.05 348.13C138.998 348.069 138.96 347.997 138.938 347.92Z" fill="#1E2322"/>
<path d="M142.557 349.626C142.516 349.014 142.535 348.4 142.613 347.792C142.708 347.032 143.921 347.142 143.626 347.947C143.455 348.628 144.113 349.742 143.195 350.055C143.125 350.075 143.051 350.08 142.978 350.069C142.906 350.058 142.837 350.031 142.776 349.99C142.715 349.949 142.664 349.895 142.626 349.832C142.588 349.769 142.564 349.699 142.557 349.626Z" fill="#1E2322"/>
<path d="M18.1426 309.331C16.9202 309.166 17.675 307.672 17.7545 306.904C18.1029 305.273 18.353 303.622 18.5035 301.961C18.5025 301.979 18.5025 301.996 18.5035 302.014C18.5035 301.981 18.5035 301.948 18.5035 301.917C18.5035 301.93 18.5035 301.944 18.5035 301.96C18.5462 301.292 18.6859 297.433 19.885 299.012C19.7783 300.677 20.1082 309.321 18.1426 309.331Z" fill="#1E2322"/>
<path d="M16.0722 318.64C15.0051 318.495 15.6299 317.171 15.7987 316.506C16.3109 315.192 16.3808 313.568 17.2636 312.456C17.3325 312.39 17.4194 312.346 17.5134 312.329C17.6074 312.312 17.7043 312.323 17.7919 312.361C17.8796 312.399 17.9541 312.462 18.0061 312.542C18.0581 312.622 18.0853 312.716 18.0844 312.811C17.9971 313.199 17.7759 313.529 17.7371 313.937C17.2423 315.06 17.4382 318.553 16.0722 318.64Z" fill="#1E2322"/>
<path d="M24.2818 308.132C23.2107 307.975 23.9267 306.711 24.0684 306.065C24.404 305.019 24.5787 303.898 25.0599 302.908C25.3432 302.295 26.3095 302.65 25.8069 303.254C25.2927 304.327 25.5488 308.233 24.2818 308.132Z" fill="#1E2322"/>
<path d="M22.1629 313.168C21.1695 313.065 21.5925 311.956 21.8525 311.36C22.2406 310.671 22.1765 309.192 23.1971 309.2C24.0237 309.449 23.366 310.432 23.3058 310.993C23.0943 311.761 23.2534 313.12 22.1629 313.168Z" fill="#1E2322"/>
<path d="M18.876 325.867C17.7448 325.478 18.7499 324.107 18.911 323.358C19.5202 321.532 20.1217 319.704 20.7931 317.9C21.0104 316.541 22.8285 316.958 21.8098 318.072C21.218 319.345 20.3041 326.375 18.876 325.867Z" fill="#1E2322"/>
<path d="M13.5867 334.968C12.4962 334.58 13.5518 333.27 13.6953 332.547C14.2658 331.6 14.1455 329.504 15.3757 329.262C15.7793 329.285 15.8763 329.805 15.6299 330.067C15.137 331.245 15.1021 334.931 13.5867 334.968Z" fill="#1E2322"/>
<path d="M15.5367 324.675C15.4634 324.66 15.3941 324.63 15.3336 324.586C15.273 324.542 15.2227 324.485 15.1859 324.42C15.1491 324.355 15.1267 324.283 15.1203 324.208C15.1139 324.134 15.1235 324.059 15.1487 323.988C15.5076 323.381 15.4863 322.063 16.373 322.048C16.4474 322.066 16.5164 322.101 16.5747 322.151C16.633 322.201 16.6788 322.263 16.7086 322.334C16.7384 322.404 16.7513 322.481 16.7463 322.557C16.7412 322.633 16.7184 322.708 16.6796 322.774C16.3866 323.404 16.47 324.716 15.5367 324.675Z" fill="#1E2322"/>
<path d="M33.1763 313.314C32.1266 313.169 32.8464 311.975 32.9978 311.374C33.2811 310.854 33.8321 306.785 34.6917 307.918C34.4375 309.486 34.1251 311.052 33.9621 312.637C33.9312 312.824 33.8356 312.994 33.692 313.118C33.5484 313.242 33.3659 313.311 33.1763 313.314Z" fill="#1E2322"/>
<path d="M28.1547 324.518C26.8139 324.081 28.6204 321.658 28.6282 320.649C29.0434 319.812 28.7291 317.769 30.0368 317.897C30.8654 318.155 29.7477 320.614 29.7497 321.39C29.3073 322.356 29.5615 324.483 28.1547 324.518Z" fill="#1E2322"/>
<path d="M26.9168 319.989C25.7215 319.574 26.8295 318.082 26.9168 317.251C27.2738 316.025 27.5261 314.773 27.8152 313.532C28.3294 311.397 28.8668 309.278 29.3092 307.129C29.4625 306.663 29.4256 305.541 30.1474 305.708C30.2031 305.74 30.2471 305.79 30.2729 305.849C30.2987 305.908 30.3051 305.973 30.291 306.036C29.9495 307.777 28.8183 320.688 26.9168 319.989Z" fill="#1E2322"/>
<path d="M22.5316 334.677C21.0298 334.306 22.7683 332.224 22.877 331.289C22.8654 331.32 22.8537 331.349 22.844 331.378C23.4378 330.484 24.0548 325.686 25.2248 326.213C25.8438 326.262 24.3652 329.943 24.309 330.639C23.7831 331.664 23.8045 334.559 22.5316 334.677Z" fill="#1E2322"/>
<path d="M17.6556 347.628C16.536 347.291 17.4615 346.039 17.7409 345.374C18.4026 344.221 18.6005 342.733 19.4601 341.732C20.8009 341.382 19.4814 343.866 19.429 344.466C18.8702 345.44 19.0837 347.59 17.6556 347.628Z" fill="#1E2322"/>
<path d="M11.2854 345.582C10.3153 344.934 11.7123 343.642 11.8016 342.774C12.211 342.08 12.1896 340.312 13.1909 340.335C13.8234 340.739 12.828 342.303 12.8125 342.988C12.4555 343.81 12.5273 345.718 11.2854 345.582Z" fill="#1E2322"/>
<path d="M26.3327 345.378C25.2481 345.009 26.5772 343.62 26.7499 342.947C27.0701 342.483 27.169 341.521 27.7511 341.395C27.7841 342.076 27.2641 342.92 27.1807 343.672V343.645C27.1773 343.664 27.1727 343.682 27.1671 343.7C27.1679 343.691 27.1679 343.682 27.1671 343.672C26.9769 344.225 27.1166 345.304 26.3327 345.378Z" fill="#1E2322"/>
<path d="M36.504 314.672C36.6243 313.755 37.5517 310.664 38.4113 310.384C38.8634 310.328 38.9449 310.966 38.6053 311.16C38.2367 312.29 37.8292 313.431 37.6934 314.614C37.6507 315.305 36.4884 315.47 36.504 314.672Z" fill="#1E2322"/>
<path d="M33.4421 324.855C32.3653 324.516 33.5857 322.413 33.8302 321.693C33.4635 321.811 33.8127 321.328 33.8787 321.194C35.138 318.724 34.4899 322.506 34.226 323.231C34.0359 323.792 34.2319 324.809 33.4421 324.855Z" fill="#1E2322"/>
<path d="M25.4111 355.782C24.796 354.971 25.6051 353.922 25.7798 353.066C27.0313 349.154 28.4341 345.293 29.7361 341.399C30.4288 339.751 30.7936 335.966 32.4526 335.227C32.9357 335.263 33.1569 335.985 32.6951 336.226C31.4222 341.521 30.1513 346.82 28.3158 351.962C27.6599 353.116 27.4271 357.048 25.4111 355.782Z" fill="#1E2322"/>
<path d="M26.2978 354.682C24.6485 354.255 27.041 350.357 27.1749 349.154C28.1334 346.464 29.0783 343.765 29.6857 340.971L29.674 341.029C29.868 340.176 30.9585 333.901 32.3653 335.61C31.1196 340.709 30.5549 345.867 28.5292 350.822C27.8753 351.983 27.9549 354.621 26.2978 354.682Z" fill="#1E2322"/>
<path d="M31.5891 348.95C30.1765 348.349 32.0936 346.108 32.2255 345.058L32.1926 345.145C32.373 344.724 32.4332 344.222 32.7572 343.882C34.2047 343.189 33.2539 345.59 33.1259 346.24C32.7688 347.13 32.8911 348.977 31.5891 348.95Z" fill="#1E2322"/>
<path d="M32.8135 354.748C31.5329 354.554 33.9602 350.891 34.2454 350.113C34.318 350.02 34.4243 349.961 34.5409 349.947C34.6575 349.933 34.7749 349.965 34.8673 350.038C34.9597 350.111 35.0194 350.217 35.0335 350.333C35.0475 350.45 35.0146 350.567 34.942 350.66C34.6878 351.025 34.6044 351.486 34.4356 351.896C33.9195 352.703 33.9505 354.721 32.8135 354.748Z" fill="#1E2322"/>
<path d="M38.7858 350.276C37.7303 349.736 39.1389 348.318 39.3155 347.532C39.5095 347.276 39.4979 346.589 39.9306 346.677C40.3439 346.954 39.6221 350.701 38.7858 350.276Z" fill="#1E2322"/>
<path d="M42.1348 354.276C41.2015 353.923 42.812 352.12 42.8722 351.399C42.8935 351.257 43.0487 351.115 43.1981 351.205C43.431 351.711 42.9342 352.419 42.909 352.99L42.9207 352.939C42.7732 353.407 42.8508 354.336 42.1348 354.276Z" fill="#1E2322"/>
<path d="M28.0267 289.155C27.7589 288.656 27.4756 288.165 27.2001 287.671C26.9478 287.345 26.9478 286.747 27.464 286.729C28.0752 287.1 28.5409 287.843 29.0046 288.418C29.3888 288.982 28.44 289.766 28.0267 289.155Z" fill="#1E2322"/>
<path d="M31.3873 287.971C30.7101 287.684 30.6907 286.706 30.3104 286.14C30.2596 286.119 30.2137 286.088 30.1758 286.048C30.1378 286.009 30.1087 285.961 30.0904 285.91C30.0721 285.858 30.0649 285.803 30.0694 285.748C30.0739 285.694 30.0899 285.64 30.1164 285.592C30.877 284.124 33.3471 288.09 31.3873 287.971Z" fill="#1E2322"/>
<path d="M34.684 286.402C34.6413 285.537 34.8974 284.693 35.2214 283.905L35.1904 283.965L35.1807 283.994C35.5687 283.199 36.3449 283.744 36.0771 284.489V284.413C35.984 285.164 36.211 286.028 35.8326 286.709C35.5067 287.196 34.6665 287.05 34.684 286.402Z" fill="#1E2322"/>
<path d="M40.2644 286.842C39.3854 286.374 40.3653 285.29 40.6408 284.708C40.8814 284.221 41.5139 283.454 42.0126 284.1C42.001 284.085 41.9893 284.071 41.9796 284.056C42.3502 284.624 41.6808 285.15 41.4907 285.662C41.2229 286.149 40.9978 287.057 40.2644 286.842Z" fill="#1E2322"/>
<path d="M78.6966 279.053C78.4501 278.665 77.9903 278.172 78.2484 277.695C78.4424 277.307 79.0924 277.307 79.1603 277.774C79.302 278.036 79.6454 278.162 79.6803 278.479C79.7599 278.987 79.0749 279.463 78.6966 279.053Z" fill="#1E2322"/>
<path d="M82.5734 278.623C81.7487 278.411 82.2881 277.458 82.4045 276.921C82.3883 276.813 82.3952 276.702 82.4247 276.597C82.4541 276.492 82.5056 276.394 82.5756 276.309C82.6455 276.225 82.7325 276.157 82.8308 276.109C82.9291 276.061 83.0364 276.034 83.1457 276.03C84.2323 276.077 83.5319 278.861 82.5734 278.623Z" fill="#1E2322"/>
<path d="M86.2367 278.642C85.4295 278.448 86.4016 276.478 86.9993 276.67C87.8472 276.835 87.0051 278.985 86.2367 278.642Z" fill="#1E2322"/>
<path d="M78.4133 324.791C77.7225 324.415 76.861 324.042 76.473 323.34C76.4322 322.1 77.7264 322.964 78.2969 323.257L78.2716 323.245C78.7645 323.439 79.5833 323.662 79.267 324.364C79.2028 324.529 79.08 324.663 78.9223 324.742C78.7646 324.821 78.5832 324.839 78.4133 324.791Z" fill="#1E2322"/>
<path d="M80.6757 323.652C80.276 323.361 80.4041 322.746 80.2702 322.317C80.177 321.756 79.9539 321.201 79.9946 320.625C80.0955 320.018 80.9648 320.159 80.7844 320.792C80.7844 320.772 80.7844 320.753 80.7844 320.736C80.8639 321.578 82.4453 323.834 80.6757 323.652Z" fill="#1E2322"/>
<path d="M83.5959 324.409C82.2377 324.143 84.372 320.939 84.9697 320.596C85.5867 320.425 85.8389 321.265 85.3868 321.613C84.7931 322.455 84.8455 324.341 83.5959 324.409Z" fill="#1E2322"/>
<path d="M86.4133 325.16C85.511 324.362 87.0982 323.384 87.461 322.658C87.5872 322.379 87.8297 322.102 88.1712 322.166C89.0385 322.466 88.1848 323.367 87.9209 323.832C87.5173 324.337 87.2534 325.513 86.4133 325.16Z" fill="#1E2322"/>
<path d="M51.6813 343.696C51.1846 343.114 49.2597 341.866 50.6238 341.268C50.7045 341.255 50.7876 341.266 50.8618 341.3C50.936 341.335 50.9979 341.392 51.039 341.463C51.5144 341.955 52.1431 342.272 52.5913 342.794C53.0395 343.316 52.2129 344.229 51.6813 343.696Z" fill="#1E2322"/>
<path d="M53.7749 342.239C53.4625 341.478 52.9813 340.128 53.3344 339.387C54.0446 339.732 54.3143 340.826 54.8013 341.465C55.1952 342.064 54.2173 342.877 53.7749 342.239Z" fill="#1E2322"/>
<path d="M56.7669 342.613C55.4649 342.365 57.0211 339.462 57.9311 339.703C58.6704 339.968 57.9912 340.745 57.9524 341.255C57.805 341.837 57.5411 342.724 56.7669 342.613Z" fill="#1E2322"/>
<path d="M60.0014 343.118C59.3844 342.536 60.1625 341.874 60.6223 341.507C60.9386 341.21 61.4276 340.525 61.804 341.144C62.0077 341.789 60.7679 343.723 60.0014 343.118Z" fill="#1E2322"/>
<path d="M115.375 336.914C114.719 336.453 114.211 335.812 113.731 335.168C113.743 335.185 113.758 335.201 113.774 335.215C113.721 335.156 113.681 335.087 113.657 335.011C113.632 334.936 113.625 334.856 113.634 334.777C113.643 334.699 113.669 334.623 113.71 334.555C113.751 334.487 113.806 334.429 113.871 334.384C114.55 333.951 114.859 335.038 115.447 335.24C115.813 335.521 116.432 335.754 116.44 336.286C116.448 336.817 115.821 337.242 115.375 336.914Z" fill="#1E2322"/>
<path d="M117.071 335.144C116.525 334.842 115.889 332.247 117.131 332.622C117.476 333.068 117.542 333.738 117.866 334.246C118.07 334.725 117.561 335.313 117.071 335.144Z" fill="#1E2322"/>
<path d="M119.432 335.844C118.497 335.572 119.199 334.474 119.432 333.903C119.756 333.406 119.698 332.438 120.447 332.407C120.87 332.407 121.044 332.925 120.825 333.249C120.458 334.076 120.652 335.849 119.432 335.844Z" fill="#1E2322"/>
<path d="M122.209 336.699C121.545 336.088 122.403 335.419 122.82 334.97C123.272 334.561 123.639 333.659 124.36 333.806C124.861 333.989 124.748 334.712 124.335 334.928C123.687 335.496 123.305 337.279 122.209 336.699Z" fill="#1E2322"/>
<path d="M168.464 302.12C159.591 301.127 156.702 293.389 160.922 285.963C164.384 280.288 171.996 279.582 177.836 281.475C183.876 283.253 184.928 280.719 189.416 277.595C193.625 274.898 199.482 273.326 203.93 276.341C206.881 278.159 210.663 279.56 213.893 277.618C218.496 275.148 225.33 270.97 229.932 275.392L229.917 275.379C232.078 277.391 235.458 278.186 238.239 277.125C240.887 276.396 243.765 276.904 246.241 277.994C253.872 281.598 254.972 291.472 246.865 295.292C236.064 301.696 228.849 289.12 219.596 297.485C216.21 300.007 211.447 301.172 207.548 299.167C205.29 298.125 203.303 296.032 200.666 296.121C198.116 296.315 196.025 297.968 193.749 298.965C189.783 300.479 185.817 297.374 181.779 297.974C180.543 298.168 179.575 299.22 178.37 299.388C175.585 301.593 172.001 302.695 168.464 302.12ZM172.188 299.227C176.292 299.299 179.14 295.452 183.122 295.37C186.742 295.153 190.47 297.984 193.954 296.34L193.797 296.418L194.152 296.243L193.995 296.321C207.669 287.797 207.122 304.664 220.659 294.058C223.054 292.403 226.119 292.066 228.956 292.353H228.896L229.047 292.368H229.028H229.073H229.041C232.998 292.638 236.531 295.096 240.548 294.765C248.039 294.489 254.204 287.811 247.512 281.553L247.556 281.594C241.559 276.696 238.602 280.722 232.94 279.37C228.401 278.386 228.316 274.591 223.102 275.85C217.545 276.685 213.003 282.36 207.073 280.094C203.641 279.102 200.728 276.097 196.904 276.894C189.674 277.903 187.225 283.806 182.008 284.302C178.36 284.516 174.922 282.793 171.284 282.989C165.808 282.989 161.956 287.027 162.028 292.475C162.302 296.913 166.708 298.967 170.657 299.239L170.463 299.218C171.031 299.243 171.608 299.247 172.188 299.227Z" fill="#1E2322"/>
<path d="M189.445 283.533C189.412 283.481 189.391 283.422 189.385 283.361C190.211 281.176 194.958 279.441 197.208 279.48C197.87 279.575 198.761 279.434 199.24 279.973C199.601 280.555 199.071 281.36 198.411 281.331C195.609 281.071 192.396 281.564 190.206 283.433C190.056 283.712 189.627 283.821 189.445 283.533Z" fill="#1E2322"/>
<path d="M205.096 283.031C204.483 282.773 202.942 282.222 203.932 281.456C204.632 281.304 206.386 281.32 206.118 282.426C206.004 282.837 205.525 283.196 205.096 283.031Z" fill="#1E2322"/>
<path d="M189.057 293.472C184.569 292.877 184.443 288.903 186.121 290.476L186.084 290.443C188.712 292.708 192.46 291.817 195.476 290.95C196.106 290.806 197.049 289.929 197.519 290.742C197.919 292.847 190.609 293.734 189.057 293.472Z" fill="#1E2322"/>
<path d="M201.05 290.395C200.726 289.812 202.032 289.242 202.469 289.277C203.181 289.679 202.441 290.414 201.846 290.36H201.906C201.615 290.365 201.281 290.74 201.05 290.395Z" fill="#1E2322"/>
<path d="M229.088 283.926C224.916 282.554 221.451 280.14 217.058 282.645L217.11 282.62C216.87 282.771 216.476 282.915 216.361 282.538C216.375 281.774 217.72 281.555 218.257 281.134C223.228 278.611 226.191 281.83 230.708 282.544C232.035 282.569 237.759 280.357 237.887 282.371C237.858 282.568 237.76 282.748 237.61 282.88C237.461 283.011 237.27 283.085 237.071 283.089C234.333 282.575 231.787 284.438 229.088 283.926Z" fill="#1E2322"/>
<path d="M238.287 292.298C237.123 292.155 233.384 291.716 234.146 289.954C234.403 289.527 234.992 289.289 235.423 289.615C238.499 292.12 246.623 289.378 243.225 284.905C242.837 284.349 241.285 283.893 241.541 283.213C241.566 283.15 241.603 283.093 241.65 283.044C241.697 282.996 241.754 282.957 241.816 282.93C241.878 282.903 241.945 282.889 242.013 282.889C242.081 282.888 242.148 282.901 242.21 282.926C245.604 283.508 246.834 287.308 244.62 289.871C243.064 291.592 240.565 292.358 238.287 292.298Z" fill="#1E2322"/>
<path d="M227.121 289.448L227.146 289.465C225.659 288.802 223.981 289.495 222.473 289.339C220.727 286.997 226.179 287.917 227.187 288.311C228.227 288.493 228.112 289.739 227.121 289.448Z" fill="#1E2322"/>
<path d="M169.006 295.484C164.11 294.264 165.098 288.8 169.039 287.044C169.512 286.916 170.482 286.165 170.717 286.895C170.808 287.576 168.468 287.81 167.896 289.349C166.64 291.348 167.768 292.96 169.836 293.602C170.775 294.14 169.995 295.694 169.006 295.484Z" fill="#1E2322"/>
<path d="M293.416 316.378C285.94 316.353 280.742 306.9 272.905 310.427L272.969 310.404L272.817 310.456H272.835H272.81H272.825C269.874 311.582 267.144 313.246 264.198 314.387C264.552 314.707 264.078 315.357 263.661 315.117C259.528 316.225 254.669 315.893 251.049 313.493C249.723 312.798 247.739 311.578 248.138 309.843C245.422 304.284 250.892 299.03 256.288 298.643C260.516 297.891 264.682 299.744 268.9 299.158C275.621 298.354 274.967 292.252 280.348 289.291L280.222 289.376C284.43 286.526 290.09 286.324 294.634 288.497H294.623L294.739 288.548C297.844 289.796 300.184 292.683 303.758 292.758C308.374 293.535 312.132 290.16 316.564 289.739C322.839 289.048 331.939 293.249 331.297 300.541C330.224 306.872 323.219 309.699 317.4 308.9C313.046 308.799 307.47 305.243 304.206 309.676L304.229 309.651L304.216 309.666L304.323 309.548L304.129 309.769C304.137 309.762 304.144 309.753 304.15 309.744L304.045 309.864L304.057 309.849C301.496 313.243 297.985 316.63 293.416 316.378ZM294.702 314.05C298.242 313.737 300.677 311.046 302.788 308.462C307.334 302.349 314.89 307.323 320.963 306.715C324.801 306.62 328.998 304.105 329.487 300.04C329.471 295.104 323.8 292.403 319.562 291.672C314.692 290.822 310.735 294.512 306.046 294.776C299.031 295.44 297.101 290.828 291.105 289.343C286.751 288.268 281.894 289.691 278.856 293.003C276.721 295.556 275.615 299.198 272.206 300.409C267.474 302.71 262.392 300.572 257.46 300.77C251.932 300.921 247.308 305.221 251.218 310.532C254.821 313.163 259.755 313.272 263.89 311.871C272.078 308.524 277.106 304.676 285.447 310.576C288.241 312.41 291.227 314.267 294.702 314.056V314.05Z" fill="#1E2322"/>
<path d="M260.174 315.538C255.801 314.88 248.92 312.627 248.458 307.495C248.581 306.948 249.429 307.127 249.054 307.656C249.654 308.83 250.352 309.985 251.478 310.724L251.408 310.679L251.652 310.838C257.337 314.158 261.618 315.406 267.478 311.615C268.042 311.293 268.925 310.807 269.311 311.615C270.173 313.627 261.666 315.93 260.174 315.538Z" fill="#1E2322"/>
<path d="M264.173 314.16C263.626 313.015 269.767 310.784 270.77 309.946C271.719 309.66 273.698 308.128 274.352 309.346C274.394 309.533 274.373 309.729 274.294 309.904C274.215 310.079 274.082 310.224 273.914 310.316C270.743 311.782 267.49 313.065 264.173 314.16Z" fill="#1E2322"/>
<path d="M300.715 297.702C297.512 297.607 295.073 295.331 292.277 294.072C287.979 292.325 282.051 293.102 279.694 297.481C279.343 297.869 278.619 297.595 278.755 297.044V297.056C279.54 295.412 280.777 294.025 282.321 293.059C283.865 292.092 285.653 291.585 287.475 291.598H287.587C290.981 291.299 294.246 292.842 296.945 294.762L296.928 294.751C298.364 295.915 300.141 296.134 301.878 296.454C302.745 297.229 301.585 298.012 300.715 297.702Z" fill="#1E2322"/>
<path d="M306.3 297.743C305.871 297.626 304.678 297.987 304.775 297.283C305.023 296.881 305.623 297.265 306.02 297.141H305.997C308.304 296.947 310.549 296.231 312.751 295.55L312.672 295.577C313.077 295.399 313.729 295.251 313.815 295.857C314.245 297.052 307.243 297.844 306.3 297.743Z" fill="#1E2322"/>
<path d="M290.769 309.36C288.148 308.939 285.796 307.507 283.505 306.232C282.923 305.829 281.758 305.728 282.044 304.763C282.482 303.467 283.945 304.249 284.708 304.789C286.114 305.679 287.655 306.325 289.124 307.101C292.906 309.019 296.548 306.475 299.542 304.302C300.124 303.811 302.788 302.48 302.827 303.818C302.792 303.908 302.725 303.982 302.639 304.026C302.553 304.069 302.454 304.079 302.361 304.053C301.552 303.859 300.82 304.548 300.227 305.023L300.145 305.093L300.19 305.054C297.617 307.453 294.541 309.907 290.769 309.36Z" fill="#1E2322"/>
<path d="M267.93 306.739C267.121 304.649 272.831 303.667 274.28 303.939C275.726 304.036 275.381 305.369 274.459 305.121C272.682 304.824 270.772 305.551 269.265 306.459C268.886 306.735 268.357 307.193 267.93 306.739Z" fill="#1E2322"/>
<path d="M257.279 309.383C255.11 309.362 251.736 306.769 253.449 304.557C254.049 304.396 253.47 305.399 254.142 305.925L254.097 305.865L254.413 306.282L254.396 306.257L254.475 306.362L254.425 306.296C255.217 307.266 256.536 307.642 257.735 307.817C258.734 308.044 258.174 309.563 257.279 309.383Z" fill="#1E2322"/>
<path d="M324.702 302.077C323.606 301.732 324.636 300.525 324.572 299.762C324.71 297.277 321.751 296.25 319.684 296.413C319.634 296.419 319.583 296.414 319.535 296.398C319.487 296.382 319.443 296.356 319.407 296.321C319.37 296.287 319.341 296.245 319.322 296.198C319.303 296.151 319.294 296.101 319.296 296.05C319.451 294.886 324.395 295.928 324.772 296.939C325.606 297.787 326.149 298.864 325.92 300.075C325.81 300.822 325.746 302.176 324.702 302.077Z" fill="#1E2322"/>
<path d="M142.846 230.145C137.26 229.965 135.337 226.102 131.772 222.675L131.844 222.741C129.283 220.484 128.039 220.552 125.086 221.901C121.904 222.483 118.489 222.725 115.448 221.388C109.901 218.583 109.616 210.839 113.363 206.415C115.398 204.053 118.407 202.75 121.398 202.074C126.338 201.001 131.099 202.862 135.867 203.838C138.521 204.017 141.464 203.619 142.96 201.17C145.832 197.656 149.752 194.705 154.498 194.847C162.199 193.931 165.301 200.177 172.653 199.932C178.61 199.269 182.041 193.273 187.924 192.365L187.757 192.396C197.292 190.293 211.71 199.769 203.778 209.812C200.765 213.482 195.74 212.659 191.783 214.425C187.039 216.293 185.562 221.472 181.849 224.514C176.61 228.801 169.584 224.869 165.065 221.334C161.318 218.602 157.723 220.508 155.406 223.979C152.292 227.551 147.833 230.85 142.846 230.145ZM145.011 227.799C150.394 227.632 153.471 222.733 156.983 219.398C160.973 216.427 165.327 218.208 168.701 221.126C172.675 223.703 178.672 225.942 182.068 221.321C187.256 213.617 189.998 211.925 199.143 210.261C207.68 206.904 202.595 197.115 195.615 195.5C191.587 194.006 186.954 194.336 183.378 196.799C181.379 198.168 179.691 200.029 177.394 200.924C171.379 204.147 165.519 201.325 160.307 198.013C154.009 195.528 147.889 197.324 144.024 202.901C142.144 205.765 138.377 206.258 135.209 206.108C130.187 205.227 125.034 203.033 119.956 204.896C109.625 207.957 111.513 221.971 122.979 220.137C124.944 220.154 126.471 218.814 128.299 218.377C135.762 218.625 136.625 228.48 145.011 227.799Z" fill="#1E2322"/>
<path d="M141.6 224.864C136.422 224.458 135.302 219.669 131.429 217.325L131.526 217.389C129.848 216.299 127.733 215.628 125.734 216.031L125.796 216.02C120.658 218.396 126.706 211.244 134.784 217.298C137.268 219.71 139.08 222.832 142.966 222.952C143.969 223.249 145.766 222 146.145 223.422C146.03 225.292 142.939 224.978 141.6 224.864Z" fill="#1E2322"/>
<path d="M149.008 219.994C148.997 219.936 149.003 219.875 149.028 219.821C149.052 219.766 149.093 219.721 149.144 219.691C149.726 219.194 150.023 218.496 150.438 217.877C150.438 217.891 150.421 217.902 150.413 217.914L150.526 217.751L150.468 217.834C151.244 216.887 151.995 215.719 153.236 215.382C153.877 215.188 154.994 214.78 155.136 215.77C155.225 217.046 153.626 216.866 152.864 217.386C152.063 217.729 149.583 220.551 149.008 219.994Z" fill="#1E2322"/>
<path d="M170.364 206.92C166.862 206.679 164.275 204.215 161.295 202.715C157.546 201.295 152.156 200.142 149.137 203.491C148.626 204.462 147.491 203.491 148.345 202.797C152.666 197.882 161.046 198.996 165.738 202.832C167.356 203.802 169.037 204.704 170.913 205.036C172.108 205.317 171.45 207.131 170.364 206.92Z" fill="#1E2322"/>
<path d="M176.689 204.496C176.684 204.433 176.7 204.37 176.736 204.318C176.771 204.266 176.823 204.227 176.883 204.209C178.053 203.816 179.198 203.355 180.314 202.829L180.236 202.868C182.644 201.376 184.261 198.698 187.07 197.745C188.186 197.483 191.092 196.077 191.312 197.924C191.16 199.759 188.013 198.921 186.74 199.948C184.843 200.86 183.442 202.536 181.624 203.58C180.419 203.986 177.745 204.921 176.689 204.496Z" fill="#1E2322"/>
<path d="M198.212 203.782C198.334 202.812 197.717 201.537 196.717 201.3H196.743C196.056 201.182 196.432 200.136 197.04 200.301H197.008C198.503 200.603 200.113 201.921 199.983 203.574C200.03 204.655 198.229 205.043 198.212 203.782Z" fill="#1E2322"/>
<path d="M175.318 218.128C174.541 218.112 174.382 217.076 174.908 216.626C175.434 216.176 176.185 216.432 176.788 216.17C178.608 215.557 180.13 214.394 181.445 213.023C182.974 211.424 184.771 210.081 186.903 209.408C187.514 209.293 188.908 208.575 189.113 209.468C189.092 210.05 188.477 210.001 188.054 210.034C187.058 210.342 186.111 210.79 185.242 211.365L185.275 211.344L185.25 211.36H185.264C185.24 211.377 185.215 211.393 185.19 211.408H185.205C182.095 213.834 179.796 218.12 175.318 218.128Z" fill="#1E2322"/>
<path d="M117.123 210.409C116.735 208.705 120.91 206.318 122.344 206.479C123.274 207.325 122.048 207.929 121.242 208.032C120.078 208.492 118.794 208.924 117.944 209.879C117.917 210.265 117.528 210.865 117.123 210.409Z" fill="#1E2322"/>
<path d="M226.024 127.114C218.861 127.847 214.867 120.451 208.321 119.188C206.008 118.823 204.331 120.685 202.306 121.456C199.948 122.364 197.443 122.832 194.917 122.835C187.111 122.93 179.65 115.875 184.656 108.234L184.637 108.261C184.691 108.186 184.744 108.11 184.796 108.033L184.705 108.166C184.78 108.054 184.858 107.943 184.936 107.831L184.872 107.926C189.362 101.814 195.35 102.095 202.067 103.463C204.104 103.657 206.481 103.308 207.818 101.606C211.264 97.0289 216.586 92.8746 222.642 93.8448C225.188 94.4385 227.326 96.0975 229.889 96.6757C232.736 97.6983 235.431 96.5147 237.785 94.9159C241.302 92.9949 245.148 91.5397 249.192 91.398C259.503 90.5909 268.054 101.156 262.485 110.662C258.434 115.901 254.266 115.608 248.445 114.119C246.31 113.966 244.033 114.668 242.641 116.351C238.869 122.075 233.248 127.096 226.024 127.114ZM226.713 125.08C241.136 124.232 238.832 109.228 252.244 113.029C261.789 115.276 265.844 102.384 259.093 96.6951C255.754 93.35 250.773 92.5312 246.266 93.449C237.746 94.8324 235.237 101.624 226.007 96.9998C221.777 94.1669 216.423 95.6416 212.826 98.8276C210.655 100.545 209.429 103.339 206.922 104.623C201.735 107.194 195.8 102.877 190.64 105.566C186.339 107.377 182.937 113.19 186.806 117.059C190.733 120.905 196.702 120.879 201.654 119.298C202.43 118.431 203.763 118.196 204.809 117.746L204.677 117.79C205.413 117.496 206.179 117.28 206.96 117.146L206.819 117.173C214.669 115.901 218.855 126.056 226.713 125.08Z" fill="#1E2322"/>
<path d="M220.962 119.669C215.267 118.446 213.886 114.818 206.731 114.663H206.764H206.691H206.718C205.063 114.445 203.443 114.959 201.954 115.633C201.361 116.098 200.79 115.604 201.537 115.245C203.672 114.016 205.967 113.275 208.443 113.564C210.833 113.714 213.431 114.02 215.49 115.328C217.283 116.514 219.227 117.544 221.311 118.101C222.237 118.322 221.802 119.727 220.962 119.669Z" fill="#1E2322"/>
<path d="M225.995 119.551C225.256 119.386 225.652 118.336 226.313 118.518C228.723 118.227 231.62 117.577 232.91 115.315C233.368 114.56 233.758 113.763 234.434 113.169C235.249 112.311 236.455 113.466 235.689 114.345C233.51 118.192 230.419 119.863 225.995 119.551Z" fill="#1E2322"/>
<path d="M238.283 111.3C237.119 110.33 242.527 107.068 242.746 108.859C242.723 110.217 240.484 109.876 239.603 110.605C239.096 110.72 238.84 111.531 238.283 111.3Z" fill="#1E2322"/>
<path d="M230.386 103.053C227.293 102.574 224.519 100.678 221.325 100.82C220.261 100.839 219.274 101.274 218.321 101.652C217.658 101.58 217.908 100.682 218.453 100.622C220.371 99.6232 222.568 99.294 224.695 99.6867C226.779 100.278 228.894 100.837 230.916 101.613C231.731 101.949 231.176 103.203 230.386 103.053Z" fill="#1E2322"/>
<path d="M235.221 101.501C234.375 101.566 234.364 100.498 235.167 100.623C238.099 100.461 239.993 98.1331 242.54 97.0678C242.628 97.0432 242.719 97.0361 242.809 97.047C242.899 97.0579 242.985 97.0865 243.064 97.1313C243.143 97.1761 243.212 97.2361 243.267 97.3078C243.323 97.3795 243.363 97.4615 243.386 97.549C243.608 98.5929 242.3 98.7346 241.659 99.1828C239.673 100.364 237.657 101.717 235.221 101.501Z" fill="#1E2322"/>
<path d="M252.541 110.178C251.65 110.013 247.461 110.114 247.991 108.734C248.379 107.054 251.788 109.705 254.33 108.589C255.162 108.332 255.922 107.883 256.55 107.279L256.456 107.357C260.531 104.398 258.009 100.063 254.353 98.1984H254.367C252.968 97.5795 251.274 97.1196 249.782 97.628C249.291 97.8104 249.2 97.0459 249.654 96.9488C254.01 95.3364 259.998 98.0277 260.283 102.993C260.446 107.004 256.358 110.256 252.541 110.178Z" fill="#1E2322"/>
<path d="M188.566 113.847C187.249 112.14 187.646 108.791 189.845 108.055H189.808C190.536 107.97 190.369 109.086 189.738 109.026C188.452 110.533 189.315 111.824 190.039 113.232C190.056 113.964 189.03 114.526 188.566 113.847Z" fill="#1E2322"/>
<path d="M108.626 193.762C108.585 193.745 108.546 193.724 108.51 193.698H108.52C108.491 193.676 108.466 193.652 108.444 193.624C108.46 193.649 108.481 193.67 108.504 193.688C107.893 192.159 108.677 190.163 108.698 188.502C109.045 185.766 109.245 183.011 109.705 180.29C110.603 173.152 111.69 166.32 120.311 165.767C122.098 165.621 123.111 165.088 123.522 163.266C124.189 161.501 124.741 159.696 125.173 157.86C126.433 152.937 126.889 147.285 130.321 143.307C135.836 137.576 144.264 137.073 147.809 145.122C151.288 151.913 149.624 160.774 154.051 167.082C156.434 168.716 159.065 163.543 164.011 166.285C169.444 170.092 169.555 177.799 170.486 183.783C170.5 186.142 171.573 188.729 170.837 190.985C170.348 191.688 169.103 191.486 169.147 190.533C169.196 188.556 168.825 186.589 168.678 184.619C167.944 177.259 166.875 162.142 155.91 168.798C149.313 170.457 148.993 155.093 147.945 150.84C146.121 140.731 138.632 136.895 131.064 144.904C128.13 149.431 127.977 155.171 126.483 160.247C123.961 168.891 123.611 166.196 116.469 168.784C111.576 171.126 111.55 184.569 109.981 189.817C109.598 190.659 109.746 194.101 108.626 193.762Z" fill="#1E2322"/>
<path d="M131.763 152.903C130.946 152.74 131.774 150.126 131.813 149.437C131.845 149.321 131.917 149.22 132.016 149.152C132.116 149.084 132.237 149.055 132.357 149.069C133.022 149.362 132.341 150.342 132.45 150.91V150.846C132.289 151.479 132.593 152.744 131.763 152.903Z" fill="#1E2322"/>
<path d="M134.611 148.347C134.326 147.85 134.611 145.881 135.432 146.034C135.967 146.15 135.781 146.692 135.69 147.064C135.773 147.736 135.504 148.979 134.611 148.347Z" fill="#1E2322"/>
<path d="M134.852 154.742C134.528 154.205 134.906 153.502 134.784 152.899C134.784 152.924 134.784 152.949 134.784 152.975C134.747 152.449 134.557 151.523 135.329 151.486C135.989 151.595 135.717 152.528 135.894 153.011C136.07 153.741 135.971 155.462 134.852 154.742Z" fill="#1E2322"/>
<path d="M138.502 146.876C138.46 146.316 138.518 145.753 138.672 145.213C138.785 144.711 139.6 144.798 139.437 145.349C139.406 145.763 139.536 146.182 139.588 146.593C139.712 147.239 138.608 147.629 138.502 146.876Z" fill="#1E2322"/>
<path d="M138.894 151.86C138.781 151.224 138.81 149.697 139.809 150.326C140.054 150.686 139.809 151.17 139.955 151.581C140.067 152.215 138.996 152.596 138.894 151.86Z" fill="#1E2322"/>
<path d="M139.15 158.828C139.194 157.883 138.451 156.04 139.881 155.887C140.941 155.988 140.329 157.792 140.543 158.564C140.589 159.35 139.272 159.734 139.15 158.828Z" fill="#1E2322"/>
<path d="M118.052 180.139C117.1 179.982 117.746 178.72 117.804 178.107C117.998 177.578 118.008 176.377 118.774 176.458C119.279 176.72 118.759 177.374 118.803 177.816C118.654 178.563 119.178 180.024 118.052 180.139Z" fill="#1E2322"/>
<path d="M119.929 174.023C119.618 173.635 120.111 171.769 120.728 171.873C121.184 171.984 120.949 172.539 120.943 172.869C121.042 173.484 120.707 174.605 119.929 174.023Z" fill="#1E2322"/>
<path d="M123.739 174.143C123.382 173.46 123.97 172.622 123.97 171.887C123.968 171.821 123.98 171.756 124.005 171.695C124.03 171.634 124.068 171.58 124.115 171.535C124.163 171.49 124.22 171.456 124.282 171.434C124.344 171.413 124.41 171.405 124.475 171.411C124.97 171.584 124.634 172.288 124.747 172.688C124.865 173.367 124.735 174.799 123.739 174.143Z" fill="#1E2322"/>
<path d="M121.194 179.908C121.228 178.806 121.546 177.731 122.115 176.786C123.28 175.903 122.309 179.22 122.494 179.749C122.517 180.545 121.2 180.824 121.194 179.908Z" fill="#1E2322"/>
<path d="M119.843 187.525C119.96 186.475 119.729 184.247 121.139 184.133C121.235 184.156 121.323 184.2 121.399 184.262C121.474 184.324 121.535 184.403 121.575 184.492C121.616 184.581 121.636 184.678 121.633 184.776C121.63 184.874 121.606 184.97 121.561 185.056C121.337 185.73 121.483 186.508 121.46 187.218C121.522 188.13 119.981 188.576 119.843 187.525Z" fill="#1E2322"/>
<path d="M126.673 181.852C126.208 181.478 126.741 178.728 127.486 178.919C127.936 179.266 127.416 180.052 127.589 180.574C127.773 181.2 127.519 182.308 126.673 181.852Z" fill="#1E2322"/>
<path d="M130.798 182.636C130.981 181.899 130.344 180.413 131.342 180.193C131.994 180.269 131.664 181.876 131.883 182.431C131.996 183.117 130.829 183.459 130.798 182.636Z" fill="#1E2322"/>
<path d="M130.459 189.28C130.486 188.421 130.053 186.585 131.361 186.591C132.252 186.928 131.619 188.275 131.796 189.026C131.835 189.783 130.579 190.151 130.459 189.28Z" fill="#1E2322"/>
<path d="M149.408 178.219C149.49 177.386 149.102 175.417 150.184 175.24C150.239 175.252 150.291 175.275 150.336 175.308C150.381 175.341 150.419 175.384 150.446 175.433C150.473 175.482 150.489 175.536 150.493 175.592C150.497 175.648 150.489 175.704 150.47 175.756C150.254 176.492 150.406 177.278 150.39 178.032C150.421 178.585 149.494 178.849 149.408 178.219Z" fill="#1E2322"/>
<path d="M152.361 174.564C152.239 173.883 151.94 173.012 152.404 172.405C152.652 172.131 153.18 172.158 153.289 172.537V172.512C153.415 172.925 153.429 173.375 153.53 173.8V173.773L153.547 173.86V173.848C153.918 174.615 152.724 175.49 152.361 174.564Z" fill="#1E2322"/>
<path d="M158.037 176.326C157.455 175.626 157.701 174.477 157.35 173.637C157.156 173.032 158.177 172.515 158.386 173.212C158.446 174.037 159.674 176.61 158.037 176.326Z" fill="#1E2322"/>
<path d="M157.565 181.938C157.759 181.123 157.245 179.336 158.39 179.21C158.451 179.224 158.509 179.25 158.56 179.288C158.61 179.326 158.652 179.373 158.683 179.428C158.714 179.483 158.733 179.544 158.739 179.606C158.745 179.669 158.738 179.732 158.718 179.792C158.584 180.45 158.778 181.123 158.796 181.785C158.838 182.536 157.569 182.811 157.565 181.938Z" fill="#1E2322"/>
<path d="M152.674 186.084C151.855 182.151 154.808 182.336 153.925 183.971C153.788 184.804 154.484 186.187 153.415 186.579C153.333 186.603 153.248 186.608 153.164 186.595C153.08 186.583 153 186.551 152.929 186.504C152.859 186.457 152.799 186.395 152.755 186.323C152.711 186.25 152.683 186.169 152.674 186.084Z" fill="#1E2322"/>
<path d="M147.46 189.555C147.107 189.148 147.388 188.496 147.379 188.003V188.057C147.379 187.541 148.223 187.367 148.225 187.962C148.227 188.558 148.52 189.996 147.46 189.555Z" fill="#1E2322"/>
<path d="M159.933 187.439C159.834 186.546 160.204 184.416 161.44 185.522C161.696 186.059 161.335 186.686 161.44 187.268C161.469 188.174 159.952 188.502 159.933 187.439Z" fill="#1E2322"/>
<path d="M305.165 267.47C303.944 266.356 304.501 262.372 304.026 260.626C303.184 255.864 302.862 250.655 300.448 246.396C297.712 242.884 292.686 243.452 289.079 241.477C283 237.718 283.72 226.924 281.353 220.715C276.675 208.278 265.314 213.47 263.583 197.986C263.595 198.041 263.605 198.093 263.614 198.145C261.971 189.631 263.302 180.822 261.606 172.29C260.983 167.467 260.401 162.627 258.387 158.143C257.434 155.59 256.253 153.027 254.14 151.226L254.151 151.238C247.067 144.154 235.747 152.264 232.93 159.903C229.851 167.981 232.503 176.751 231.422 185.11C230.485 196.056 221.29 199.61 219.097 208.493C218.366 212.16 218.263 215.936 217.401 219.58C215.702 227.052 210.311 232.679 205.032 237.899C199.211 243.854 193.887 251.213 193.545 259.825C194.11 260.541 192.928 261.691 192.272 260.971C191.69 259.9 191.999 258.542 192.039 257.37C193.204 246.409 201.442 238.341 208.594 230.689C212.143 226.851 214.65 222.017 215.374 216.813C215.973 213.045 216.07 209.133 217.45 205.538C220.446 198.516 228.048 193.962 228.898 185.921C230.256 174.11 225.613 160.466 236.139 151.554C243.774 144.569 253.563 143.911 258.797 153.972C261.005 158.553 262.677 163.411 263.164 168.493C263.991 173.538 264.775 178.583 264.827 183.703C265.273 190.561 264.674 198.062 268.069 204.271C270.138 207.88 274.37 209.151 277.577 211.506C282.296 215.117 284.289 221.014 285.144 226.695V226.676C286.169 230.654 286.483 235.386 289.363 238.512C290.707 239.779 292.52 240.231 294.287 240.538C298.682 241.436 303.281 243.765 304.094 248.606C305.385 253.443 306.299 258.373 306.826 263.352C307.08 264.871 307.774 268.203 305.165 267.47Z" fill="#1E2322"/>
<path d="M240.742 166.863C240.422 165.148 240.899 163.204 242.218 162.028C243.447 161.805 242.606 163.081 242.412 163.631L242.445 163.545C242.011 164.515 242.09 165.561 242.145 166.595C242.203 167.401 240.864 167.789 240.742 166.863Z" fill="#1E2322"/>
<path d="M240.039 176.955C239.589 176.402 239.682 171.46 240.765 171.681C240.825 171.695 240.882 171.723 240.931 171.761C240.98 171.8 241.02 171.848 241.048 171.903C241.076 171.959 241.092 172.02 241.094 172.082C241.097 172.144 241.086 172.206 241.062 172.263C240.841 173.206 241.834 177.766 240.039 176.955Z" fill="#1E2322"/>
<path d="M247.267 170.837C247.19 170.232 247.214 169.619 247.337 169.021V169.039C247.498 168.544 247.55 167.62 248.259 167.681C248.324 167.695 248.385 167.723 248.438 167.763C248.491 167.803 248.536 167.854 248.568 167.912C248.6 167.971 248.62 168.035 248.625 168.101C248.631 168.168 248.622 168.235 248.6 168.298C247.981 169.178 248.891 170.781 247.892 171.243C247.824 171.263 247.752 171.269 247.682 171.258C247.612 171.248 247.545 171.223 247.486 171.185C247.426 171.146 247.376 171.095 247.338 171.035C247.3 170.975 247.276 170.908 247.267 170.837Z" fill="#1E2322"/>
<path d="M245.561 185.19C245.472 185.108 245.403 185.007 245.359 184.895C245.316 184.782 245.299 184.66 245.311 184.54C245.31 184.548 245.31 184.557 245.311 184.565C245.333 183.436 245.022 180.283 246.697 180.391C247.506 180.741 246.788 181.577 246.79 182.175C246.646 183.153 247.378 185.859 245.561 185.19Z" fill="#1E2322"/>
<path d="M241.169 190.592C241.281 189.692 241.39 187.746 242.67 187.942C243.641 188.45 242.517 189.595 242.67 190.413C242.705 191.335 241.19 191.667 241.169 190.592Z" fill="#1E2322"/>
<path d="M235.119 183.799C235.216 182.828 235.365 179.974 236.749 180.232C237.435 180.814 236.36 181.68 236.494 182.438C236.388 183.11 236.688 184.237 235.761 184.394C235.678 184.403 235.595 184.394 235.516 184.367C235.438 184.341 235.365 184.299 235.305 184.242C235.244 184.186 235.196 184.117 235.164 184.04C235.132 183.964 235.116 183.881 235.119 183.799Z" fill="#1E2322"/>
<path d="M235.142 169.743C234.255 169.592 234.851 168.385 234.897 167.803C235.08 167.259 235.018 166.103 235.868 166.268C236.45 166.574 235.97 167.399 235.978 167.913C235.798 168.525 236.031 169.685 235.142 169.743Z" fill="#1E2322"/>
<path d="M242.207 156.851C240.93 156.754 242.595 153.036 243.549 153.793C244.075 154.263 243.419 154.783 243.204 155.221C242.824 155.737 243.051 156.818 242.207 156.851Z" fill="#1E2322"/>
<path d="M248.695 157.505C248.663 156.649 248.829 155.797 249.18 155.015C249.235 154.876 249.339 154.762 249.473 154.695C249.606 154.628 249.76 154.612 249.904 154.65C250.589 154.982 249.904 155.764 249.842 156.278C249.648 156.843 250.009 157.831 249.209 157.982C249.143 157.99 249.076 157.983 249.013 157.962C248.949 157.941 248.891 157.907 248.842 157.862C248.794 157.816 248.755 157.761 248.73 157.699C248.704 157.638 248.692 157.571 248.695 157.505Z" fill="#1E2322"/>
<path d="M253.808 170.051C253.754 169.038 253.226 166.888 254.623 166.667C254.695 166.684 254.762 166.716 254.821 166.761C254.879 166.807 254.927 166.864 254.961 166.93C254.995 166.996 255.014 167.068 255.018 167.142C255.021 167.216 255.008 167.289 254.98 167.358C254.979 167.349 254.979 167.34 254.98 167.331C254.487 168.322 255.82 169.997 254.532 170.54C254.452 170.561 254.368 170.564 254.287 170.55C254.205 170.536 254.128 170.505 254.059 170.459C253.991 170.413 253.933 170.352 253.89 170.282C253.846 170.212 253.818 170.133 253.808 170.051Z" fill="#1E2322"/>
<path d="M252.88 179.891C252.991 179.114 252.9 177.517 253.959 177.504C254.889 177.861 253.903 179.041 254.033 179.753C254.058 180.457 252.894 180.709 252.88 179.891Z" fill="#1E2322"/>
<path d="M261.678 223.057C261.653 221.984 261.748 220.899 261.554 219.836C261.513 219.72 261.499 219.596 261.511 219.474C261.524 219.352 261.563 219.233 261.626 219.128C261.689 219.022 261.775 218.932 261.876 218.863C261.978 218.794 262.094 218.748 262.215 218.728C263.399 218.565 262.863 222.075 262.974 222.906C262.997 223.693 261.703 223.981 261.678 223.057Z" fill="#1E2322"/>
<path d="M255.232 224.794C255.306 223.684 254.984 220.286 256.548 220.302C257.638 220.68 256.579 222.025 256.699 222.824C256.524 223.637 257.048 224.972 256.026 225.316C255.939 225.341 255.848 225.347 255.759 225.333C255.669 225.32 255.584 225.287 255.509 225.237C255.433 225.188 255.369 225.123 255.322 225.046C255.274 224.969 255.243 224.883 255.232 224.794Z" fill="#1E2322"/>
<path d="M259.879 213.307C259.862 212.242 259.121 210.773 260.031 209.935C260.187 209.803 260.389 209.737 260.594 209.752C260.798 209.767 260.989 209.861 261.125 210.014L261.1 209.981C261.474 210.835 261.216 211.945 261.462 212.892C261.625 213.835 260.073 214.407 259.879 213.307Z" fill="#1E2322"/>
<path d="M258.839 231.11C258.725 230.188 258.537 226.375 260.242 227.86C260.223 228.83 260.108 229.851 260.166 230.858C260.201 231.607 258.963 231.975 258.839 231.11Z" fill="#1E2322"/>
<path d="M259.866 240.286C260.089 239.186 259.216 237.148 260.591 236.7C261.936 236.7 260.97 239.252 261.133 240.137C261.15 240.907 259.891 241.186 259.866 240.286Z" fill="#1E2322"/>
<path d="M250.178 235.782C250.178 234.618 249.79 231.531 251.148 231.152C251.205 231.165 251.258 231.19 251.305 231.225C251.352 231.26 251.391 231.305 251.419 231.356C251.447 231.407 251.464 231.464 251.469 231.522C251.474 231.58 251.466 231.639 251.447 231.694C251.016 232.918 251.142 234.241 251.194 235.514C251.287 236.123 250.28 236.49 250.178 235.782Z" fill="#1E2322"/>
<path d="M270.854 226.816C270.673 225.809 270.006 223.549 271.502 223.36C271.578 223.377 271.65 223.41 271.713 223.457C271.775 223.504 271.827 223.563 271.865 223.632C271.903 223.7 271.926 223.776 271.933 223.854C271.94 223.932 271.929 224.01 271.903 224.084C271.676 224.81 271.94 225.586 272.047 226.315C272.27 227.022 271.118 227.627 270.854 226.816Z" fill="#1E2322"/>
<path d="M269.515 241.058C269.546 240.051 268.877 238.004 270.171 237.656C271.141 237.897 270.324 239.321 270.576 240.049C270.605 240.555 270.796 241.296 270.14 241.473C270.071 241.493 269.999 241.498 269.928 241.487C269.858 241.476 269.79 241.45 269.731 241.41C269.671 241.371 269.621 241.319 269.584 241.258C269.547 241.197 269.523 241.129 269.515 241.058Z" fill="#1E2322"/>
<path d="M224.775 232.833C223.688 232.511 225.18 230.285 225.316 229.534C225.535 228.939 226.469 229.205 226.187 229.837C225.663 230.559 225.648 232.718 224.775 232.833Z" fill="#1E2322"/>
<path d="M227.501 221.892C226.286 221.907 227.146 218.744 228.197 219.096C228.919 219.239 228.791 220.066 228.518 220.549C228.341 221.094 228.252 221.907 227.501 221.892Z" fill="#1E2322"/>
<path d="M232.876 215.04C232.639 213.992 232.317 211.353 233.949 211.528C234.637 211.99 233.708 212.661 233.883 213.274C233.83 213.965 234.465 214.989 233.617 215.377C233.332 215.494 232.94 215.374 232.876 215.04Z" fill="#1E2322"/>
<path d="M231.226 226.985C231.211 226.1 231.362 224.014 232.651 224.35C233.368 224.932 232.361 226.001 232.592 226.822C232.621 227.656 231.25 227.957 231.226 226.985Z" fill="#1E2322"/>
<path d="M230.241 240.185C230.456 239.048 229.6 235.935 230.823 235.495C230.902 235.487 230.983 235.498 231.057 235.528C231.132 235.557 231.198 235.604 231.25 235.665C231.303 235.726 231.339 235.799 231.357 235.877C231.376 235.955 231.375 236.036 231.354 236.114C231.275 237.424 231.548 238.724 231.496 240.037C231.519 240.796 230.26 241.071 230.241 240.185Z" fill="#1E2322"/>
<path d="M221.212 240.868C220.314 240.597 221.003 239.446 221.15 238.846C221.344 238.326 221.482 237.488 222.215 237.587C222.297 237.606 222.374 237.641 222.441 237.692C222.508 237.742 222.564 237.806 222.605 237.879C222.645 237.952 222.67 238.033 222.678 238.116C222.685 238.2 222.675 238.284 222.648 238.363C222.198 239.143 222.371 240.862 221.212 240.868Z" fill="#1E2322"/>
<path d="M217.134 237.218C216.284 236.947 216.978 235.878 217.091 235.301C217.382 234.68 217.5 233.398 218.449 233.623C219.386 234.147 218.255 235.282 218.123 236.008C217.945 236.493 217.824 237.317 217.134 237.218Z" fill="#1E2322"/>
<path d="M213.622 251.206C212.896 250.527 213.967 246.258 215.22 247.816C215.395 248.493 214.786 249.12 214.776 249.811C214.873 250.519 214.549 251.73 213.622 251.206Z" fill="#1E2322"/>
<path d="M219.908 256.877C220.023 255.849 220.432 252.948 221.849 253.218C222.974 253.831 221.62 255.125 221.527 255.994C221.426 256.602 221.445 257.473 220.65 257.568C220.554 257.579 220.457 257.569 220.365 257.539C220.274 257.509 220.19 257.459 220.119 257.394C220.049 257.328 219.994 257.248 219.957 257.159C219.921 257.07 219.904 256.974 219.908 256.877Z" fill="#1E2322"/>
<path d="M234.911 250.901C234.864 250.019 234.692 248.138 235.918 248.088C235.996 248.107 236.069 248.142 236.133 248.191C236.197 248.24 236.25 248.302 236.289 248.372C236.327 248.442 236.351 248.52 236.359 248.6C236.366 248.68 236.357 248.761 236.331 248.837C236.149 249.363 236.077 249.921 236.122 250.476C236.122 250.447 236.122 250.418 236.122 250.389C236.372 251.173 235.126 251.856 234.911 250.901Z" fill="#1E2322"/>
<path d="M320.635 209.068C319.092 203.053 321.184 196.768 319.368 190.829C319.368 190.842 319.378 190.856 319.384 190.871C315.656 182.528 308.283 192.08 307.299 171.484C307.299 171.538 307.299 171.594 307.299 171.648C307.299 171.546 307.299 171.454 307.286 171.34C307.286 171.396 307.286 171.451 307.286 171.507C307.27 171.175 307.253 170.845 307.237 170.513C307.237 170.568 307.237 170.624 307.237 170.678C306.824 166.239 307.268 159.952 302.305 157.996C295.471 158.043 293.342 165.814 292.797 171.402L292.815 171.208C292.793 179.099 291.466 185.731 286.799 192.264C285.325 194.686 284.642 197.503 284.23 200.294C284.424 200.647 283.949 201.109 283.608 200.858L283.65 200.887C282.038 194.991 286.9 189.56 288.662 184.142C290.511 179.208 289.588 173.839 290.523 168.748C291.482 164.238 293.045 159.451 297.26 156.995C301.472 154.667 304.841 155.095 307.513 159.294C308.927 161.539 308.972 164.339 309.319 166.906C309.932 171.563 309.226 182.221 314.521 184.02C322.129 186.207 322.597 191.921 322.127 198.86C321.865 201.995 322.024 205.15 322.599 208.243C322.958 209.411 321.07 210.407 320.635 209.068Z" fill="#1E2322"/>
<path d="M299.462 173.104C299.551 171.914 299.351 170.653 299.738 169.508C299.899 169.017 300.708 168.872 300.855 169.442C300.785 170.079 300.77 170.72 300.81 171.359C300.733 172.124 301.133 173.48 300.106 173.701C300.023 173.71 299.94 173.701 299.861 173.675C299.781 173.649 299.709 173.606 299.648 173.549C299.587 173.493 299.539 173.423 299.507 173.347C299.474 173.27 299.459 173.187 299.462 173.104Z" fill="#1E2322"/>
<path d="M294.2 181.251C293.544 180.216 294.299 178.751 294.603 177.673C294.935 176.759 296.365 177.166 295.936 178.134C295.217 179.008 295.969 181.953 294.2 181.251Z" fill="#1E2322"/>
<path d="M295.114 167.622C295.114 167.061 295.383 166.559 295.572 166.043C295.567 166.057 295.562 166.071 295.556 166.085C295.64 165.284 296.846 165.245 296.581 166.147C296.193 166.79 296.639 167.991 295.708 168.173C295.631 168.183 295.553 168.175 295.48 168.151C295.406 168.128 295.339 168.088 295.283 168.036C295.226 167.983 295.182 167.919 295.152 167.848C295.123 167.776 295.11 167.699 295.114 167.622Z" fill="#1E2322"/>
<path d="M302.801 165.207C302.627 164.359 301.932 162.508 303.368 162.504C304.134 162.818 303.95 164.037 304.214 164.733C304.367 165.521 303.063 166.095 302.801 165.207Z" fill="#1E2322"/>
<path d="M303.622 178.733C303.636 178.261 303.622 177.79 303.61 177.318C303.61 177.338 303.61 177.357 303.61 177.377C303.595 176.496 303.18 174.681 304.542 174.716C304.641 174.733 304.734 174.775 304.813 174.837C304.892 174.899 304.954 174.979 304.994 175.071C305.036 176.272 305.008 177.475 304.909 178.673C304.86 179.416 303.62 179.598 303.622 178.733Z" fill="#1E2322"/>
<path d="M298.826 184.594C298.868 183.721 298.767 181.812 300.073 181.996C300.946 182.442 299.998 183.509 300.147 184.254V184.243C300.3 185.116 298.905 185.64 298.826 184.594Z" fill="#1E2322"/>
<path d="M291.565 196.494C291.726 195.524 291.621 193.076 293.001 193.153C293.8 193.541 292.96 194.471 292.915 195.094C292.679 195.718 292.956 196.84 292.118 197.016C292.046 197.025 291.972 197.018 291.903 196.996C291.834 196.973 291.771 196.936 291.718 196.886C291.665 196.836 291.624 196.775 291.598 196.707C291.571 196.64 291.56 196.567 291.565 196.494Z" fill="#1E2322"/>
<path d="M302.782 202.36C301.787 201.545 301.977 199.729 302.287 198.586C302.609 197.422 304.396 197.758 303.892 199.003C303.343 200.03 304.747 202.542 302.782 202.36Z" fill="#1E2322"/>
<path d="M308.417 203.658C307.903 199.834 311.093 198.829 310.53 201.174C310.13 201.83 310.051 202.591 310.091 203.344C310.15 204.285 308.582 204.752 308.417 203.658Z" fill="#1E2322"/>
<path d="M96.2314 81.952C94.6927 81.6086 95.4863 79.4121 95.1273 78.277C93.6604 76.814 103.931 76.1155 104.988 75.7177C114.278 74.3381 123.588 73.0866 132.929 72.0311H132.884L133.938 71.9146L133.82 71.9282C137.343 71.5402 140.873 71.2142 144.402 70.8785C144.338 70.3721 144.416 69.594 145.087 69.6289C154.1 68.0922 163.355 68.1388 172.446 67.2365C172.601 66.0199 174.31 66.0393 175.261 65.9287C175.77 65.9889 176.47 65.8065 176.763 66.3459C177.506 68.5035 177.458 70.8552 177.592 73.1118C177.477 74.7281 178.356 77.0507 177.225 78.3507C176.299 79.0163 174.19 80.1417 174.12 78.1819C174.041 78.1491 173.969 78.1017 173.907 78.0422C166.885 77.9937 159.87 78.2149 152.85 78.4148C151.438 78.0849 144.169 79.579 144.65 77.691C134.825 77.8948 125.053 79.0124 115.284 79.903L115.394 79.8894C112.08 80.2523 108.785 80.7878 105.463 81.0769L105.576 81.0653C102.473 81.4281 99.3572 81.9015 96.2314 81.952ZM146.486 77.5959C146.571 77.5959 146.657 77.5843 146.74 77.5785L146.486 77.5959ZM174.584 67.807L174.654 68.0844C174.654 67.9855 174.654 67.8904 174.64 67.7875L174.584 67.807Z" fill="#004538"/>
<path d="M97.349 327.285C96.5981 315.596 96.4603 303.807 95.5096 292.081C89.6439 293.026 84.081 294.144 78.0679 294.604C73.0017 294.623 67.7608 295.38 62.7703 295.366C62.974 300.654 63.0167 305.896 63.4533 311.234C63.6939 314.226 63.7929 317.977 63.9714 321.312C64.1227 323.627 64.8018 327.44 61.5848 327.696C58.9653 327.57 59.431 324.533 59.2292 322.663C58.9886 319.223 58.9401 316.169 58.6471 312.845C57.6575 297.735 57.3956 282.382 56.2236 266.975C55.8744 259.152 54.9139 251.352 54.4773 243.552C53.9903 234.446 53.0686 225.343 52.6029 216.247C51.7279 204.935 52.0655 193.584 51.6832 182.229C51.2738 172.654 50.325 163.051 50.0689 153.596C49.5333 145.986 49.741 137.287 49.3529 129.398C48.3109 115.707 47.0245 102.334 46.4424 88.5169C47.1021 88.2452 47.7405 87.9251 48.3827 87.603L48.2818 87.6554C49.1977 87.178 50.131 86.7279 51.0856 86.334C51.5649 98.3233 52.4225 110.295 53.4412 122.246C54.3609 131.138 54.1145 141.067 54.5433 150.216C54.9546 159.917 55.7191 169.326 56.3284 179.076C56.6796 189.626 56.6059 200.208 57.2695 210.775C65.4189 209.6 73.6925 211.383 81.772 210.015C81.9175 211.674 81.9486 213.341 82.0514 215.001C74.7849 215.265 67.4989 215.584 60.2498 215.863C59.5668 216.445 58.6044 216.653 57.7448 216.87C58.6898 229.193 59.4465 241.264 60.3313 253.476C71.0381 250.797 82.3852 251.691 93.2336 249.904C92.7659 238.722 93.7691 226.366 93.7187 215.283C93.804 207.091 93.1191 197.238 93.1618 189.441C92.5933 172.068 93.1948 154.49 92.178 137.186C91.7143 131.726 91.6891 126.157 91.6813 120.676C91.6134 113.039 90.6587 104.094 90.3037 96.2045C91.9122 95.7116 93.544 95.3061 95.1428 94.7803C95.8705 106.422 96.7494 118.117 96.6815 129.683C97.9913 145.935 97.7099 162.349 98.0611 178.863C98.5423 198.322 99.3204 216.946 98.424 236.38C98.0941 259.082 100.339 281.076 101.701 303.818C101.92 310.864 102.334 317.789 102.477 324.848C103.114 327.935 99.0468 331.138 97.349 327.285ZM60.8397 259.032C61.4819 269.897 62.1824 280.8 62.6054 291.682C73.3296 289.386 84.5001 290.219 95.1157 287.219C93.9515 276.188 93.5945 265.33 93.2976 254.233C89.0793 254.728 84.8319 254.922 80.5942 255.126H80.6194C73.8981 255.242 67.2467 256.096 60.5525 255.776C60.6592 256.866 60.7601 257.943 60.8397 259.032Z" fill="#004538"/>
<path d="M85.7283 211.875C85.6682 211.087 85.6177 210.297 85.5634 209.51C90.0902 208.38 89.6032 214.232 85.969 214.776C85.8816 213.809 85.804 212.841 85.7283 211.875Z" fill="#004538"/>
<path d="M88.1596 60.6825C87.2534 48.8814 86.8188 37.5363 85.8312 26.0592C85.4237 17.7313 83.8908 9.14334 85.4295 0.916322C89.1996 -3.45331 89.0502 10.3037 89.5236 12.0364C91.6172 28.8688 92.0325 45.121 93.3189 62.0369C91.7065 62.7412 89.8632 62.9236 88.3963 63.9578C88.3128 62.9352 88.2352 61.8467 88.1596 60.6825Z" fill="#004538"/>
<path d="M45.8875 76.0266C45.8331 65.1607 44.7116 54.6577 44.0655 43.885C43.8714 31.5697 43.2525 19.268 42.3871 6.99534C41.999 1.96599 49.5663 1.98152 47.3369 7.2049C48.9512 18.7421 48.2333 30.3182 48.4351 41.8709C49.1123 52.9696 50.488 64.2352 50.4899 75.3203C48.8038 75.5318 47.3214 76.4108 45.8952 77.282C45.8913 76.859 45.8887 76.4406 45.8875 76.0266Z" fill="#004538"/>
<path d="M56.3653 181.224C54.5569 181.356 52.8959 179.526 54.6073 178.108C56.6621 176.976 59.2408 177.062 61.5091 176.565C66.847 175.632 72.2527 175.246 77.6003 174.431C77.7652 176.156 78.0446 177.888 78.6481 179.518C71.2787 180.558 63.7967 180.995 56.3653 181.224Z" fill="#004538"/>
<path d="M82.1057 178.76C82.0825 178.612 82.0572 178.465 82.0339 178.319C82.0339 178.375 82.0514 178.432 82.0611 178.488L82.0146 178.209C82.0146 178.265 82.0339 178.321 82.0417 178.377C81.8258 176.817 81.3676 175.299 80.6835 173.88C83.0255 173.643 85.3966 173.338 87.7366 173.249C90.391 173.74 89.871 177.636 87.626 178.368C85.8797 178.95 84.0131 178.86 82.2066 179.039L82.1057 178.76Z" fill="#004538"/>
<path d="M53.2103 141.936C52.9764 141.966 52.7385 141.938 52.5188 141.852C52.299 141.766 52.1044 141.626 51.953 141.446C51.8015 141.265 51.6981 141.049 51.6523 140.817C51.6065 140.586 51.6198 140.347 51.691 140.122C52.6709 137.828 56.1188 138.117 58.2008 137.541C58.2726 138.011 58.2571 138.488 58.2862 138.961C58.3494 139.838 58.4792 140.708 58.6743 141.565C56.8542 141.674 55.0322 141.825 53.2103 141.936Z" fill="#004538"/>
<path d="M60.9522 137.036C63.364 137.036 63.2108 140.484 61.2336 141.14C61.1365 139.773 61.0428 138.405 60.9522 137.036Z" fill="#004538"/>
<path d="M59.9917 137.179H60.0305C60.0305 137.243 60.0402 137.303 60.0305 137.373C60.0247 137.299 60.0073 137.239 59.9917 137.179Z" fill="#004538"/>
<path d="M50.5656 98.7309C47.7618 93.8083 64.2566 93.6977 67.0584 93.0205C67.1671 94.5359 67.4853 96.03 67.561 97.5493C64.3711 97.9839 61.1579 98.2012 57.9602 98.502C55.6551 98.5388 52.5894 100.157 50.5656 98.7309Z" fill="#004538"/>
<path d="M70.5394 96.4974C70.533 96.3355 70.509 96.1748 70.4676 96.0181C70.4676 96.0511 70.4812 96.0841 70.4889 96.1171C70.2561 94.9529 69.998 93.7887 69.7788 92.6245C72.9318 92.0016 72.9435 96.5808 70.2386 97.128C70.3311 97.0506 70.4058 96.9543 70.4577 96.8455C70.5096 96.7366 70.5374 96.6179 70.5394 96.4974Z" fill="#004538"/>
<path d="M69.9321 93.4199C69.9321 93.4471 69.9437 93.4723 69.9476 93.4995C69.9418 93.4743 69.9379 93.4471 69.9321 93.4199Z" fill="#004538"/>
<path d="M56.6388 62.2347C53.8835 61.8583 50.8469 61.9398 48.2721 60.9289C47.2631 60.0654 48.1731 58.486 49.3703 58.4355C52.2401 57.9543 55.1467 58.387 58.0339 58.2861C64.1576 57.7254 70.3104 57.51 76.4244 56.8716C79.9384 56.2546 83.462 55.82 87.0148 55.525C88.992 54.4695 91.2835 55.9733 90.2862 58.2299C88.959 60.8629 85.2879 59.9102 82.8624 60.3642C74.2027 61.7768 65.4014 62.0931 56.6388 62.2347Z" fill="#004538"/>
<path d="M49.3529 62.1708C48.3497 62.1805 47.7211 61.0454 48.3827 60.244C49.5314 59.2738 51.3786 59.5009 52.795 59.0798C60.0538 57.9156 67.3728 56.8581 74.7402 56.8892C79.2185 56.7223 83.5629 55.3718 88.0626 55.3369C90.391 55.463 89.7778 58.9615 87.7308 59.0895C85.9243 59.2292 84.1024 59.1962 82.2978 59.4776C77.0221 60.6593 71.6512 60.2421 66.3056 60.6263C60.6282 60.8436 55.0109 61.9282 49.3529 62.1708Z" fill="#004538"/>
<path d="M49.8768 25.0013C48.4312 25.209 46.3163 23.938 47.7036 22.4459C48.6738 21.5378 50.1562 21.6096 51.3902 21.3651C54.454 20.9383 57.5411 20.7229 60.6146 20.395C68.9386 19.4248 77.2336 18.41 85.6119 18.1461C89.3471 16.7879 89.9156 22.1879 86.4482 22.7117C85.1948 22.7525 83.9432 22.7564 82.6879 22.8359H82.812C71.8084 23.0668 60.8921 24.7995 49.8768 25.0013Z" fill="#004538"/>
<path d="M88.6524 83.5787C84.6146 83.2818 86.5898 79.7524 89.6226 80.4858C91.2292 80.9321 90.7965 83.9144 88.6524 83.5787ZM88.9726 82.7191C89.1269 82.7034 89.2783 82.6669 89.4227 82.6105C88.763 82.4805 88.4642 81.6539 88.7514 81.0815C88.6136 81.1261 88.4778 81.1804 88.342 81.2348C87.8918 81.4094 87.4048 81.5996 87.1157 82.0109C87.4863 82.6551 88.3012 82.7443 88.9726 82.723V82.7191Z" fill="#1E2322"/>
<path d="M89.025 84.3716C88.8988 84.131 89.2597 84.2106 89.382 84.1271H89.3645C89.6121 84.0221 89.8368 83.8699 90.0262 83.6789V83.6886L90.0805 83.6362L90.063 83.6537C90.2081 83.5169 90.3329 83.3601 90.4336 83.188C90.649 82.8834 90.9905 83.2986 90.7286 83.5101C90.2377 83.8652 89.6808 84.5928 89.025 84.3716Z" fill="#1E2322"/>
<path d="M86.9604 87.7638C86.4327 87.5406 86.9604 86.846 87.0342 86.4657C86.9934 86.1533 87.3407 85.7982 87.6473 85.9748C87.7055 86.0164 87.7537 86.0706 87.7882 86.1333C87.8227 86.196 87.8428 86.2656 87.8469 86.3371C87.851 86.4086 87.839 86.4801 87.8119 86.5463C87.7847 86.6125 87.7431 86.6718 87.69 86.7199C87.4494 87.0381 87.4358 87.7424 86.9604 87.7638Z" fill="#1E2322"/>
<path d="M88.5651 87.2339C88.0664 87.0244 88.6873 86.3375 88.7844 86.0018C88.7758 85.9768 88.7765 85.9495 88.7864 85.9249C88.7962 85.9004 88.8145 85.8802 88.838 85.8679C88.8615 85.8557 88.8885 85.8523 88.9143 85.8584C88.9401 85.8644 88.9628 85.8795 88.9784 85.9009C89.0541 86.0814 88.9338 86.289 88.893 86.4636C88.7785 86.7042 88.9085 87.1835 88.5651 87.2339Z" fill="#1E2322"/>
<path d="M89.9796 86.7996C89.5314 86.8287 89.9796 85.6471 90.1523 85.5481C90.4608 85.4996 90.2939 86.887 89.9796 86.7996Z" fill="#1E2322"/>
<path d="M80.9978 257.432C78.1979 255.917 85.8234 251.861 86.8188 250.559C85.0318 242.604 85.9127 234.334 85.3383 226.235C84.6825 206.832 84.2498 187.132 78.4987 168.441C70.0233 171.169 61.0667 172.395 52.8649 175.983L52.9736 175.938C50.1407 177.351 47.1526 178.631 44.5176 180.364C43.4698 183.519 44.3138 187.044 45.284 190.13L45.2549 190.046C47.0924 195.109 49.7953 199.777 52.1703 204.599C54.1378 208.708 55.9908 212.89 58.5734 216.66C58.9246 217.766 57.6187 218.579 57.1317 219.454C55.7036 221.138 54.4676 218.191 53.3519 217.471C51.9103 221.047 48.9706 224.107 45.2782 225.339L45.3733 225.3C41.6866 227.24 40.6641 226.133 43.2564 222.811C44.3041 221.258 45.088 219.578 46.0019 217.96C42.6859 211.557 39.4514 205.095 36.1916 198.655C33.9311 194.938 32.3109 190.894 30.5472 186.934C29.4257 184.342 28.1877 181.784 27.6813 178.979C23.3912 165.695 48.0684 161.642 56.6738 157.699C56.6882 157.706 56.7031 157.712 56.7184 157.716L56.6874 157.705L56.7262 157.718C56.7335 157.87 56.792 158.014 56.8921 158.128C56.9922 158.242 57.128 158.318 57.2772 158.345C63.0594 160.897 69.6857 161.255 75.9471 161.616C77.513 161.76 79.3893 161.874 80.8251 161.261C82.4356 159.468 83.9788 157.621 85.4548 155.718C85.868 157.887 85.8758 160.316 86.8518 162.292C90.3599 163.314 94.3337 163.151 97.968 162.808C98.6898 172.967 97.6498 183.208 97.4616 193.387C97.1045 202.443 97.1763 211.528 97.0735 220.593C97.2966 225.933 97.2423 231.278 97.5159 236.618C97.7099 242.552 98.4026 248.477 98.0204 254.417C97.8574 256.163 95.4591 255.633 94.2309 255.903C93.0124 255.529 93.2006 253.778 92.8882 252.766C89.9059 255.928 85.2161 257.17 80.9978 257.432ZM56.4138 218.173C56.4138 218.173 56.4138 218.173 56.4254 218.162C56.342 218.08 56.2644 217.993 56.1887 217.904C56.2624 217.997 56.3381 218.088 56.4138 218.175V218.173Z" fill="#1E2322"/>
<path d="M69.74 103.952C69.7206 103.9 69.7108 103.845 69.7109 103.789C69.9534 103.75 70.196 103.704 70.4385 103.669C70.3085 103.906 69.936 104.352 69.74 103.952Z" fill="#1E2322"/>
<path d="M88.7902 102.468C88.6679 102.357 88.5438 102.25 88.4176 102.146C89.0393 102.058 89.6662 102.014 90.2939 102.012C90.356 102.116 90.4162 102.223 90.4763 102.33C90.2707 102.377 90.0611 102.419 89.8515 102.452C89.5314 102.497 89.2073 102.52 88.8814 102.569C88.8581 102.532 88.8251 102.499 88.7902 102.468Z" fill="#1E2322"/>
<path d="M44.114 87.8314C43.8732 87.4746 43.5969 87.143 43.2893 86.8418C44.5107 86.1966 45.7697 85.6251 47.0594 85.1305L46.9605 85.1712C48.5224 84.527 50.2784 84.3834 51.7822 83.5937L51.6949 83.5821L51.7628 83.5918C51.105 83.4307 50.4608 83.5918 49.8224 83.6694C48.3653 82.9068 50.8275 82.0764 51.4058 81.6398C50.5578 81.4788 49.772 82.0725 48.9629 81.9871C47.9772 81.1722 49.6129 80.6638 50.2416 80.4523H50.2319L50.2842 80.431H50.2668C50.6199 80.2602 51.0623 80.1438 51.2932 79.8081C51.2301 79.741 51.156 79.6852 51.074 79.6432L51.1264 79.6704C50.2163 79.4414 49.2636 80.0681 48.3497 80.1302C46.6461 79.1232 50.096 78.4673 50.5113 77.7184C46.9178 77.7184 44.2537 80.7065 41.413 82.5323C41.025 82.8195 40.6369 83.1144 40.2818 83.4365C40.0655 83.175 39.8315 82.9286 39.5814 82.6992C41.9325 80.5477 44.5658 78.7264 47.4087 77.2857C48.7281 76.5542 53.0686 76.0342 50.878 78.5973C51.9258 78.5217 52.5952 79.8159 51.757 80.5377C52.9833 80.5513 52.7271 82.0046 51.8889 82.4373C54.1319 82.8894 52.3294 84.9849 50.9517 85.2779C48.6893 86.2093 46.4172 87.1077 44.2188 88.1981C44.2165 88.0688 44.1804 87.9424 44.114 87.8314Z" fill="#1E2322"/>
<path d="M132.399 77.3692C132.176 75.4289 131.152 72.8521 132.702 71.2494C133.305 70.8089 134.171 70.8807 134.522 71.5967C134.749 70.5994 136.245 70.2288 136.54 71.3736C137.083 70.4539 138.119 69.7553 138.416 71.263C139.538 69.4798 140.83 70.8749 140.572 72.4815C140.153 74.8196 140.349 77.2509 140.529 79.6064C140.132 79.5395 139.728 79.52 139.326 79.5482C138.841 76.8647 139.26 74.1269 139.642 71.5172C139.642 71.5385 139.642 71.5579 139.656 71.5793C139.654 71.5135 139.635 71.4495 139.601 71.3931C139.567 71.3368 139.519 71.29 139.462 71.2572C138.764 71.6452 138.641 72.4699 138.55 73.1878C137.52 74.5693 137.949 71.6142 137.621 71.1796C137.066 71.6957 136.664 72.4369 136.845 73.2111C136.988 73.6574 136.489 74.286 136.098 73.8184C135.752 73.1684 136.243 71.9693 135.595 71.5346H135.651C134.512 71.6511 135.651 75.6578 134.149 74.5266C133.897 73.9775 134.289 71.8703 133.313 72.2118C132.626 74.8351 133.95 77.6098 134.023 80.2855C133.669 80.292 133.316 80.329 132.968 80.3961C132.725 79.3833 132.56 78.3724 132.399 77.3692Z" fill="#1E2322"/>
<path d="M92.5777 163.025C84.896 162.637 86.8576 162.932 85.4548 155.712C83.9749 157.616 82.4317 159.464 80.8251 161.256C79.3912 161.869 77.513 161.754 75.9471 161.611C69.6857 161.256 63.0594 160.891 57.2772 158.339C56.4681 158.145 56.6815 157.253 57.219 156.865C57.9241 155.926 58.4689 154.877 58.8314 153.76C60.7019 149.264 60.7368 145.188 60.2983 140.436C59.8074 134.669 58.4143 128.963 57.1724 123.312C46.8091 122.924 30.8343 124.282 22.52 117.22C15.7094 109.986 18.5016 100.841 24.602 94.2053C28.667 89.5621 33.2559 85.1226 38.912 82.5362C40.1576 82.5168 40.9047 84.6705 41.8865 85.3768C42.5753 86.4304 45.3597 87.9167 43.6037 89.1294C41.6071 91.3298 38.9566 92.9985 36.83 95.1154L36.8552 95.0882C16.342 112.675 48.633 106.554 58.3929 105.684C64.0956 105.16 69.6934 104.379 75.4077 103.674C78.8363 103.699 82.0669 103.273 85.4509 103.23H85.4276C87.2069 103.036 89.089 103.218 90.8082 102.712C97.0172 101.505 103.5 101.414 109.75 102.155H109.672C115.493 102.593 121.291 103.187 127.123 103.319C129.828 103.193 132.681 104.054 135.31 103.319V103.292C135.578 100.279 135.116 97.8105 134.753 94.9601C134.194 90.7748 133.49 86.6322 131.842 82.7089C130.983 80.6812 133.356 80.1399 134.889 80.1961C136.73 80.0913 140.26 78.6865 141.627 80.1204C142.266 80.0836 142.353 82.3383 142.792 82.9398C145.337 89.2614 146.168 95.8197 147.315 102.522V102.489C148.025 107.559 147.955 114.713 142.163 116.653C137.312 118.543 132.036 119.108 126.895 119.533L126.547 119.558H126.582C122.232 120.198 117.946 120.072 113.561 120.006C110.307 119.952 106.977 120.186 103.676 119.971C103.465 126.557 100.601 133.014 102.014 139.568C102.968 144.078 104.299 148.337 105.828 152.673C106.698 154.699 106.798 157.119 107.549 159.143C109.296 161.772 100.417 162.548 98.8935 162.689C98.764 162.78 98.6137 162.836 98.4567 162.853C98.2998 162.87 98.141 162.847 97.9952 162.786C96.2197 163.103 94.3842 163.027 92.5777 163.025ZM87.8026 160.949H87.8181C87.7999 160.914 87.785 160.877 87.7735 160.838L87.8026 160.949ZM42.3192 121.232H42.3289C42.1077 121.232 41.8884 121.232 41.6769 121.232H42.3192ZM95.6784 103.214L96.0781 103.183C95.952 103.195 95.8181 103.199 95.6861 103.214H95.6784Z" fill="#00DA49"/>
<path d="M64.99 105.743C64.0199 104.214 68.828 104.161 69.7109 103.789C69.9534 103.75 70.196 103.703 70.4385 103.668C70.9197 103.6 71.4087 103.583 71.884 103.521C77.4062 102.908 82.944 103.055 88.4254 102.145C91.4135 101.788 94.423 101.938 97.4189 102.031C98.0553 102.114 98.9556 101.771 99.4038 102.349C99.4516 102.444 99.4786 102.549 99.4832 102.655C99.4878 102.762 99.4698 102.868 99.4304 102.967C99.391 103.066 99.3311 103.156 99.2547 103.23C99.1782 103.305 99.0868 103.362 98.9866 103.399C94.7664 103.614 90.4996 103.352 86.2852 103.872L86.3648 103.861C80.1557 104.621 73.8535 104.291 67.658 105.318C67.3864 105.356 67.1147 105.393 66.8411 105.426C66.2183 105.44 65.5586 105.931 64.99 105.743Z" fill="#004538"/>
<path d="M69.7943 103.37C69.8836 102.186 70.4598 101.166 71.6609 100.818C71.562 99.8074 71.5794 98.7907 71.5756 97.7759C69.5654 98.7286 68.0461 96.7009 69.6604 95.139C68.0713 95.43 67.6988 93.5265 69.0648 92.892C68.7918 92.8475 68.5413 92.7141 68.3519 92.5126C68.1626 92.3111 68.0451 92.0527 68.0176 91.7775C67.9902 91.5024 68.0544 91.2259 68.2002 90.9909C68.3461 90.756 68.5654 90.5758 68.8242 90.4783C69.513 90.1251 70.3085 90.1426 71.0322 89.8962C70.1339 84.5816 70.9023 78.6907 74.0456 74.2066C76.4322 70.8149 80.6311 69.3655 84.6592 69.9379C88.1227 70.5569 88.8115 68.4652 89.2404 65.5527C89.7332 63.4397 93.0473 62.7645 93.1055 65.4576C94.9352 64.1091 96.8678 65.4965 95.7502 67.592C96.7495 67.2505 97.9369 67.6308 97.9602 68.83C97.9602 68.8086 97.9602 68.7892 97.9602 68.7679L97.9777 68.9173V68.8552C98.0786 70.1203 97.2598 71.2399 96.3827 72.0664L96.4002 72.0509C95.0958 73.3422 93.4909 74.289 91.7298 74.8062C92.5254 77.0046 92.3119 79.43 92.9968 81.6497C93.4218 83.1535 95.0032 83.5163 96.1751 84.2517C96.7184 85.057 95.5464 85.7225 94.8906 85.934C94.4172 86.1494 93.9205 86.3221 93.4392 86.4986L93.1734 86.6054C93.3209 93.8331 96.278 94.1261 87.9985 95.9093L88.0762 95.8918C87.8938 95.9345 87.7133 95.9791 87.5329 96.0354C87.595 97.2908 87.5872 98.5578 87.7269 99.7996C88.7568 100.307 89.6404 101.068 90.294 102.012C89.6655 102.015 89.0379 102.061 88.4157 102.149C85.936 100.174 82.3619 101.507 79.4533 101.495C76.9309 102.138 71.6357 101.129 70.4366 103.673C70.194 103.707 69.9515 103.754 69.7089 103.793C69.7163 103.648 69.7451 103.506 69.7943 103.37ZM77.251 84.9037C75.334 85.2219 75.1458 88.2527 76.3624 89.4421C77.2452 89.8302 76.5564 91.235 76.504 91.9646C75.9976 94.1339 74.6995 96.1305 72.7223 97.217C72.5987 98.3067 72.5585 99.4043 72.602 100.5C77.2277 99.9393 81.9525 99.4446 86.6209 99.5299C86.65 98.1368 86.3202 96.6194 86.5957 95.2864C88.3847 94.0174 90.8974 94.2483 92.8668 93.3073C92.9968 92.1605 91.5086 85.8467 92.9231 85.9224C93.8118 85.6003 95.0012 85.5459 95.6396 84.8105C92.9755 84.0228 91.2195 82.129 91.1768 79.2631C91.1768 79.201 91.1632 79.137 91.1574 79.0691C91.1574 79.0924 91.1574 79.1157 91.1574 79.1389C91.1438 79.007 91.1302 78.8731 91.1186 78.7392C90.2231 79.2092 89.2782 79.5782 88.3012 79.8394L88.375 79.8239C87.463 80.1091 84.5661 80.2818 85.6721 78.6597C87.302 77.8525 89.1511 77.1249 91.0061 77.4043C90.9265 76.6282 90.9246 75.852 90.7519 75.0875C87.725 76.2517 84.7524 77.6527 81.6808 78.7489C81.6905 81.2714 82.2222 83.7569 82.5132 86.2522C83.0585 89.1627 82.616 88.8969 79.8957 89.5294C78.4424 88.7708 79.3485 84.8144 77.251 84.8998V84.9037Z" fill="#241F20"/>
<path d="M56.9202 120.218C56.1441 118.895 57.2035 118.313 57.3083 119.137C57.3963 119.35 57.511 119.551 57.6498 119.735C57.9486 120.171 57.1938 120.734 56.9202 120.218Z" fill="white"/>
<path d="M104.033 116.834C103.667 116.18 104.26 114.938 104.552 114.296C105.51 113.764 105.089 115.387 105.165 115.876V115.792C105.378 116.469 104.715 117.422 104.033 116.834Z" fill="white"/>
<path d="M85.4217 153.491C84.8086 151.745 85.5595 149.577 85.3364 147.693C85.3732 147.012 84.7543 145.213 85.9825 145.462C86.844 147.07 86.4482 149.199 86.553 150.998C86.5355 151.844 86.9042 154.094 85.4217 153.491Z" fill="white"/>
<path d="M92.766 102.822C92.1645 102.861 90.8082 102.359 91.8831 101.835C92.6015 101.921 93.3281 101.914 94.0446 101.813C94.1065 101.806 94.1691 101.813 94.2282 101.832C94.2873 101.852 94.3415 101.884 94.3871 101.926C94.4326 101.968 94.4684 102.02 94.4921 102.078C94.5157 102.135 94.5265 102.197 94.5239 102.26C94.4424 103.094 93.3481 102.805 92.766 102.822Z" fill="white"/>
<path d="M144.107 74.8879C143.669 74.4552 143.995 73.6558 143.913 73.0892C143.886 73.0384 143.873 72.9811 143.877 72.9235C143.88 72.8659 143.899 72.8104 143.933 72.7632C144.321 71.9871 144.662 73.0524 144.656 73.4618C144.753 73.9818 145.023 75.1421 144.107 74.8879Z" fill="white"/>
<path d="M173.235 76.4477C173.012 74.7674 173.235 73.0987 173.177 71.4184C173.338 70.6675 172.51 67.9141 173.759 68.1489C174.675 70.2231 174.128 72.7786 174.341 75.0177C174.34 75.0093 174.34 75.0009 174.341 74.9925C174.341 75.0216 174.341 75.0507 174.341 75.0779V75.0662C174.307 75.66 174.518 76.698 173.74 76.8571C173.619 76.8696 173.498 76.8335 173.403 76.7568C173.308 76.68 173.248 76.5689 173.235 76.4477Z" fill="white"/>
<path d="M77.7865 74.1481C77.0279 73.665 78.6112 72.8462 79.009 72.6094C79.5464 72.3882 79.7521 73.1915 79.2884 73.4108C78.7858 73.6242 78.3415 74.1248 77.7865 74.1481Z" fill="white"/>
<path d="M79.0808 75.6425C79.04 75.6089 79.0079 75.5659 78.9873 75.5173C78.9667 75.4686 78.9582 75.4157 78.9624 75.3631C78.9652 75.3085 78.977 75.2547 78.9973 75.2039C79.3854 74.6218 79.9869 74.1387 80.5321 73.708C81.0386 73.4344 81.3083 74.1795 80.8445 74.4162H80.8542C80.5612 74.6218 80.2993 74.8702 80.0218 75.0972L80.0354 75.0856L79.9908 75.1225H80.0024C79.6978 75.2971 79.5076 75.918 79.0808 75.6425Z" fill="white"/>
<path d="M80.7514 76.2926C79.9442 75.662 81.4945 74.9344 81.935 74.5657C82.0147 74.5148 82.1109 74.4965 82.2037 74.5146C82.2965 74.5327 82.3788 74.5857 82.4337 74.6627C82.6917 75.2759 81.7643 75.5456 81.4441 75.9297C81.3752 75.9866 81.3103 76.0481 81.2501 76.1141V76.1024L81.2287 76.1257C81.2477 76.1048 81.2646 76.082 81.2792 76.0578L81.3083 76.0015C81.2654 76.1085 81.1857 76.1966 81.0836 76.25C80.9815 76.3033 80.8637 76.3184 80.7514 76.2926Z" fill="white"/>
<path d="M35.8462 180.106C34.909 179.718 33.6711 179.398 33.2015 178.422C33.0075 177.84 34.032 177.395 34.1387 178.103C34.6257 178.88 36.7 178.769 36.4788 179.786C36.4301 179.907 36.3391 180.006 36.2228 180.065C36.1064 180.124 35.9725 180.138 35.8462 180.106Z" fill="white"/>
<path d="M37.7109 177.995C37.2859 177.45 35.5881 176.107 35.984 175.453C36.5389 175.259 36.8804 176.546 37.3694 176.812C37.5828 177.175 38.4579 177.502 38.1009 177.976C38.0766 178.003 38.0472 178.025 38.0144 178.04C37.9817 178.056 37.9461 178.065 37.9099 178.067C37.8737 178.068 37.8374 178.063 37.8033 178.051C37.7691 178.039 37.7377 178.02 37.7109 177.995Z" fill="white"/>
<path d="M82.325 167.962C81.8632 167.927 82.0281 167.224 82.4356 167.257C82.9867 167.422 84.0888 166.66 84.308 167.366C84.0849 168.041 82.9207 167.855 82.325 167.962Z" fill="white"/>
<path d="M84.4341 171.148C83.9297 170.989 82.6529 171.319 82.7305 170.527C83.0449 169.834 84.0208 170.445 84.6049 170.381C85.0647 170.471 84.8494 171.187 84.4341 171.148Z" fill="white"/>
</g>
<defs>
<clipPath id="clip0_475_19182">
<rect width="330.676" height="360" fill="white" transform="translate(0.662109 0.0703125)"/>
</clipPath>
</defs>
</svg>
