<svg width="27" height="25" viewBox="0 0 27 25" fill="none" xmlns="http://www.w3.org/2000/svg">
<path d="M9.6038 6.42065C10.2032 6.42065 10.7497 6.47349 11.2433 6.57936C11.737 6.68514 12.1601 6.85866 12.5126 7.09932C12.8651 7.34029 13.1384 7.66061 13.3324 8.06028C13.5263 8.45996 13.6233 8.9535 13.6233 9.5411C13.6233 10.1758 13.4793 10.7047 13.1914 11.1277C12.9033 11.5508 12.4774 11.8974 11.9133 12.1678C12.6889 12.3912 13.2677 12.7821 13.6498 13.3401C14.0314 13.8985 14.2229 14.5715 14.2229 15.3587C14.2229 15.9933 14.0995 16.5429 13.8525 17.0072C13.6058 17.4717 13.2736 17.8506 12.8566 18.144C12.4393 18.438 11.9633 18.6553 11.4287 18.7966C10.8906 18.9379 10.3366 19.0089 9.78032 19.0079H3.68042V6.42065H9.6038ZM9.25125 11.5157C9.74489 11.5157 10.1503 11.3982 10.4677 11.163C10.785 10.9281 10.9436 10.546 10.9436 10.0171C10.9436 9.72343 10.8908 9.48236 10.785 9.29433C10.6792 9.1064 10.5382 8.9592 10.3619 8.85363C10.1856 8.74775 9.98286 8.6746 9.7537 8.63318C9.51799 8.59155 9.27906 8.57092 9.03971 8.57153H6.44822V11.5158L9.25125 11.5157ZM9.40986 16.8571C9.68005 16.8571 9.93872 16.8306 10.1855 16.7778C10.4323 16.7248 10.6496 16.6367 10.8378 16.5132C11.0257 16.39 11.1756 16.2224 11.2874 16.0108C11.3989 15.7993 11.4548 15.529 11.4548 15.1998C11.4548 14.5536 11.2724 14.0923 10.9083 13.816C10.5438 13.5399 10.062 13.4017 9.4627 13.4017H6.44822V16.8569L9.40986 16.8571ZM17.706 16.5928C18.082 16.9574 18.6227 17.1392 19.3279 17.1392C19.833 17.1392 20.268 17.0131 20.6323 16.7603C20.9966 16.5079 21.22 16.2403 21.3022 15.9581H23.5059C23.1534 17.0511 22.6125 17.8328 21.884 18.3027C21.1551 18.773 20.2736 19.0079 19.2395 19.0079C18.5226 19.0079 17.8761 18.8933 17.3003 18.6641C16.7243 18.435 16.2365 18.1088 15.8372 17.6857C15.4375 17.2627 15.129 16.7577 14.9115 16.1698C14.694 15.5823 14.5855 14.9357 14.5855 14.2305C14.5855 13.5491 14.6969 12.9144 14.9205 12.3267C15.1435 11.7392 15.4607 11.2309 15.8725 10.8017C16.2836 10.3729 16.7744 10.0349 17.3445 9.78807C17.9144 9.5412 18.5461 9.41792 19.2396 9.41792C20.0154 9.41792 20.691 9.56772 21.2671 9.86743C21.8428 10.167 22.3159 10.57 22.6863 11.075C23.0564 11.5804 23.3236 12.1564 23.4885 12.8025C23.6531 13.4491 23.7116 14.1248 23.6649 14.8299H17.0891C17.1243 15.6407 17.3296 16.2286 17.706 16.5928ZM20.5354 11.7977C20.2358 11.4687 19.7802 11.304 19.1693 11.304C18.7696 11.304 18.4377 11.3718 18.1733 11.5068C17.9088 11.6421 17.6972 11.8093 17.5385 12.0092C17.3799 12.2091 17.2681 12.4208 17.2036 12.6438C17.1389 12.8672 17.1007 13.067 17.0889 13.2432H21.1612C21.0438 12.6085 20.8352 12.1268 20.5354 11.7977ZM16.6614 7.05979H21.7496V8.47056H16.6614V7.05979Z" fill="#004538"/>
</svg>
