<svg width="113" height="41" viewBox="0 0 113 41" fill="none" xmlns="http://www.w3.org/2000/svg">
<g clip-path="url(#clip0_20_1626)">
<path d="M21.45 18.6143V25.8643C21.45 27.7143 22.35 28.6143 24.2 28.6143H25C26.85 28.6143 27.75 27.7143 27.75 25.8643V22.3143H32V25.7143C32 30.3643 29.65 32.7643 24.95 32.7643H24.05C19.4 32.7643 17 30.4143 17 26.2643V8.46426C17 3.26426 19.35 0.864258 24.05 0.864258H24.95C29.6 0.864258 32 3.21426 32 7.91426V18.5643H21.45V18.6143ZM21.45 14.3643H27.7V7.76426C27.7 5.91426 26.8 5.01426 24.95 5.01426H24.25C22.4 5.01426 21.5 5.91426 21.5 7.76426V14.3643H21.45Z" fill="black" fill-opacity="0.15"/>
<path d="M34.9 1.26431H39.3V3.26431C40.35 2.16431 42.15 0.914307 44.65 0.914307C48.4 0.914307 50.25 3.41431 50.25 7.06431V26.5643C50.25 30.2643 48.4 32.7143 44.65 32.7143C42.1 32.7143 40.35 31.5143 39.3 30.4643V40.5143H34.9V1.26431ZM39.3 26.9643C40.5 28.0143 41.9 28.5643 43.35 28.5643C44.95 28.5643 45.9 27.8143 45.9 26.0143V7.61431C45.9 5.81431 45 5.06431 43.35 5.06431C41.9 5.06431 40.5 5.66431 39.3 6.66431V26.9643Z" fill="black" fill-opacity="0.15"/>
<path d="M52.9 21.5643C52.9 17.7143 54.15 16.1643 57.5 15.0143L63.4 13.0143V7.76426C63.4 5.91426 62.5 4.91426 60.65 4.91426H59.95C58.1 4.91426 57.2 5.91426 57.2 7.76426V12.1643H52.95V7.91426C52.95 3.26426 55.3 0.864258 60 0.864258H60.85C65.5 0.864258 67.9 3.21426 67.9 7.91426V32.3643H63.5V30.4143C62.3 31.5643 60.65 32.7143 58.15 32.7143C54.65 32.7143 53 30.7143 53 27.2143V21.5643H52.9ZM63.4 27.1143V16.8643L59.4 18.3643C57.8 19.0143 57.25 19.8143 57.25 21.6143V26.3643C57.25 27.8643 58 28.6143 59.4 28.6143C60.75 28.5643 61.95 28.1143 63.4 27.1143Z" fill="black" fill-opacity="0.15"/>
<path d="M85.5 32.3643H81.1V7.31431C81.1 5.76431 80.35 5.06431 79 5.06431C77.8 5.06431 76.5 5.51431 74.95 6.61431V32.3643H70.55V1.26431H74.95V3.26431C76.2 2.06431 77.9 0.914307 80.3 0.914307C82.55 0.914307 84.05 1.81431 84.85 3.46431C86.4 2.11431 88.25 0.914307 90.8 0.914307C94.2 0.914307 95.95 3.01431 95.95 6.41431V32.4143H91.55V7.31431C91.55 5.76431 90.8 5.06431 89.45 5.06431C88.25 5.06431 86.95 5.51431 85.4 6.61431V32.3643H85.5Z" fill="black" fill-opacity="0.15"/>
<path d="M11.45 4.11426V9.86426L4.1 16.8643L11.45 23.7643V29.6143L0.199997 19.0143V14.8143L11.45 4.11426Z" fill="black" fill-opacity="0.15"/>
<path d="M112.8 14.8143V19.0143L101.55 29.6143V23.7643L108.9 16.8643L101.55 9.81426V4.11426L112.8 14.8143Z" fill="black" fill-opacity="0.15"/>
</g>
<defs>
<clipPath id="clip0_20_1626">
<rect width="113" height="40" fill="white" transform="translate(0 0.714355)"/>
</clipPath>
</defs>
</svg>
