<svg width="25" height="25" viewBox="0 0 25 25" fill="none" xmlns="http://www.w3.org/2000/svg">
<path d="M12.6805 3.93652C7.71051 3.93652 3.68042 7.96591 3.68042 12.9366C3.68042 16.9131 6.2592 20.2867 9.83521 21.4767C10.285 21.56 10.4502 21.2815 10.4502 21.0438C10.4502 20.8292 10.4418 20.1201 10.4379 19.3681C7.93406 19.9125 7.40572 18.3062 7.40572 18.3062C6.99633 17.2659 6.40644 16.9894 6.40644 16.9894C5.58991 16.4308 6.46799 16.4422 6.46799 16.4422C7.37177 16.5057 7.84766 17.3697 7.84766 17.3697C8.65036 18.7456 9.95309 18.3478 10.4667 18.1179C10.5474 17.5361 10.7807 17.1392 11.0381 16.9144C9.03908 16.6868 6.9376 15.9151 6.9376 12.4665C6.9376 11.484 7.28919 10.6811 7.86495 10.0508C7.7715 9.82408 7.46346 8.90872 7.95213 7.66903C7.95213 7.66903 8.70789 7.42713 10.4278 8.59158C11.1456 8.39211 11.9156 8.29216 12.6805 8.28877C13.4453 8.29216 14.2158 8.39211 14.9351 8.59158C16.653 7.42713 17.4077 7.66903 17.4077 7.66903C17.8975 8.90872 17.5893 9.82408 17.4959 10.0508C18.0729 10.6811 18.4221 11.4839 18.4221 12.4665C18.4221 15.9233 16.3167 16.6845 14.3126 16.9072C14.6354 17.1865 14.923 17.7343 14.923 18.5739C14.923 19.7781 14.9126 20.7473 14.9126 21.0438C14.9126 21.2833 15.0746 21.5639 15.5308 21.4755C19.1049 20.2841 21.6804 16.9117 21.6804 12.9366C21.6804 7.96591 17.6509 3.93652 12.6805 3.93652Z" fill="#004538"/>
<path d="M7.05123 16.7571C7.03147 16.8018 6.96103 16.8152 6.897 16.7846C6.83171 16.7552 6.79501 16.6942 6.81618 16.6493C6.8356 16.6033 6.90604 16.5905 6.97119 16.6214C7.03662 16.6507 7.07389 16.7122 7.05123 16.7571ZM7.49395 17.1521C7.45103 17.1919 7.36711 17.1734 7.31014 17.1105C7.25127 17.0478 7.24026 16.9639 7.28381 16.9235C7.32807 16.8837 7.40946 16.9023 7.46847 16.9651C7.52734 17.0286 7.53877 17.1119 7.49388 17.1522M7.79768 17.6575C7.74248 17.6958 7.65227 17.6599 7.59658 17.5799C7.54145 17.4999 7.54145 17.4039 7.59778 17.3654C7.65368 17.3269 7.74248 17.3615 7.79895 17.4409C7.85401 17.5223 7.85401 17.6183 7.79761 17.6576M8.31126 18.2429C8.26192 18.2972 8.15689 18.2827 8.07995 18.2084C8.00132 18.1359 7.97937 18.0329 8.02885 17.9785C8.07875 17.924 8.18442 17.9393 8.26192 18.0129C8.34006 18.0853 8.36385 18.1891 8.31126 18.2429ZM8.97505 18.4405C8.95338 18.511 8.85216 18.543 8.75023 18.5131C8.64845 18.4822 8.58182 18.3996 8.60236 18.3284C8.62353 18.2575 8.72518 18.2241 8.82788 18.2561C8.92952 18.2868 8.99623 18.3688 8.97505 18.4405ZM9.7306 18.5243C9.73314 18.5985 9.64667 18.6601 9.53966 18.6614C9.43202 18.6638 9.34499 18.6037 9.34386 18.5307C9.34386 18.4558 9.42835 18.3948 9.53592 18.393C9.64293 18.3909 9.7306 18.4505 9.7306 18.5243ZM10.4727 18.4958C10.4856 18.5683 10.4112 18.6427 10.305 18.6624C10.2005 18.6815 10.1038 18.6368 10.0904 18.565C10.0775 18.4908 10.1533 18.4164 10.2575 18.3972C10.364 18.3787 10.4592 18.4222 10.4727 18.4958Z" fill="#004538"/>
</svg>
