<svg width="25" height="25" viewBox="0 0 25 25" fill="none" xmlns="http://www.w3.org/2000/svg">
<path d="M9.68151 12.7144C9.68151 11.0576 11.0242 9.71412 12.681 9.71412C14.3378 9.71412 15.6813 11.0576 15.6813 12.7144C15.6813 14.3711 14.3378 15.7146 12.681 15.7146C11.0242 15.7146 9.68151 14.3711 9.68151 12.7144ZM8.05964 12.7144C8.05964 15.2668 10.1286 17.3357 12.681 17.3357C15.2334 17.3357 17.3024 15.2668 17.3024 12.7144C17.3024 10.162 15.2334 8.09296 12.681 8.09296C10.1286 8.09296 8.05964 10.162 8.05964 12.7144ZM16.4054 7.90972C16.4053 8.12333 16.4685 8.33216 16.5871 8.50981C16.7057 8.68746 16.8744 8.82596 17.0717 8.90778C17.269 8.9896 17.4861 9.01108 17.6956 8.96949C17.9052 8.9279 18.0976 8.82512 18.2487 8.67414C18.3998 8.52316 18.5028 8.33076 18.5445 8.12128C18.5863 7.91179 18.565 7.69463 18.4833 7.49726C18.4017 7.29988 18.2633 7.13115 18.0857 7.01241C17.9082 6.89367 17.6994 6.83024 17.4858 6.83016H17.4854C17.1991 6.83029 16.9245 6.94406 16.722 7.14647C16.5195 7.34889 16.4056 7.62341 16.4054 7.90972ZM9.04503 20.0401C8.16757 20.0002 7.69064 19.854 7.37369 19.7305C6.9535 19.567 6.65369 19.3721 6.33848 19.0573C6.02326 18.7426 5.82814 18.443 5.66528 18.0228C5.54173 17.706 5.39557 17.229 5.35568 16.3515C5.31205 15.4028 5.30333 15.1179 5.30333 12.7144C5.30333 10.311 5.31277 10.0268 5.35568 9.07735C5.39564 8.19988 5.54288 7.72375 5.66528 7.40601C5.82886 6.98582 6.02369 6.68601 6.33848 6.3708C6.65326 6.05558 6.95278 5.86046 7.37369 5.6976C7.69049 5.57404 8.16757 5.42788 9.04503 5.388C9.9937 5.34436 10.2787 5.33565 12.681 5.33565C15.0834 5.33565 15.3686 5.34508 16.3181 5.388C17.1956 5.42796 17.6717 5.5752 17.9894 5.6976C18.4096 5.86046 18.7094 6.05601 19.0247 6.3708C19.3399 6.68558 19.5343 6.98582 19.6979 7.40601C19.8214 7.72281 19.9676 8.19988 20.0075 9.07735C20.0511 10.0268 20.0598 10.311 20.0598 12.7144C20.0598 15.1179 20.0511 15.402 20.0075 16.3515C19.9675 17.229 19.8206 17.7059 19.6979 18.0228C19.5343 18.443 19.3394 18.7428 19.0247 19.0573C18.7099 19.3718 18.4096 19.567 17.9894 19.7305C17.6726 19.8541 17.1956 20.0003 16.3181 20.0401C15.3694 20.0838 15.0845 20.0925 12.681 20.0925C10.2776 20.0925 9.99341 20.0838 9.04503 20.0401ZM8.97051 3.76886C8.01241 3.81249 7.35771 3.96441 6.78596 4.18689C6.19383 4.41664 5.69257 4.72488 5.19166 5.22499C4.69076 5.7251 4.38332 6.22716 4.15357 6.81928C3.93109 7.3914 3.77917 8.04573 3.73553 9.00384C3.69118 9.96345 3.68103 10.2702 3.68103 12.7144C3.68103 15.1585 3.69118 15.4653 3.73553 16.4249C3.77917 17.3831 3.93109 18.0373 4.15357 18.6094C4.38332 19.2012 4.69083 19.7038 5.19166 20.2037C5.69249 20.7036 6.19383 21.0114 6.78596 21.2418C7.35879 21.4643 8.01241 21.6162 8.97051 21.6599C9.93063 21.7035 10.2369 21.7144 12.681 21.7144C15.1251 21.7144 15.4319 21.7042 16.3916 21.6599C17.3497 21.6162 18.004 21.4643 18.5761 21.2418C19.1679 21.0114 19.6695 20.7038 20.1704 20.2037C20.6713 19.7036 20.9781 19.2012 21.2085 18.6094C21.431 18.0373 21.5836 17.383 21.6265 16.4249C21.6702 15.4645 21.6803 15.1585 21.6803 12.7144C21.6803 10.2702 21.6702 9.96345 21.6265 9.00384C21.5829 8.04566 21.431 7.39104 21.2085 6.81928C20.9781 6.22752 20.6705 5.72589 20.1704 5.22499C19.6703 4.72408 19.1679 4.41664 18.5768 4.18689C18.004 3.96441 17.3497 3.81177 16.3923 3.76886C15.4327 3.72523 15.1259 3.71436 12.6818 3.71436C10.2376 3.71436 9.93063 3.72451 8.97051 3.76886Z" fill="#004538"/>
</svg>
