<svg width="25" height="25" viewBox="0 0 25 25" fill="none" xmlns="http://www.w3.org/2000/svg">
<path d="M12.3333 17.2644C14.0658 15.8667 15.3739 14.5214 16.2576 13.2286C17.1414 11.9358 17.5833 10.731 17.5833 9.61436C17.5833 8.63102 17.4041 7.79769 17.0458 7.11436C16.6874 6.43102 16.2457 5.87369 15.7205 5.44236C15.1954 5.01101 14.6264 4.69851 14.0138 4.50486C13.4011 4.31119 12.8409 4.21436 12.3333 4.21436C11.8256 4.21436 11.2654 4.31119 10.6528 4.50486C10.0401 4.69851 9.47114 5.01101 8.94598 5.44236C8.42083 5.87369 7.97909 6.43102 7.62075 7.11436C7.26242 7.79769 7.08325 8.63102 7.08325 9.61436C7.08325 10.731 7.52513 11.9358 8.40888 13.2286C9.29263 14.5214 10.6008 15.8667 12.3333 17.2644ZM12.3333 19.1644C10.0499 17.4477 8.35409 15.8044 7.24575 14.2344C6.13742 12.6644 5.58325 11.1264 5.58325 9.62053C5.58325 8.48308 5.78742 7.48519 6.19575 6.62686C6.60409 5.76852 7.13325 5.04769 7.78325 4.46436C8.43325 3.88102 9.15809 3.44352 9.95775 3.15186C10.7574 2.86019 11.5491 2.71436 12.3328 2.71436C13.1164 2.71436 13.9083 2.86019 14.7083 3.15186C15.5083 3.44352 16.2333 3.88102 16.8833 4.46436C17.5333 5.04769 18.0624 5.7688 18.4708 6.62768C18.8791 7.48656 19.0833 8.48592 19.0833 9.62575C19.0833 11.1348 18.5291 12.6727 17.4208 14.2394C16.3124 15.806 14.6166 17.4477 12.3333 19.1644ZM12.3355 11.2144C12.8173 11.2144 13.2291 11.0428 13.5708 10.6996C13.9124 10.3565 14.0833 9.944 14.0833 9.46213C14.0833 8.98028 13.9117 8.56852 13.5685 8.22686C13.2254 7.88519 12.8129 7.71435 12.331 7.71435C11.8492 7.71435 11.4374 7.88593 11.0958 8.22908C10.7541 8.57221 10.5833 8.98471 10.5833 9.46658C10.5833 9.94843 10.7548 10.3602 11.098 10.7019C11.4411 11.0435 11.8536 11.2144 12.3355 11.2144ZM5.58325 22.7144V21.2144H19.0833V22.7144H5.58325Z" fill="#004538"/>
</svg>
