<svg width="25" height="25" viewBox="0 0 25 25" fill="none" xmlns="http://www.w3.org/2000/svg">
<path d="M3.83331 20.7144C3.43331 20.7144 3.08331 20.5644 2.78331 20.2644C2.48331 19.9644 2.33331 19.6144 2.33331 19.2144V6.21436C2.33331 5.81436 2.48331 5.46436 2.78331 5.16436C3.08331 4.86436 3.43331 4.71436 3.83331 4.71436H20.8333C21.2333 4.71436 21.5833 4.86436 21.8833 5.16436C22.1833 5.46436 22.3333 5.81436 22.3333 6.21436V19.2144C22.3333 19.6144 22.1833 19.9644 21.8833 20.2644C21.5833 20.5644 21.2333 20.7144 20.8333 20.7144H3.83331ZM12.3333 13.1644L3.83331 7.58936V19.2144H20.8333V7.58936L12.3333 13.1644ZM12.3333 11.6644L20.7333 6.21436H3.95831L12.3333 11.6644ZM3.83331 7.58936V6.21436V19.2144V7.58936Z" fill="#004538"/>
</svg>
