<svg width="25" height="25" viewBox="0 0 25 25" fill="none" xmlns="http://www.w3.org/2000/svg">
<path d="M19.7333 12.5395C19.6499 10.5228 18.9083 8.81445 17.5083 7.41445C16.1083 6.01445 14.3999 5.27279 12.3833 5.18945V3.68945C13.5833 3.72279 14.7124 3.97695 15.7708 4.45195C16.8291 4.92695 17.7583 5.56445 18.5583 6.36445C19.3583 7.16445 19.9958 8.09362 20.4708 9.15195C20.9458 10.2103 21.1999 11.3395 21.2333 12.5395H19.7333ZM15.5083 12.5395C15.4249 11.7061 15.0916 11.002 14.5083 10.427C13.9249 9.85195 13.2166 9.52279 12.3833 9.43945V7.93945C13.6333 8.02279 14.6958 8.49779 15.5708 9.36445C16.4458 10.2311 16.9249 11.2895 17.0083 12.5395H15.5083ZM20.2083 21.7145C18.2749 21.7145 16.3041 21.2478 14.2958 20.3145C12.2874 19.3811 10.4249 18.0561 8.70825 16.3395C6.99159 14.6228 5.66659 12.7603 4.73325 10.752C3.79992 8.74362 3.33325 6.77279 3.33325 4.83945C3.33325 4.51802 3.44039 4.25016 3.65468 4.03588C3.86896 3.82159 4.13682 3.71445 4.45825 3.71445H7.95825C8.19159 3.71445 8.39159 3.79779 8.55825 3.96445C8.72492 4.13112 8.84159 4.33945 8.90825 4.58945L9.58148 7.73048C9.61599 7.9698 9.61242 8.18529 9.57075 8.37695C9.52909 8.56862 9.43968 8.733 9.30253 8.8701L6.80825 11.3895C7.24159 12.1228 7.69992 12.8061 8.18325 13.4395C8.66658 14.0728 9.19992 14.6728 9.78325 15.2395C10.3999 15.8728 11.0499 16.452 11.7333 16.977C12.4166 17.502 13.1333 17.9645 13.8833 18.3645L16.2583 15.9145C16.4249 15.7311 16.6178 15.6061 16.837 15.5395C17.0562 15.4728 17.2716 15.4561 17.4833 15.4895L20.4583 16.1395C20.7083 16.2061 20.9166 16.3398 21.0833 16.5406C21.2499 16.7413 21.3333 16.9659 21.3333 17.2145V20.5895C21.3333 20.9109 21.2261 21.1787 21.0118 21.393C20.7975 21.6073 20.5297 21.7145 20.2083 21.7145ZM6.05825 10.0145L8.08325 7.96445L7.50825 5.21445H4.83325C4.86659 5.91445 4.97909 6.65195 5.17075 7.42695C5.36242 8.20195 5.65825 9.06445 6.05825 10.0145ZM15.2833 19.0895C15.9666 19.4061 16.7083 19.6645 17.5083 19.8645C18.3083 20.0645 19.0833 20.1811 19.8333 20.2145V17.5395L17.2583 17.0145L15.2833 19.0895Z" fill="#004538"/>
</svg>
