<svg width="25" height="25" viewBox="0 0 25 25" fill="none" xmlns="http://www.w3.org/2000/svg">
<path d="M3.68042 12.7144C3.68042 11.0823 4.08243 9.57636 4.88642 8.19636C5.69043 6.81635 6.78243 5.72436 8.16242 4.92036C9.54243 4.11635 11.0484 3.71436 12.6804 3.71436C14.3124 3.71436 15.8184 4.11635 17.1984 4.92036C18.5784 5.72436 19.6704 6.81635 20.4744 8.19636C21.2784 9.57636 21.6804 11.0823 21.6804 12.7144C21.6804 14.3464 21.2784 15.8523 20.4744 17.2324C19.6704 18.6124 18.5784 19.7044 17.1984 20.5084C15.8184 21.3124 14.3124 21.7144 12.6804 21.7144C11.0484 21.7144 9.54243 21.3124 8.16242 20.5084C6.78243 19.7044 5.69043 18.6124 4.88642 17.2324C4.08243 15.8523 3.68042 14.3464 3.68042 12.7144ZM5.17442 12.7144C5.17442 14.5864 5.80442 16.2364 7.06442 17.6644C7.64042 16.5364 8.55243 15.4624 9.80042 14.4424C11.0484 13.4223 12.2664 12.7804 13.4544 12.5164C13.2744 12.0964 13.1004 11.7184 12.9324 11.3824C10.8684 12.0424 8.63643 12.3724 6.23642 12.3724C5.76842 12.3724 5.42043 12.3664 5.19242 12.3544C5.19242 12.4024 5.18943 12.4624 5.18342 12.5344C5.17743 12.6064 5.17442 12.6663 5.17442 12.7144ZM5.40842 10.8604C5.67243 10.8843 6.06243 10.8964 6.57842 10.8964C8.58243 10.8964 10.4844 10.6264 12.2844 10.0864C11.3724 8.46636 10.3704 7.11636 9.27842 6.03636C8.33043 6.51636 7.51743 7.18236 6.83942 8.03436C6.16143 8.88635 5.68443 9.82836 5.40842 10.8604ZM8.09042 18.6364C9.44643 19.6924 10.9764 20.2204 12.6804 20.2204C13.5684 20.2204 14.4504 20.0524 15.3264 19.7164C15.0864 17.6644 14.6184 15.6784 13.9224 13.7584C12.8184 13.9984 11.7054 14.6044 10.5834 15.5764C9.46143 16.5484 8.63042 17.5684 8.09042 18.6364ZM10.8444 5.46036C11.9004 6.55236 12.8784 7.91435 13.7784 9.54636C15.4104 8.86236 16.6404 7.99236 17.4684 6.93636C16.0764 5.78436 14.4804 5.20836 12.6804 5.20836C12.0684 5.20836 11.4564 5.29236 10.8444 5.46036ZM14.4264 10.8244C14.6064 11.2083 14.8104 11.6944 15.0384 12.2824C15.9264 12.1983 16.8924 12.1564 17.9364 12.1564C18.6804 12.1564 19.4184 12.1744 20.1504 12.2104C20.0544 10.5784 19.4664 9.12636 18.3864 7.85436C17.6064 9.01836 16.2864 10.0084 14.4264 10.8244ZM15.4884 13.5424C16.1004 15.3184 16.5144 17.1424 16.7304 19.0144C17.6784 18.4024 18.4524 17.6164 19.0524 16.6564C19.6524 15.6964 20.0124 14.6584 20.1324 13.5424C19.2564 13.4824 18.4584 13.4524 17.7384 13.4524C17.0784 13.4524 16.3284 13.4824 15.4884 13.5424Z" fill="#004538"/>
</svg>
