<svg width="48" height="49" viewBox="0 0 48 49" fill="none" xmlns="http://www.w3.org/2000/svg">
<rect y="0.714355" width="48" height="48" rx="24" fill="#00DA49"/>
<path d="M32.0215 17.0228C31.5216 17.0395 31.0479 17.2505 30.7012 17.6109C27.0224 21.2976 24.2126 24.377 20.7986 27.8616L17.1614 24.7888V24.789C16.7717 24.4594 16.2668 24.2984 15.7581 24.3417C15.2497 24.385 14.7791 24.629 14.4507 25.0195C14.1221 25.4102 13.9627 25.9155 14.0074 26.424C14.0521 26.9325 14.2973 27.4022 14.6888 27.7298L19.6821 31.955V31.9548C20.0496 32.2643 20.5196 32.4249 20.9994 32.4049C21.4795 32.385 21.9346 32.1859 22.2749 31.8468C26.4117 27.7011 29.3566 24.39 33.4141 20.3238V20.324C33.788 19.9627 33.9994 19.4653 34 18.9456C34.0008 18.4256 33.7907 17.9279 33.4179 17.5655C33.045 17.2032 32.5413 17.0074 32.0217 17.0231L32.0215 17.0228Z" fill="white"/>
</svg>
